<svg width="140" height="30" viewBox="0 0 140 30" fill="none" xmlns="http://www.w3.org/2000/svg">
<path d="M1.554 22V7.09H8.148C8.834 7.09 9.464 7.23 10.038 7.51C10.626 7.79 11.13 8.168 11.55 8.644C11.984 9.12 12.313 9.652 12.537 10.24C12.775 10.828 12.894 11.43 12.894 12.046C12.894 12.676 12.782 13.285 12.558 13.873C12.348 14.447 12.04 14.951 11.634 15.385C11.228 15.819 10.752 16.155 10.206 16.393L13.608 22H10.416L7.35 17.002H4.452V22H1.554ZM4.452 14.461H8.085C8.449 14.461 8.771 14.356 9.051 14.146C9.331 13.922 9.555 13.628 9.723 13.264C9.891 12.9 9.975 12.494 9.975 12.046C9.975 11.57 9.877 11.157 9.681 10.807C9.485 10.443 9.233 10.156 8.925 9.946C8.631 9.736 8.309 9.631 7.959 9.631H4.452V14.461ZM19.9807 22.21C19.0987 22.21 18.3007 22.063 17.5867 21.769C16.8727 21.461 16.2637 21.048 15.7597 20.53C15.2557 19.998 14.8637 19.396 14.5837 18.724C14.3177 18.038 14.1847 17.317 14.1847 16.561C14.1847 15.511 14.4157 14.552 14.8777 13.684C15.3537 12.816 16.0257 12.123 16.8937 11.605C17.7757 11.073 18.8117 10.807 20.0017 10.807C21.2057 10.807 22.2347 11.073 23.0887 11.605C23.9427 12.123 24.5937 12.816 25.0417 13.684C25.5037 14.538 25.7347 15.462 25.7347 16.456C25.7347 16.624 25.7277 16.799 25.7137 16.981C25.6997 17.149 25.6857 17.289 25.6717 17.401H17.1667C17.2227 17.961 17.3837 18.451 17.6497 18.871C17.9297 19.291 18.2797 19.613 18.6997 19.837C19.1337 20.047 19.5957 20.152 20.0857 20.152C20.6457 20.152 21.1707 20.019 21.6607 19.753C22.1647 19.473 22.5077 19.109 22.6897 18.661L25.1047 19.333C24.8387 19.893 24.4537 20.39 23.9497 20.824C23.4597 21.258 22.8787 21.601 22.2067 21.853C21.5347 22.091 20.7927 22.21 19.9807 22.21ZM17.1037 15.616H22.8577C22.8017 15.056 22.6407 14.573 22.3747 14.167C22.1227 13.747 21.7867 13.425 21.3667 13.201C20.9467 12.963 20.4777 12.844 19.9597 12.844C19.4557 12.844 18.9937 12.963 18.5737 13.201C18.1677 13.425 17.8317 13.747 17.5657 14.167C17.3137 14.573 17.1597 15.056 17.1037 15.616ZM26.693 18.745C26.693 18.031 26.889 17.408 27.281 16.876C27.687 16.33 28.247 15.91 28.961 15.616C29.675 15.322 30.494 15.175 31.418 15.175C31.88 15.175 32.349 15.21 32.825 15.28C33.301 15.35 33.714 15.462 34.064 15.616V15.028C34.064 14.328 33.854 13.789 33.434 13.411C33.028 13.033 32.419 12.844 31.607 12.844C31.005 12.844 30.431 12.949 29.885 13.159C29.339 13.369 28.765 13.677 28.163 14.083L27.26 12.235C27.988 11.759 28.73 11.402 29.486 11.164C30.256 10.926 31.061 10.807 31.901 10.807C33.469 10.807 34.687 11.199 35.555 11.983C36.437 12.767 36.878 13.887 36.878 15.343V18.85C36.878 19.144 36.927 19.354 37.025 19.48C37.137 19.606 37.312 19.683 37.55 19.711V22C37.298 22.042 37.067 22.077 36.857 22.105C36.661 22.133 36.493 22.147 36.353 22.147C35.793 22.147 35.366 22.021 35.072 21.769C34.792 21.517 34.617 21.209 34.547 20.845L34.484 20.278C34.008 20.894 33.413 21.37 32.699 21.706C31.985 22.042 31.257 22.21 30.515 22.21C29.787 22.21 29.129 22.063 28.541 21.769C27.967 21.461 27.512 21.048 27.176 20.53C26.854 19.998 26.693 19.403 26.693 18.745ZM33.539 19.312C33.693 19.144 33.819 18.976 33.917 18.808C34.015 18.64 34.064 18.486 34.064 18.346V17.233C33.728 17.093 33.364 16.988 32.972 16.918C32.58 16.834 32.209 16.792 31.859 16.792C31.131 16.792 30.529 16.953 30.053 17.275C29.591 17.583 29.36 17.996 29.36 18.514C29.36 18.794 29.437 19.06 29.591 19.312C29.745 19.564 29.969 19.767 30.263 19.921C30.557 20.075 30.907 20.152 31.313 20.152C31.733 20.152 32.146 20.075 32.552 19.921C32.958 19.753 33.287 19.55 33.539 19.312ZM38.8356 16.498C38.8356 15.434 39.0456 14.475 39.4656 13.621C39.8856 12.753 40.4666 12.067 41.2086 11.563C41.9506 11.059 42.7976 10.807 43.7496 10.807C44.5616 10.807 45.2896 11.01 45.9336 11.416C46.5916 11.808 47.1026 12.312 47.4666 12.928V6.67H50.2806V18.85C50.2806 19.144 50.3296 19.354 50.4276 19.48C50.5256 19.606 50.6936 19.683 50.9316 19.711V22C50.4416 22.098 50.0426 22.147 49.7346 22.147C49.2306 22.147 48.8106 22.021 48.4746 21.769C48.1526 21.517 47.9706 21.188 47.9286 20.782L47.8866 20.089C47.4806 20.775 46.9276 21.3 46.2276 21.664C45.5416 22.028 44.8206 22.21 44.0646 22.21C43.3086 22.21 42.6086 22.063 41.9646 21.769C41.3346 21.475 40.7816 21.069 40.3056 20.551C39.8436 20.033 39.4796 19.431 39.2136 18.745C38.9616 18.045 38.8356 17.296 38.8356 16.498ZM47.4666 17.968V15.343C47.3266 14.937 47.1026 14.573 46.7946 14.251C46.4866 13.929 46.1436 13.677 45.7656 13.495C45.3876 13.299 45.0096 13.201 44.6316 13.201C44.1976 13.201 43.8056 13.292 43.4556 13.474C43.1056 13.656 42.7976 13.901 42.5316 14.209C42.2796 14.517 42.0836 14.874 41.9436 15.28C41.8176 15.686 41.7546 16.113 41.7546 16.561C41.7546 17.009 41.8246 17.436 41.9646 17.842C42.1186 18.234 42.3356 18.577 42.6156 18.871C42.8956 19.165 43.2176 19.396 43.5816 19.564C43.9596 19.732 44.3656 19.816 44.7996 19.816C45.0656 19.816 45.3316 19.774 45.5976 19.69C45.8776 19.592 46.1366 19.466 46.3746 19.312C46.6266 19.144 46.8436 18.948 47.0256 18.724C47.2216 18.486 47.3686 18.234 47.4666 17.968ZM70.5196 22V12.214L66.6976 19.501H65.0806L61.2586 12.214V22H58.3606V7.09H61.4686L65.8786 15.574L70.3306 7.09H73.4176V22H70.5196ZM81.155 22.21C80.259 22.21 79.454 22.063 78.74 21.769C78.026 21.461 77.417 21.041 76.913 20.509C76.423 19.977 76.045 19.368 75.779 18.682C75.513 17.996 75.38 17.275 75.38 16.519C75.38 15.749 75.513 15.021 75.779 14.335C76.045 13.649 76.423 13.04 76.913 12.508C77.417 11.976 78.026 11.563 78.74 11.269C79.454 10.961 80.259 10.807 81.155 10.807C82.051 10.807 82.849 10.961 83.549 11.269C84.263 11.563 84.872 11.976 85.376 12.508C85.88 13.04 86.258 13.649 86.51 14.335C86.776 15.021 86.909 15.749 86.909 16.519C86.909 17.275 86.776 17.996 86.51 18.682C86.258 19.368 85.88 19.977 85.376 20.509C84.886 21.041 84.284 21.461 83.57 21.769C82.856 22.063 82.051 22.21 81.155 22.21ZM78.278 16.519C78.278 17.163 78.404 17.737 78.656 18.241C78.908 18.731 79.251 19.116 79.685 19.396C80.119 19.676 80.609 19.816 81.155 19.816C81.687 19.816 82.17 19.676 82.604 19.396C83.038 19.102 83.381 18.71 83.633 18.22C83.899 17.716 84.032 17.142 84.032 16.498C84.032 15.868 83.899 15.301 83.633 14.797C83.381 14.293 83.038 13.901 82.604 13.621C82.17 13.341 81.687 13.201 81.155 13.201C80.609 13.201 80.119 13.348 79.685 13.642C79.251 13.922 78.908 14.314 78.656 14.818C78.404 15.308 78.278 15.875 78.278 16.519ZM95.3603 13.432C94.5063 13.432 93.7433 13.6 93.0713 13.936C92.3993 14.258 91.9163 14.727 91.6223 15.343V22H88.8083V10.996H91.3913V13.348C91.7833 12.592 92.2803 11.997 92.8823 11.563C93.4843 11.129 94.1213 10.891 94.7933 10.849C94.9473 10.849 95.0663 10.849 95.1503 10.849C95.2343 10.849 95.3043 10.856 95.3603 10.87V13.432ZM101.889 22.21C101.007 22.21 100.209 22.063 99.4949 21.769C98.7809 21.461 98.1719 21.048 97.6679 20.53C97.1639 19.998 96.7719 19.396 96.4919 18.724C96.2259 18.038 96.0929 17.317 96.0929 16.561C96.0929 15.511 96.3239 14.552 96.7859 13.684C97.2619 12.816 97.9339 12.123 98.8019 11.605C99.6839 11.073 100.72 10.807 101.91 10.807C103.114 10.807 104.143 11.073 104.997 11.605C105.851 12.123 106.502 12.816 106.95 13.684C107.412 14.538 107.643 15.462 107.643 16.456C107.643 16.624 107.636 16.799 107.622 16.981C107.608 17.149 107.594 17.289 107.58 17.401H99.0749C99.1309 17.961 99.2919 18.451 99.5579 18.871C99.8379 19.291 100.188 19.613 100.608 19.837C101.042 20.047 101.504 20.152 101.994 20.152C102.554 20.152 103.079 20.019 103.569 19.753C104.073 19.473 104.416 19.109 104.598 18.661L107.013 19.333C106.747 19.893 106.362 20.39 105.858 20.824C105.368 21.258 104.787 21.601 104.115 21.853C103.443 22.091 102.701 22.21 101.889 22.21ZM99.0119 15.616H104.766C104.71 15.056 104.549 14.573 104.283 14.167C104.031 13.747 103.695 13.425 103.275 13.201C102.855 12.963 102.386 12.844 101.868 12.844C101.364 12.844 100.902 12.963 100.482 13.201C100.076 13.425 99.7399 13.747 99.4739 14.167C99.2219 14.573 99.0679 15.056 99.0119 15.616Z" fill="url(#paint0_linear_1_6331)"/>
<path d="M131.077 10L136 14.9255L131.077 19.8498M120 14.9268H136" stroke="url(#paint1_linear_1_6331)" stroke-width="2" stroke-linecap="round" stroke-linejoin="round"/>
<defs>
<linearGradient id="paint0_linear_1_6331" x1="4.06057e-07" y1="15" x2="109" y2="15" gradientUnits="userSpaceOnUse">
<stop stop-color="#F6EB61"/>
<stop offset="1" stop-color="#FFB25B"/>
</linearGradient>
<linearGradient id="paint1_linear_1_6331" x1="120" y1="14.9249" x2="136" y2="14.9249" gradientUnits="userSpaceOnUse">
<stop stop-color="#F6EB61"/>
<stop offset="1" stop-color="#FFB25B"/>
</linearGradient>
</defs>
</svg>
