<svg width="343" height="48" viewBox="0 0 343 48" fill="none" xmlns="http://www.w3.org/2000/svg">
<rect x="0.5" y="0.5" width="342" height="47" rx="7.5" fill="white"/>
<g opacity="0.5">
<path d="M37.1431 24.5713H33.7146M23.4289 16.5713C23.732 16.5713 24.0226 16.6917 24.237 16.906C24.4513 17.1204 24.5717 17.411 24.5717 17.7141V19.9999C24.5717 20.303 24.4513 20.5937 24.237 20.808C24.0226 21.0223 23.732 21.1427 23.4289 21.1427C23.1257 21.1427 22.8351 21.0223 22.6207 20.808C22.4064 20.5937 22.286 20.303 22.286 19.9999V17.7141C22.286 17.411 22.4064 17.1204 22.6207 16.906C22.8351 16.6917 23.1257 16.5713 23.4289 16.5713V16.5713ZM37.1431 18.857H24.5717H37.1431ZM22.286 18.857H18.8574H22.286ZM23.4289 27.9999C23.732 27.9999 24.0226 28.1203 24.237 28.3346C24.4513 28.5489 24.5717 28.8396 24.5717 29.1427V31.4284C24.5717 31.7315 24.4513 32.0222 24.237 32.2366C24.0226 32.4509 23.732 32.5713 23.4289 32.5713C23.1257 32.5713 22.8351 32.4509 22.6207 32.2366C22.4064 32.0222 22.286 31.7315 22.286 31.4284V29.1427C22.286 28.8396 22.4064 28.5489 22.6207 28.3346C22.8351 28.1203 23.1257 27.9999 23.4289 27.9999ZM37.1431 30.2856H24.5717H37.1431ZM22.286 30.2856H18.8574H22.286ZM32.5717 22.2856C32.8748 22.2856 33.1655 22.406 33.3798 22.6203C33.5942 22.8346 33.7146 23.1253 33.7146 23.4284V25.7141C33.7146 26.0173 33.5942 26.3079 33.3798 26.5223C33.1655 26.7366 32.8748 26.857 32.5717 26.857C32.2686 26.857 31.9779 26.7366 31.7636 26.5223C31.5493 26.3079 31.4289 26.0173 31.4289 25.7141V23.4284C31.4289 23.1253 31.5493 22.8346 31.7636 22.6203C31.9779 22.406 32.2686 22.2856 32.5717 22.2856V22.2856ZM31.4289 24.5713H18.8574H31.4289Z" stroke="#101820" stroke-linecap="round" stroke-linejoin="round"/>
</g>
<path d="M51.47 19.06L54.76 27.418L58.036 19.06H59.366L55.334 29H54.186L50.14 19.06H51.47ZM60.5096 29V21.692H61.7416V29H60.5096ZM60.5096 20.32V18.78H61.7416V20.32H60.5096ZM66.9702 29.14C66.4195 29.14 65.9155 29.042 65.4582 28.846C65.0102 28.6407 64.6182 28.3653 64.2822 28.02C63.9555 27.6653 63.6989 27.2593 63.5122 26.802C63.3349 26.3447 63.2462 25.8593 63.2462 25.346C63.2462 24.6553 63.4049 24.0253 63.7222 23.456C64.0395 22.8867 64.4782 22.4293 65.0382 22.084C65.6075 21.7387 66.2562 21.566 66.9842 21.566C67.7215 21.566 68.3609 21.7433 68.9022 22.098C69.4529 22.4433 69.8775 22.9007 70.1762 23.47C70.4842 24.03 70.6382 24.6367 70.6382 25.29C70.6382 25.3833 70.6335 25.4767 70.6242 25.57C70.6242 25.654 70.6195 25.7193 70.6102 25.766H64.5482C64.5855 26.242 64.7162 26.6667 64.9402 27.04C65.1735 27.404 65.4722 27.6933 65.8362 27.908C66.2002 28.1133 66.5922 28.216 67.0122 28.216C67.4602 28.216 67.8802 28.104 68.2722 27.88C68.6735 27.656 68.9489 27.362 69.0982 26.998L70.1622 27.292C70.0035 27.6467 69.7655 27.964 69.4482 28.244C69.1402 28.524 68.7715 28.7433 68.3422 28.902C67.9222 29.0607 67.4649 29.14 66.9702 29.14ZM64.5062 24.912H69.4902C69.4529 24.436 69.3175 24.016 69.0842 23.652C68.8509 23.288 68.5522 23.0033 68.1882 22.798C67.8242 22.5927 67.4229 22.49 66.9842 22.49C66.5549 22.49 66.1582 22.5927 65.7942 22.798C65.4302 23.0033 65.1315 23.288 64.8982 23.652C64.6742 24.016 64.5435 24.436 64.5062 24.912ZM80.9723 21.692H82.1623L79.0543 29H77.9763L76.5623 25.556L75.1623 29H74.0843L70.9763 21.692H72.1523L74.6723 27.782L75.8483 24.786L74.6163 21.706H75.6943L76.5623 24.03L77.4303 21.706H78.5083L77.2903 24.786L78.4663 27.782L80.9723 21.692ZM89.2413 19.06H90.3053L94.3653 29H93.0213L91.8453 26.088H87.6733L86.5113 29H85.1673L89.2413 19.06ZM91.5653 25.108L89.7733 20.516L87.9253 25.108H91.5653ZM95.524 18.78H96.756V27.11C96.756 27.5113 96.812 27.7587 96.924 27.852C97.036 27.9453 97.1713 27.992 97.33 27.992C97.526 27.992 97.7126 27.9733 97.89 27.936C98.0673 27.8893 98.2166 27.8427 98.338 27.796L98.534 28.804C98.3286 28.888 98.086 28.958 97.806 29.014C97.526 29.07 97.2786 29.098 97.064 29.098C96.588 29.098 96.21 28.9627 95.93 28.692C95.6593 28.4213 95.524 28.0433 95.524 27.558V18.78ZM99.5298 18.78H100.762V27.11C100.762 27.5113 100.818 27.7587 100.93 27.852C101.042 27.9453 101.177 27.992 101.336 27.992C101.532 27.992 101.718 27.9733 101.896 27.936C102.073 27.8893 102.222 27.8427 102.344 27.796L102.54 28.804C102.334 28.888 102.092 28.958 101.812 29.014C101.532 29.07 101.284 29.098 101.07 29.098C100.594 29.098 100.216 28.9627 99.9358 28.692C99.6651 28.4213 99.5298 28.0433 99.5298 27.558V18.78Z" fill="#101820"/>
<g opacity="0.5">
<path d="M319.571 21.7144L314.999 26.2858L310.428 21.7144" stroke="#101820" stroke-linecap="round" stroke-linejoin="round"/>
</g>
<rect x="0.5" y="0.5" width="342" height="47" rx="7.5" stroke="#D8D8D8"/>
</svg>
