<svg width="51" height="50" viewBox="0 0 51 50" fill="none" xmlns="http://www.w3.org/2000/svg">
<g clip-path="url(#clip0_1_4984)">
<path d="M50.4984 24.9848C50.51 38.7503 39.3094 49.974 25.5309 50C11.7524 50.026 0.482527 38.7691 0.499867 24.979C0.517208 11.189 11.7351 0 25.4991 0C39.2632 0 50.4883 11.2121 50.4984 24.9848ZM26.1046 2.19213C13.4431 1.94937 2.94488 11.8812 2.69489 24.3403C2.43767 37.0466 12.3666 47.5593 24.8604 47.8079C37.5609 48.0593 48.065 38.1261 48.3092 25.6235C48.5548 12.9259 38.61 2.43201 26.1046 2.19213Z" fill="url(#paint0_linear_1_4984)"/>
<path d="M24.4014 36.9351C21.4433 36.8802 17.9492 35.4207 15.1097 32.4555C14.562 31.8774 14.5057 31.2619 14.9435 30.7937C15.3814 30.3255 16.0909 30.3601 16.6559 30.9382C18.8885 33.2618 21.6023 34.5652 24.8161 34.7415C28.2755 34.9308 31.2884 33.8109 33.8259 31.4425C34.0196 31.2619 34.1959 31.0624 34.3909 30.8833C34.9516 30.3703 35.6294 30.3341 36.0556 30.7893C36.4819 31.2445 36.4429 31.8572 35.9429 32.4006C34.9823 33.4489 33.8644 34.3416 32.6294 35.0464C30.4344 36.2921 28.0689 36.9438 24.4014 36.9351Z" fill="url(#paint1_linear_1_4984)"/>
<path d="M16.8166 17.3711C19.5622 17.3783 21.9408 19.5387 22.1965 22.2452C22.2934 23.277 21.9755 23.8276 21.2457 23.8882C20.5477 23.946 20.1345 23.4851 20.0116 22.514C19.8021 20.8493 18.7833 19.832 17.1129 19.6167C15.5074 19.4101 13.9049 20.5863 13.6274 22.1816C13.5855 22.4186 13.5682 22.66 13.5306 22.8969C13.4295 23.5328 13.0624 23.8911 12.4107 23.8897C11.8139 23.8897 11.3746 23.4099 11.3789 22.7337C11.3866 22.0095 11.542 21.2946 11.8356 20.6326C12.2702 19.6718 12.9695 18.8548 13.8517 18.2772C14.7338 17.6996 15.7623 17.3853 16.8166 17.3711Z" fill="url(#paint2_linear_1_4984)"/>
<path d="M28.7845 22.4907C28.9174 19.6685 31.3856 17.3406 34.2265 17.3709C37.0877 17.4012 39.4966 19.7148 39.6223 22.5528C39.657 23.3216 39.2625 23.8534 38.6108 23.8909C37.9591 23.9285 37.5631 23.5369 37.4461 22.7826C37.1412 20.8116 36.225 19.8333 34.4794 19.6136C32.848 19.407 31.2324 20.6396 31.0012 22.2682C30.9766 22.4343 30.9795 22.6063 30.9477 22.771C30.7859 23.5774 30.3524 23.9603 29.705 23.8823C29.0576 23.8042 28.7455 23.3187 28.7845 22.4907Z" fill="url(#paint3_linear_1_4984)"/>
</g>
<defs>
<linearGradient id="paint0_linear_1_4984" x1="0.499848" y1="25" x2="50.4984" y2="25" gradientUnits="userSpaceOnUse">
<stop stop-color="#F6EB61"/>
<stop offset="1" stop-color="#FFB25B"/>
</linearGradient>
<linearGradient id="paint1_linear_1_4984" x1="14.6523" y1="33.7029" x2="36.349" y2="33.7029" gradientUnits="userSpaceOnUse">
<stop stop-color="#F6EB61"/>
<stop offset="1" stop-color="#FFB25B"/>
</linearGradient>
<linearGradient id="paint2_linear_1_4984" x1="11.3789" y1="20.6321" x2="22.2135" y2="20.6321" gradientUnits="userSpaceOnUse">
<stop stop-color="#F6EB61"/>
<stop offset="1" stop-color="#FFB25B"/>
</linearGradient>
<linearGradient id="paint3_linear_1_4984" x1="28.7813" y1="20.632" x2="39.6245" y2="20.632" gradientUnits="userSpaceOnUse">
<stop stop-color="#F6EB61"/>
<stop offset="1" stop-color="#FFB25B"/>
</linearGradient>
<clipPath id="clip0_1_4984">
<rect width="50" height="50" fill="white" transform="translate(0.5)"/>
</clipPath>
</defs>
</svg>
