<svg width="37" height="50" viewBox="0 0 37 50" fill="none" xmlns="http://www.w3.org/2000/svg">
<g clip-path="url(#clip0_1_5003)">
<path d="M26.8596 49.994C24.8304 49.994 22.8012 49.994 20.7719 49.994C19.876 49.994 19.7089 49.8379 19.7011 48.9576C19.6902 47.8899 19.7105 46.8238 19.7011 45.7576C19.6902 45.0864 19.9727 44.69 20.6596 44.7305C21.2434 44.7664 21.2652 44.5073 21.209 44.0344C20.9874 42.1238 20.8391 40.2054 20.5924 38.2995C20.3162 36.1563 20.8375 34.3175 22.2985 32.6895C23.808 31.0068 25.2253 29.2413 26.6692 27.4993C27.2936 26.7454 28.0412 26.2131 29.0293 26.1413C29.5054 26.107 29.4835 25.8401 29.4835 25.5169C29.4835 23.7999 29.4476 22.0829 29.4914 20.3658C29.5616 17.731 32.0825 16.1685 34.3115 17.3626C35.3433 17.9167 35.9895 18.7909 35.9973 19.985C36.0176 23.9888 35.9973 27.9942 35.988 32.0042C35.988 32.7191 35.7382 33.381 35.4167 34.01C34.6612 35.4919 33.902 36.9706 33.1393 38.4462C32.822 39.0444 32.6378 39.7042 32.5992 40.3802C32.5367 41.6009 32.4884 42.8231 32.4103 44.0422C32.3822 44.498 32.4322 44.7508 33.0081 44.7415C33.9041 44.7259 34.1008 44.9725 34.1133 45.8497C34.1206 46.8633 34.1206 47.8774 34.1133 48.892C34.1133 49.813 33.9291 49.9972 33.0206 49.9987C30.968 49.9972 28.9154 49.994 26.8596 49.994ZM34.5738 25.9805C34.5738 24.0809 34.5909 22.1812 34.5738 20.2831C34.5613 19.2092 33.759 18.435 32.7506 18.449C31.7422 18.4631 31.0164 19.2123 31.0055 20.2628C30.9883 22.1875 31.0055 24.1121 30.9961 26.0383C30.9839 26.1775 31.007 26.3176 31.0632 26.4455C31.1194 26.5734 31.2069 26.6852 31.3177 26.7704C32.9161 28.1081 33.0971 29.9656 31.7859 31.5781C30.9524 32.6083 30.0845 33.6073 29.2354 34.6297C28.8857 35.0496 28.483 35.3493 27.9866 34.9013C27.5183 34.483 27.7728 34.0631 28.099 33.676C28.9544 32.6614 29.816 31.6467 30.6527 30.6243C31.3754 29.7377 31.2927 28.6497 30.4841 27.9926C29.7036 27.3682 28.6469 27.4712 27.921 28.3251C26.2373 30.3023 24.5682 32.2956 22.9136 34.305C22.5665 34.7138 22.3049 35.1879 22.144 35.6994C21.9832 36.2109 21.9264 36.7495 21.977 37.2833C22.1908 39.5857 22.4687 41.8834 22.6966 44.1842C22.7356 44.5698 22.8418 44.729 23.2523 44.7259C25.6457 44.7102 28.0392 44.7102 30.4326 44.7259C30.9118 44.7259 30.9805 44.498 30.9867 44.1015C31.0023 43.0869 31.0741 42.0723 31.071 41.0592C31.0632 39.5857 31.4956 38.2604 32.2121 36.9867C32.8614 35.8332 33.4327 34.6359 34.0321 33.4543C34.4014 32.7346 34.5899 31.9358 34.5816 31.127C34.566 29.4146 34.5753 27.6976 34.5738 25.9805ZM27.0032 46.2478H22.7184C21.1684 46.2478 21.1965 46.2478 21.1669 47.79C21.1559 48.3878 21.3042 48.5876 21.938 48.5814C24.9506 48.547 27.9632 48.5658 30.9774 48.5658C32.6772 48.5658 32.6601 48.5658 32.646 46.8956C32.646 46.3992 32.5165 46.2244 31.9904 46.2353C30.3296 46.2696 28.6656 46.2478 27.0032 46.2478Z" fill="url(#paint0_linear_1_5003)"/>
<path d="M10.1068 49.9939C8.07763 49.9939 6.04841 49.9939 4.01919 49.9939C3.08262 49.9939 2.91092 49.8238 2.90312 48.92C2.89479 47.8794 2.89479 46.8387 2.90312 45.7981C2.91248 44.9692 3.12789 44.7226 3.97704 44.7335C4.50152 44.7335 4.64668 44.5775 4.61078 44.067C4.52337 42.8183 4.48122 41.5695 4.4141 40.3286C4.36995 39.653 4.1804 38.9949 3.85841 38.3993C3.10292 36.9491 2.36303 35.4881 1.61378 34.0286C1.22942 33.3184 1.02219 32.5259 1.0097 31.7184C1.0097 27.8442 0.984721 23.9684 1.0097 20.0941C1.01584 19.3982 1.25251 18.724 1.68266 18.1769C2.11282 17.6298 2.71219 17.2407 3.38701 17.0706C4.0986 16.8831 4.85258 16.9405 5.5276 17.2335C6.20261 17.5266 6.75938 18.0383 7.10828 18.6862C7.40447 19.265 7.54945 19.9094 7.52974 20.5593C7.52974 22.1983 7.54223 23.8373 7.52974 25.4747C7.52974 25.9117 7.61403 26.1069 8.11197 26.149C8.97517 26.2208 9.67291 26.6828 10.2255 27.3462C11.8447 29.2797 13.4644 31.2122 15.0847 33.1436C16.0774 34.3299 16.6066 35.6895 16.4739 37.2442C16.2819 39.495 16.0556 41.7443 15.809 43.9921C15.7528 44.5056 15.7934 44.7632 16.4037 44.7242C17.014 44.6852 17.3153 45.0239 17.3137 45.6373C17.3137 46.7815 17.3137 47.9257 17.3137 49.0714C17.3137 49.7286 17.0015 49.9986 16.349 49.9939C14.2668 49.9845 12.1876 49.9939 10.1068 49.9939ZM2.43483 25.932C2.43483 27.571 2.46137 29.21 2.43483 30.849C2.4096 31.8658 2.65067 32.8715 3.13413 33.7664C3.70388 34.845 4.22679 35.9517 4.82151 37.0163C5.52705 38.265 5.95319 39.5684 5.94851 41.0138C5.94851 42.0284 6.02812 43.0431 6.02968 44.0561C6.02968 44.5447 6.17016 44.7351 6.69776 44.7289C9.01211 44.7018 11.327 44.7018 13.6424 44.7289C14.1481 44.7289 14.2933 44.5728 14.337 44.0748C14.5259 41.9785 14.7272 39.8821 14.9957 37.7936C15.1705 36.4169 14.8646 35.2087 13.992 34.1535C12.3978 32.2294 10.7921 30.3146 9.17497 28.4092C8.38357 27.4727 7.30184 27.3244 6.50264 28.0018C5.70344 28.6793 5.65193 29.7626 6.42615 30.6991C7.27062 31.7216 8.12446 32.7284 8.97829 33.7508C9.30297 34.1348 9.43565 34.5437 9.00639 34.9106C8.57713 35.2774 8.18846 35.1041 7.86222 34.7154C6.92566 33.5978 5.95943 32.5083 5.06814 31.3579C4.79946 31.0284 4.59974 30.6483 4.48081 30.2401C4.36188 29.8319 4.32618 29.404 4.37583 28.9818C4.42548 28.5596 4.55946 28.1516 4.76983 27.7822C4.98019 27.4127 5.26264 27.0893 5.60042 26.8311C5.74447 26.7279 5.85929 26.5891 5.9337 26.4282C6.00811 26.2673 6.03957 26.0899 6.02499 25.9133C6.00938 24.0933 6.02499 22.2716 6.01563 20.45C6.01563 19.2169 5.30852 18.4302 4.2346 18.4333C3.16067 18.4364 2.44264 19.2637 2.43796 20.4703C2.43015 22.2919 2.43639 24.112 2.43483 25.932ZM10.1506 46.2477H5.93602C4.3423 46.2477 4.37508 46.2477 4.35635 47.8429C4.35635 48.4267 4.52337 48.5844 5.1056 48.5797C8.11821 48.55 11.1324 48.5657 14.145 48.5657C15.8792 48.5657 15.862 48.5657 15.8371 46.8486C15.8371 46.3569 15.6716 46.2383 15.2127 46.2445C13.5269 46.2617 11.8379 46.2477 10.1506 46.2477Z" fill="url(#paint1_linear_1_5003)"/>
<path d="M13.2084 0.0439217C14.9071 -0.0146447 16.5724 0.525709 17.9131 1.57052C18.3517 1.90924 18.6093 1.9389 19.0822 1.59081C21.2316 0.00489815 23.6089 -0.468066 26.1439 0.498155C28.8194 1.52369 30.3678 4.64869 29.8418 7.68628C29.2767 10.9377 27.4926 13.532 25.4071 15.9593C23.5699 18.0946 21.4642 19.9506 19.2399 21.6739C18.8403 21.986 18.4594 22.1905 17.9802 21.8299C14.3448 19.0046 10.9794 15.9218 8.67856 11.8634C7.65458 10.0589 6.9865 8.13271 7.0864 6.00515C7.26435 2.58045 9.92731 0.037678 13.2084 0.0439217ZM28.4447 6.67167C28.4572 3.51701 26.172 1.24897 23.381 1.48779C21.8014 1.62359 20.4153 2.21207 19.2976 3.36092C18.6904 3.98529 18.3298 3.98529 17.7367 3.37809C17.102 2.72327 16.3323 2.21458 15.4811 1.88739C12.456 0.726052 9.5839 2.05909 8.741 5.07639C8.27271 6.75908 8.68168 8.38714 9.38566 9.9153C11.3384 14.1751 14.6694 17.2517 18.2221 20.141C18.4578 20.3314 18.6171 20.2799 18.8278 20.1098C21.984 17.5701 24.9154 14.8213 26.954 11.264C27.8047 9.79199 28.401 8.2248 28.4447 6.67167Z" fill="url(#paint2_linear_1_5003)"/>
<path d="M21.9945 15.6626C21.3607 15.6516 20.983 15.0007 21.3342 14.5356C21.8465 13.8833 22.3958 13.261 22.9794 12.6718C23.2448 12.3924 23.6038 12.4158 23.902 12.6343C23.9756 12.6793 24.0394 12.7387 24.0895 12.809C24.1396 12.8792 24.1749 12.9589 24.1935 13.0432C24.212 13.1275 24.2133 13.2146 24.1972 13.2994C24.1812 13.3842 24.1482 13.4649 24.1002 13.5366C23.586 14.2845 22.9757 14.9615 22.2848 15.5502C22.1963 15.6061 22.0976 15.6443 21.9945 15.6626Z" fill="url(#paint3_linear_1_5003)"/>
</g>
<defs>
<linearGradient id="paint0_linear_1_5003" x1="19.6978" y1="33.4771" x2="36.0061" y2="33.4771" gradientUnits="userSpaceOnUse">
<stop stop-color="#F6EB61"/>
<stop offset="1" stop-color="#FFB25B"/>
</linearGradient>
<linearGradient id="paint1_linear_1_5003" x1="0.998596" y1="33.4782" x2="17.3137" y2="33.4782" gradientUnits="userSpaceOnUse">
<stop stop-color="#F6EB61"/>
<stop offset="1" stop-color="#FFB25B"/>
</linearGradient>
<linearGradient id="paint2_linear_1_5003" x1="7.07654" y1="11.0099" x2="29.9438" y2="11.0099" gradientUnits="userSpaceOnUse">
<stop stop-color="#F6EB61"/>
<stop offset="1" stop-color="#FFB25B"/>
</linearGradient>
<linearGradient id="paint3_linear_1_5003" x1="21.1998" y1="14.0644" x2="24.2084" y2="14.0644" gradientUnits="userSpaceOnUse">
<stop stop-color="#F6EB61"/>
<stop offset="1" stop-color="#FFB25B"/>
</linearGradient>
<clipPath id="clip0_1_5003">
<rect width="35.0025" height="50" fill="white" transform="translate(0.998779)"/>
</clipPath>
</defs>
</svg>
