<svg width="51" height="50" viewBox="0 0 51 50" fill="none" xmlns="http://www.w3.org/2000/svg">
<g clip-path="url(#clip0_1_4944)">
<path d="M28.6102 49.5867C27.7059 48.9202 26.7379 49.539 25.6743 49.8932C24.3287 50.3399 22.9613 49.4248 22.5909 48.0138C22.4939 47.6452 22.3666 47.4673 21.9412 47.424C20.7055 47.3011 19.927 46.5942 19.6463 45.374C19.571 45.0401 19.4509 44.9215 19.1138 44.8507C17.5612 44.5297 17.0084 43.9283 16.7986 42.3468C16.7596 42.0504 16.6539 41.9507 16.379 41.874C15.7416 41.7053 15.1948 41.2958 14.8539 40.732C14.6918 40.4645 14.4401 40.3358 14.1883 40.2C12.5427 39.3263 11.0919 38.1277 9.92409 36.6769C9.68051 36.379 9.37089 36.142 9.01973 35.9844C6.48754 34.7556 3.95727 33.5224 1.42893 32.2849C1.28424 32.2112 1.12507 32.1403 0.97748 32.055C0.565094 31.8237 0.362518 31.4898 0.602715 31.0431C0.831336 30.6094 1.1815 30.5299 1.6373 30.7539C3.64569 31.7428 5.66132 32.7157 7.67405 33.6944C7.80428 33.7566 7.93016 33.8274 8.06184 33.8867C9.50881 34.5185 10.8501 35.237 11.8153 36.5713C12.3767 37.3462 13.2217 37.8724 14.032 38.4059C14.346 38.6097 14.566 38.695 14.7078 38.2295C14.8421 37.8652 15.0738 37.5447 15.3777 37.3028C16.3978 36.3834 17.4194 35.4668 18.4337 34.5416C18.7969 34.2105 19.1861 34.0457 19.5696 34.4534C19.9747 34.8871 19.8011 35.2861 19.4119 35.6374C18.4472 36.5048 17.4826 37.377 16.5179 38.2541C15.9391 38.7789 15.7669 39.4106 16.0838 39.9137C16.4673 40.5194 17.0258 40.612 17.661 40.359C17.805 40.2935 17.9671 40.2791 18.1204 40.318C18.2738 40.3569 18.4093 40.4468 18.5046 40.5729C18.7636 40.8621 18.7347 41.1801 18.5162 41.4982C18.1458 42.0345 18.0908 42.607 18.5827 43.0725C19.0747 43.538 19.6796 43.5062 20.2323 43.1058C20.5839 42.8499 20.9471 42.7646 21.277 43.0855C21.6069 43.4065 21.5432 43.7737 21.3074 44.1351C20.9674 44.6599 20.9341 45.202 21.3971 45.6487C21.8601 46.0954 22.4548 46.0925 22.9888 45.7383C23.3693 45.4839 23.7123 45.2193 24.1463 45.601C24.5804 45.9826 24.3923 46.3657 24.1463 46.7575C23.8237 47.2765 23.8902 47.7984 24.3316 48.2032C24.7729 48.608 25.2793 48.6369 25.8017 48.3261C26.1576 48.1165 26.2821 47.9112 25.9232 47.5657C25.4891 47.1435 25.1404 46.6505 25.055 46.0202C24.8394 44.43 25.8321 43.1159 27.4512 42.9164C27.8101 42.8716 27.907 42.7429 28.0011 42.4147C28.3281 41.2698 29.0892 40.5715 30.2989 40.4269C30.5796 40.3937 30.7691 40.3633 30.8545 40.012C31.1627 38.7514 32.0236 38.056 33.2825 37.8652C33.6008 37.8175 33.705 37.7206 33.7803 37.4084C34.0306 36.3516 34.7526 35.6851 35.7756 35.4307C36.7567 35.1864 37.6364 35.4813 38.3223 36.2533C38.739 36.7217 39.1717 37.1771 39.5508 37.6744C39.8054 38.0083 40.0066 37.9823 40.3148 37.7654C41.0784 37.2553 41.735 36.6012 42.2479 35.8398C42.6158 35.2734 43.1435 34.8287 43.7643 34.5618C45.5716 33.7118 47.3601 32.827 49.1529 31.9452C49.6173 31.7182 50.0992 31.5476 50.3987 32.1273C50.7185 32.7504 50.2743 33.0367 49.7808 33.2839C47.9634 34.1657 46.1533 35.0649 44.3301 35.9381C44.0012 36.084 43.7188 36.3176 43.514 36.6132C42.7732 37.72 41.7818 38.6368 40.6201 39.2892C40.495 39.3561 40.3872 39.4512 40.3051 39.5668C40.223 39.6825 40.1688 39.8156 40.1469 39.9556C39.8575 41.1527 39.0212 41.9073 37.7797 42.0331C37.4382 42.0678 37.3326 42.2109 37.2602 42.4913C36.9477 43.6956 36.1417 44.3707 34.9378 44.5659C34.5732 44.6237 34.4401 44.7668 34.3344 45.1225C34.0031 46.2371 33.2145 46.9151 32.0685 47.0741C31.6344 47.1334 31.5244 47.304 31.4231 47.6669C31.099 48.8277 30.0572 49.5867 28.6102 49.5867ZM38.752 39.373C38.7422 39.2844 38.7208 39.1974 38.6884 39.1143C38.2502 38.2607 37.6148 37.5238 36.8348 36.9645C36.3761 36.6393 35.8538 36.8474 35.4761 37.2537C35.0984 37.6599 35.0261 38.1543 35.3314 38.5779C35.8001 39.2151 36.3198 39.8131 36.8855 40.3662C37.2183 40.6944 37.6885 40.6669 38.1009 40.4428C38.2972 40.3395 38.4616 40.1846 38.5764 39.9948C38.6911 39.805 38.7518 39.5875 38.752 39.3658V39.373ZM27.703 44.362C27.4775 44.3641 27.2569 44.4281 27.0654 44.5472C26.874 44.6663 26.7191 44.8359 26.6178 45.0372C26.511 45.2145 26.4607 45.4199 26.4733 45.6264C26.486 45.833 26.5611 46.0308 26.6887 46.1937C27.1322 46.7606 27.6045 47.3044 28.1038 47.823C28.4829 48.2104 28.9836 48.2162 29.4365 47.956C29.8894 47.6958 30.2323 47.265 30.037 46.7676C29.6535 45.7933 28.9127 45.0632 28.0749 44.4459C27.9582 44.3922 27.8315 44.3637 27.703 44.362ZM33.4171 39.3224C33.2053 39.3447 33.0022 39.4186 32.8256 39.5376C32.649 39.6566 32.5043 39.817 32.4042 40.0048C32.2928 40.1801 32.2389 40.3857 32.2501 40.593C32.2612 40.8003 32.3369 40.999 32.4664 41.1613C32.9164 41.7251 33.3867 42.2759 33.883 42.7993C34.0233 42.9527 34.2082 43.0583 34.4116 43.1013C34.6151 43.1444 34.8269 43.1227 35.0174 43.0393C35.2366 42.9661 35.431 42.8334 35.5788 42.6558C35.7265 42.4783 35.8218 42.2632 35.8538 42.0345C35.9681 41.3204 34.1709 39.3094 33.4171 39.3224ZM30.4334 41.8712C30.1122 41.8712 29.7649 42.0996 29.5305 42.5C29.4096 42.6832 29.3515 42.9007 29.3651 43.1198C29.3786 43.3388 29.4631 43.5475 29.6058 43.7144C30.0398 44.258 30.5029 44.7784 30.9746 45.2887C31.1089 45.4469 31.2897 45.5587 31.4913 45.6083C31.6929 45.6579 31.905 45.6427 32.0974 45.5648C32.5489 45.3957 32.8716 45.0892 32.9396 44.5789C33.0423 43.804 31.3653 41.8769 30.4334 41.8697V41.8712Z" fill="url(#paint0_linear_1_4944)"/>
<path d="M28.986 26.1858C30.0756 27.2918 31.0465 28.2791 32.0246 29.2636C32.437 29.68 32.7814 30.1311 32.9116 30.7209C33.1605 31.8528 32.7669 32.9501 31.8322 33.5732C30.8584 34.2194 29.831 34.2599 28.85 33.6108C27.7257 32.8663 26.6173 32.0928 25.5451 31.2746C25.001 30.8597 24.6277 30.7744 24.1155 31.3411C23.5222 31.9989 22.8132 32.5526 22.1563 33.1568C21.7729 33.5125 21.3417 33.7973 20.9061 33.3274C20.4431 32.8272 20.7716 32.4138 21.1955 32.0451C22.0058 31.3223 22.7973 30.5835 23.6047 29.8607C24.4121 29.1379 24.9866 29.0974 25.8692 29.7161C27.0514 30.546 28.2234 31.3917 29.4085 32.2186C30.1392 32.7289 30.7455 32.7043 31.223 32.1752C31.7005 31.6461 31.634 30.9609 31.0016 30.3161C29.6994 28.9919 28.4144 27.6561 27.0847 26.3607C24.7826 24.1185 22.0203 23.4419 18.8905 24.013C17.5651 24.2558 16.231 24.4553 14.9027 24.6823C14.5672 24.7308 14.225 24.671 13.926 24.5117C9.68151 22.5148 5.43369 20.5202 1.1825 18.5281C0.716575 18.317 0.343258 18.0452 0.577666 17.493C0.827992 16.9003 1.28089 16.9639 1.78154 17.2039C5.50459 18.9459 9.26961 20.62 12.9435 22.4719C14.2761 23.1441 15.5031 23.1514 16.8734 22.8853C18.1222 22.641 19.3752 22.388 20.6601 22.3591C23.2025 22.2984 25.4351 23.0979 27.4088 24.6809C27.6374 24.8645 27.8241 25.0307 28.1728 24.9266C30.6457 24.1951 33.0925 24.3686 35.4597 25.3271C36.2049 25.6278 36.7794 25.5468 37.4652 25.1391C41.2274 22.8984 45.0271 20.7082 48.8153 18.505C49.0365 18.3624 49.2766 18.2514 49.5286 18.1753C49.6811 18.1269 49.8462 18.1372 49.9914 18.2044C50.1366 18.2716 50.2513 18.3907 50.3129 18.5382C50.3907 18.6769 50.4165 18.8388 50.3858 18.9948C50.355 19.1508 50.2697 19.2908 50.145 19.3897C49.9954 19.5105 49.8351 19.6174 49.6661 19.7092C45.7347 22.002 41.7931 24.2775 37.8791 26.5978C37.0109 27.111 36.202 27.2021 35.2832 26.8176C33.7292 26.167 32.11 25.8432 30.4171 25.9935C29.9974 26.0311 29.5836 26.1049 28.986 26.1858Z" fill="url(#paint1_linear_1_4944)"/>
<path d="M15.384 6.96823C15.384 5.8594 15.384 4.75201 15.384 3.64318C15.4028 2.45773 15.9541 1.80284 17.0929 1.59033C19.7437 1.07567 22.3859 0.558121 25.0324 0.0535819C26.0887 -0.148812 27.0741 0.280552 28.0826 0.452587C30.0273 0.786537 31.9561 1.20434 33.8922 1.59033C34.9239 1.79562 35.4998 2.44761 35.5113 3.49717C35.5316 5.18282 35.5113 6.86992 35.52 8.55702C35.52 9.05289 35.358 9.45045 34.8182 9.46635C34.2395 9.4837 34.0514 9.07746 34.0528 8.54835C34.0528 6.98269 34.034 5.41558 34.0644 3.84992C34.0745 3.31646 33.9081 3.08516 33.3684 2.98251C30.8145 2.50544 28.2649 1.99801 25.7197 1.48046C25.4072 1.41685 25.1409 1.52817 24.8718 1.58021C22.4119 2.04283 19.9521 2.53146 17.4995 2.99697C17.09 3.07504 16.844 3.21527 16.8527 3.688C16.899 6.04734 16.6863 8.41968 16.9424 10.7718C17.3765 14.7618 19.6121 17.4219 23.2483 19.0786C24.8906 19.826 26.3202 19.6901 27.9003 18.9615C30.9737 17.5433 32.9647 15.2823 33.7866 12.0049C33.9153 11.4917 34.1237 11.0523 34.7488 11.2012C35.3739 11.3501 35.3609 11.8373 35.2263 12.3577C34.1917 16.3593 31.7073 19.0208 27.8786 20.5633C26.2681 21.2124 24.84 21.263 23.1817 20.6327C18.4154 18.8256 15.3985 14.6852 15.384 9.57767C15.3821 8.70545 15.3821 7.83563 15.384 6.96823Z" fill="url(#paint2_linear_1_4944)"/>
<path d="M18.3244 7.93854C18.3244 7.02343 18.3374 6.10832 18.3244 5.19176C18.3128 4.58458 18.5776 4.26219 19.1781 4.15088C21.1648 3.78079 23.1486 3.39335 25.1309 3.00301C25.6996 2.8917 26.235 3.07096 26.7732 3.16927C28.3823 3.46563 29.9783 3.83138 31.5887 4.11184C32.36 4.24629 32.6364 4.61494 32.6103 5.38404C32.564 6.7314 32.5987 8.08021 32.5973 9.43192C32.5828 13.4581 30.4514 16.481 26.6893 17.8732C25.9112 18.1855 25.0423 18.1855 24.2642 17.8732C20.544 16.5027 18.4025 13.5608 18.3316 9.59528C18.3157 9.04592 18.3244 8.49223 18.3244 7.93854ZM19.8046 8.30718V9.25265C19.8046 12.9319 21.3963 15.2016 24.843 16.4969C25.1078 16.5967 25.3509 16.7542 25.6678 16.6617C29.1781 15.6396 30.9926 12.9507 31.104 10.0521C31.1547 8.72932 31.104 7.40219 31.1301 6.07796C31.1387 5.64426 30.9854 5.49969 30.5701 5.43319C29.1969 5.18598 27.8353 4.87805 26.4621 4.63084C26.0657 4.55856 25.6808 4.38074 25.2554 4.46748C23.6058 4.80577 21.9563 5.14984 20.2995 5.45054C19.89 5.52571 19.7916 5.70497 19.8003 6.07362C19.8162 6.8138 19.8046 7.56122 19.8046 8.30718Z" fill="url(#paint3_linear_1_4944)"/>
<path d="M28.8219 8.10744C28.8132 8.40814 28.6468 8.61487 28.4775 8.82016C27.3199 10.234 26.1623 11.6508 24.9845 13.0574C24.4896 13.6516 24.1539 13.6718 23.5911 13.1673C23.251 12.8623 22.9182 12.5471 22.597 12.2218C22.2758 11.8965 22.2222 11.5452 22.5449 11.1983C22.8676 10.8513 23.2829 10.8166 23.5578 11.1578C24.1047 11.8257 24.3985 11.499 24.7892 11.0002C25.6573 9.90152 26.5559 8.83172 27.4472 7.76048C27.6788 7.48291 27.958 7.31521 28.3357 7.45978C28.4697 7.51074 28.5866 7.59864 28.6726 7.71328C28.7587 7.82792 28.8104 7.9646 28.8219 8.10744Z" fill="url(#paint4_linear_1_4944)"/>
</g>
<defs>
<linearGradient id="paint0_linear_1_4944" x1="0.499756" y1="40.3198" x2="50.5068" y2="40.3198" gradientUnits="userSpaceOnUse">
<stop stop-color="#F6EB61"/>
<stop offset="1" stop-color="#FFB25B"/>
</linearGradient>
<linearGradient id="paint1_linear_1_4944" x1="0.505615" y1="25.5542" x2="50.3984" y2="25.5542" gradientUnits="userSpaceOnUse">
<stop stop-color="#F6EB61"/>
<stop offset="1" stop-color="#FFB25B"/>
</linearGradient>
<linearGradient id="paint2_linear_1_4944" x1="15.3826" y1="10.5397" x2="35.5207" y2="10.5397" gradientUnits="userSpaceOnUse">
<stop stop-color="#F6EB61"/>
<stop offset="1" stop-color="#FFB25B"/>
</linearGradient>
<linearGradient id="paint3_linear_1_4944" x1="18.322" y1="10.5376" x2="32.612" y2="10.5376" gradientUnits="userSpaceOnUse">
<stop stop-color="#F6EB61"/>
<stop offset="1" stop-color="#FFB25B"/>
</linearGradient>
<linearGradient id="paint4_linear_1_4944" x1="22.3279" y1="10.4663" x2="28.8219" y2="10.4663" gradientUnits="userSpaceOnUse">
<stop stop-color="#F6EB61"/>
<stop offset="1" stop-color="#FFB25B"/>
</linearGradient>
<clipPath id="clip0_1_4944">
<rect width="50" height="50" fill="white" transform="translate(0.5)"/>
</clipPath>
</defs>
</svg>
