<svg width="37" height="50" viewBox="0 0 37 50" fill="none" xmlns="http://www.w3.org/2000/svg">
<g clip-path="url(#clip0_1_4966)">
<path d="M36.825 20.0642C36.825 21.6138 36.8354 23.1633 36.825 24.7129C36.8126 26.089 36.4655 27.37 35.5854 28.4629C34.7589 29.5146 33.8891 30.5435 33.0378 31.5807C32.5874 32.1303 32.0337 32.37 31.4304 31.8927C30.8271 31.4154 30.9449 30.8204 31.3994 30.2687C32.1639 29.3369 32.9077 28.3885 33.6928 27.4753C34.3783 26.6905 34.7467 25.6783 34.7259 24.6365C34.7259 21.6076 34.7465 18.5766 34.7259 15.5456C34.6949 12.2852 32.573 10.2047 29.325 10.1985C27.7775 10.1985 26.2259 10.1861 24.6783 10.1985C23.1308 10.2109 21.9759 11.2873 21.9717 12.715C21.9676 14.1427 23.0316 15.1757 24.5626 15.2357C25.5957 15.277 26.6287 15.2522 27.6618 15.2522C28.2672 15.2522 28.7734 15.4175 28.9015 16.0786C28.937 16.2046 28.946 16.3365 28.9278 16.4661C28.9097 16.5957 28.8648 16.72 28.796 16.8314C28.7273 16.9427 28.6361 17.0385 28.5284 17.1127C28.4206 17.1869 28.2986 17.2379 28.1701 17.2625C27.6742 17.3989 27.668 17.7749 27.635 18.1427C27.5564 19.0683 27.5027 20.0022 27.4387 20.9216C27.3787 21.8038 26.9201 22.1964 26.0275 22.184C24.9945 22.1675 23.9449 22.1096 22.9283 22.2728C19.9511 22.7522 17.8044 25.2543 17.6411 28.2935C17.6019 29.0497 17.6019 29.81 17.5068 30.5662C17.5003 30.6972 17.4671 30.8254 17.4093 30.943C17.3515 31.0607 17.2703 31.1654 17.1708 31.2506C17.0712 31.3359 16.9553 31.4 16.8301 31.439C16.705 31.478 16.5732 31.491 16.4428 31.4774C15.8416 31.4547 15.4449 31.0869 15.4573 30.496C15.5007 28.5043 15.4986 26.4898 16.4903 24.6695C18.1432 21.6633 20.699 20.091 24.1349 20.1241C25.1845 20.1241 25.5812 19.841 25.4738 18.8142C25.45 18.5734 25.4667 18.3304 25.5234 18.0952C25.6473 17.5621 25.4862 17.372 24.9159 17.3534C23.4366 17.3038 22.0234 16.9113 20.4676 17.2832C19.1907 17.5931 17.9139 16.9423 16.9387 15.9629C16.5998 15.6262 16.4428 15.6014 16.0544 15.9381C13.8519 17.839 11.5647 17.8245 9.28164 15.9092C8.93867 15.622 8.78991 15.6138 8.46759 15.9092C7.11429 17.1861 5.51718 17.6427 3.71553 17.1014C3.09569 16.9133 2.94073 17.0704 2.949 17.6861C2.97379 19.5786 2.949 21.4733 2.949 23.3658C2.949 23.6076 2.949 23.8472 2.949 24.089C2.949 24.8121 2.65561 25.3286 1.88908 25.3286C1.12255 25.3286 0.839494 24.8204 0.843626 24.089C0.843626 21.9898 0.996518 19.8762 0.812634 17.7914C0.442799 13.5394 0.124618 9.27698 0.238254 4.98772C0.289907 3.09929 1.02131 1.65301 2.62255 0.694332C4.4428 -0.413106 6.67834 -0.165172 8.35189 1.32863C8.78578 1.71706 8.97173 1.7026 9.40974 1.32863C11.4263 -0.452362 13.9407 -0.419305 16.0213 1.39268C16.3684 1.69433 16.5234 1.75632 16.918 1.41541C19.0833 -0.444098 21.48 -0.468891 23.6143 1.37822C24.044 1.75218 24.2341 1.66541 24.604 1.33689C26.1639 -0.0639326 27.9738 -0.377982 29.8726 0.469125C31.8188 1.33689 32.7651 2.9278 32.7279 5.07656C32.7279 5.3183 32.7486 5.5621 32.7279 5.7997C32.5502 7.5621 32.7424 8.98359 34.5192 10.1385C36.2961 11.2935 36.7858 13.3369 36.8209 15.4175C36.8457 16.965 36.825 18.5146 36.825 20.0642ZM2.3209 8.65301V12.2666C2.3209 12.3348 2.3209 12.4051 2.3209 12.4733C2.38495 14.0373 3.47999 15.184 4.95933 15.2357C5.32198 15.2578 5.6853 15.2051 6.02673 15.0809C6.36817 14.9567 6.68043 14.7636 6.94412 14.5137C7.20781 14.2637 7.41731 13.9623 7.55961 13.628C7.70191 13.2937 7.77397 12.9337 7.77131 12.5704C7.8333 9.99047 7.8333 7.40921 7.77131 4.82656C7.73619 3.1902 6.53164 2.09103 4.99858 2.11789C3.46553 2.14475 2.35396 3.29557 2.31263 4.93607C2.3085 6.17367 2.32916 7.41334 2.3271 8.65301H2.3209ZM15.4263 8.75218C15.4263 7.55177 15.4263 6.34929 15.4263 5.14888C15.4056 3.32036 14.2837 2.10342 12.6515 2.11789C11.0192 2.13235 9.9428 3.35136 9.92627 5.19846C9.91387 7.54006 9.91387 9.87477 9.92627 12.2026C9.93867 14.0166 11.0833 15.2522 12.7031 15.2377C14.2858 15.2212 15.3891 14.0125 15.4221 12.2542C15.4449 11.0869 15.4325 9.91747 15.4325 8.75218H15.4263ZM20.4304 15.1282C19.3849 11.6757 19.7114 10.7212 22.7362 8.47119C22.835 8.40705 22.9148 8.31769 22.9675 8.21236C23.0202 8.10702 23.0437 7.98952 23.0358 7.87202C23.0234 6.73565 23.0895 5.59929 22.9862 4.46499C22.8602 3.06623 21.5936 2.07037 20.1804 2.11995C18.8106 2.16747 17.6329 3.20053 17.604 4.5745C17.5461 7.32656 17.5358 10.0828 17.604 12.839C17.6556 14.3162 18.9407 15.2708 20.4304 15.1282ZM27.7734 8.11582C28.6102 8.11582 29.3292 8.11582 30.0461 8.11582C30.2651 8.11582 30.6246 8.21293 30.6102 7.86375C30.5461 6.41747 30.9903 4.90508 30.2754 3.52491C30.0109 3.0417 29.6051 2.65079 29.1124 2.40448C28.6197 2.15817 28.0634 2.0682 27.5182 2.14661C26.9729 2.22502 26.4646 2.46807 26.0612 2.84324C25.6578 3.21841 25.3786 3.70782 25.261 4.24598C25.0007 5.46293 24.8168 6.83483 25.2858 7.87822C25.5978 8.55177 26.9924 7.97326 27.7734 8.11582Z" fill="url(#paint0_linear_1_4966)"/>
<path d="M6.79163 42.0921C6.79163 44.3379 6.79163 46.5842 6.79163 48.8309C6.80677 49.0307 6.79309 49.231 6.75074 49.4291C6.64035 49.8016 6.29075 50.0153 5.67948 49.9992C5.43694 50.0031 5.2015 49.9456 5.02214 49.839C4.84279 49.7323 4.73333 49.5845 4.71656 49.4264C4.67854 49.2048 4.66624 48.9816 4.67976 48.7588C4.67976 44.3339 4.6675 39.9076 4.69407 35.4814C4.69407 34.9473 4.47941 34.5587 3.86609 34.2022C1.14295 32.6146 0.63389 30.5344 0.897618 28.2952C0.897266 28.2102 0.92422 28.1261 0.976738 28.0484C1.02926 27.9706 1.10617 27.9009 1.20251 27.8438C1.29885 27.7867 1.41247 27.7434 1.53602 27.7167C1.65958 27.69 1.79033 27.6806 1.91982 27.689C2.04943 27.6834 2.17943 27.695 2.30194 27.7232C2.42446 27.7514 2.53692 27.7956 2.63251 27.853C2.72811 27.9104 2.80483 27.98 2.85804 28.0574C2.91124 28.1347 2.93981 28.2184 2.94202 28.3032C2.99197 28.7475 3.00084 29.1934 2.9686 29.6384C2.91686 30.3083 3.09822 30.977 3.49905 31.5945C3.89988 32.212 4.50976 32.7621 5.28286 33.2035C6.41955 33.8711 6.85501 34.6388 6.82639 35.6202C6.75279 37.7753 6.79163 39.9343 6.79163 42.0921Z" fill="url(#paint1_linear_1_4966)"/>
<path d="M26.8925 41.9824C26.8925 39.7009 26.9476 37.4195 26.8701 35.1457C26.8272 33.844 28.3448 33.1773 29.5054 32.3573C29.7971 32.1507 30.2622 32.2229 30.6192 32.3978C30.7861 32.4736 30.9077 32.5817 30.965 32.7052C31.0222 32.8286 31.0118 32.9604 30.9353 33.0797C30.839 33.2595 30.6722 33.4216 30.4499 33.5512C29.1077 34.2838 28.8813 35.1989 28.9017 36.2737C28.9833 40.4728 28.9363 44.6719 28.9343 48.871C28.9518 49.0608 28.9436 49.2512 28.9098 49.4401C28.8099 49.7937 28.4509 50.0168 27.8614 49.9991C27.7324 50.0017 27.6039 49.9875 27.4841 49.9575C27.3644 49.9275 27.256 49.8823 27.166 49.8248C27.076 49.7673 27.0062 49.6988 26.9612 49.6236C26.9162 49.5484 26.897 49.4682 26.9047 49.3881C26.8823 48.9445 26.8925 48.5009 26.8925 48.0586V41.9824Z" fill="url(#paint2_linear_1_4966)"/>
</g>
<defs>
<linearGradient id="paint0_linear_1_4966" x1="0.214874" y1="16.0753" x2="36.8331" y2="16.0753" gradientUnits="userSpaceOnUse">
<stop stop-color="#F6EB61"/>
<stop offset="1" stop-color="#FFB25B"/>
</linearGradient>
<linearGradient id="paint1_linear_1_4966" x1="0.835968" y1="38.8431" x2="6.8277" y2="38.8431" gradientUnits="userSpaceOnUse">
<stop stop-color="#F6EB61"/>
<stop offset="1" stop-color="#FFB25B"/>
</linearGradient>
<linearGradient id="paint2_linear_1_4966" x1="26.8692" y1="41.1157" x2="31.0014" y2="41.1157" gradientUnits="userSpaceOnUse">
<stop stop-color="#F6EB61"/>
<stop offset="1" stop-color="#FFB25B"/>
</linearGradient>
<clipPath id="clip0_1_4966">
<rect width="36.5702" height="50" fill="white" transform="translate(0.214874)"/>
</clipPath>
</defs>
</svg>
