<svg width="45" height="50" viewBox="0 0 45 50" fill="none" xmlns="http://www.w3.org/2000/svg">
<g clip-path="url(#clip0_1_4974)">
<path d="M33.2745 37.0927C33.8687 37.0927 34.3527 37.126 34.831 37.084C35.3093 37.0419 35.4803 37.2492 35.4107 37.7028C35.3999 37.7744 35.3999 37.8472 35.4107 37.9188C35.5078 38.5231 35.3252 38.8115 34.6455 38.7275C34.115 38.6862 33.5823 38.6828 33.0513 38.7173C32.218 38.7347 32.431 39.4333 32.3412 39.8898C32.218 40.5115 32.7426 40.2318 33.0122 40.2999C33.2817 40.368 33.6817 40.1376 33.7643 40.4985C33.867 40.9207 33.8605 41.3621 33.7455 41.7811C33.6542 42.0709 33.2194 41.9419 32.9527 41.913C32.3455 41.8477 32.1339 42.0738 32.1962 42.6738C32.2267 43.1322 32.2296 43.5919 32.2049 44.0506C32.1904 44.8579 31.9774 45.1405 31.1904 45.1419C30.6643 45.1419 30.5701 45.3637 30.5049 45.8072C30.1426 48.2477 28.1252 49.9999 25.7223 49.9999C24.5529 49.9888 23.426 49.5602 22.5448 48.7914C21.6636 48.0226 21.0861 46.9642 20.9165 45.8072C20.8498 45.3405 20.7585 45.1275 20.2441 45.1477C19.56 45.1767 19.2296 44.8043 19.273 44.1043C19.2977 43.6477 19.2383 43.184 19.2861 42.7304C19.3527 42.1101 19.1672 41.8057 18.5035 41.9246C17.8397 42.0434 17.5919 41.7956 17.6049 41.0753C17.6165 40.426 17.8006 40.2275 18.4296 40.2811C18.6527 40.2999 19.1151 40.555 19.1296 39.9912C19.1484 39.1782 18.8658 38.7246 18.3527 38.7159C17.7498 38.7057 17.144 38.6941 16.5426 38.7159C16.1426 38.7318 15.9977 38.6072 15.9904 38.1869C15.9716 37.0869 15.9498 37.0869 17.0469 37.0869H18.1383C17.6192 35.9673 16.815 35.0037 15.8064 34.2927C13.8136 32.8782 11.9788 31.3043 10.5542 29.2753C8.33814 26.1681 7.14381 22.4483 7.1368 18.6318C7.1368 18.1695 7.19043 17.8709 7.74695 17.9738C8.18173 18.0521 8.75274 17.7333 8.77014 18.6333C8.88753 24.4304 11.3151 29.0448 16.0296 32.4173C17.6136 33.5506 18.9281 34.8811 19.7643 36.6535C19.8162 36.798 19.9152 36.9207 20.0453 37.0019C20.1755 37.0832 20.3292 37.1182 20.4817 37.1014C23.9832 37.0869 27.4846 37.0869 30.9861 37.1014C31.3223 37.1014 31.5107 36.997 31.6527 36.6898C32.4774 34.9115 33.7875 33.5753 35.3875 32.4608C41.5701 28.1492 44.2629 20.5622 41.8962 13.4304C39.8049 7.10137 35.3238 3.26224 28.7658 1.90572C27.6319 1.66178 26.4698 1.57449 25.3122 1.6463C24.3267 1.71586 24.6716 0.968036 24.5585 0.523108C24.4049 -0.0855873 24.8875 0.0202097 25.2267 0.00861554C29.1148 -0.102975 32.9396 1.01042 36.1603 3.19139C39.3811 5.37236 41.8347 8.51054 43.1745 12.1622C46.0846 20.113 43.3542 28.8434 36.4223 33.7115C35.1672 34.5927 34.0267 35.5651 33.2745 37.0927ZM25.7629 38.7144C24.2412 38.7144 22.7194 38.7144 21.1977 38.7217C21.0035 38.7217 20.6556 38.6014 20.6426 38.8666C20.6245 39.2982 20.6899 39.7293 20.8354 40.1362C20.9426 40.4347 21.3078 40.2898 21.56 40.2912C24.2643 40.2999 26.9701 40.2912 29.6759 40.2912C30.6716 40.2912 30.6325 40.284 30.7991 39.2985C30.8875 38.7753 30.7252 38.6898 30.26 38.697C28.7571 38.7289 27.26 38.7144 25.7629 38.7144ZM25.7629 45.1651C24.8238 45.1651 23.8788 45.1724 22.9455 45.1651C22.5948 45.1651 22.4919 45.2767 22.5383 45.6362C22.7339 47.1434 24.1209 48.3637 25.6933 48.3811C27.2658 48.3985 28.6933 47.1956 28.9107 45.7072C28.973 45.2854 28.8556 45.1506 28.4339 45.1608C27.5484 45.1782 26.6571 45.1637 25.7672 45.1651H25.7629ZM25.6817 43.5477C27.1035 43.5477 28.5281 43.513 29.9498 43.5637C30.6455 43.5869 30.5962 43.1956 30.5861 42.7434C30.5759 42.3086 30.6933 41.8999 29.9701 41.9101C27.1484 41.9492 24.3267 41.9448 21.5049 41.9101C20.8861 41.9028 20.8368 42.1898 20.8788 42.6535C20.9151 43.0666 20.6861 43.5883 21.4861 43.5608C22.8875 43.5115 24.2875 43.5477 25.6861 43.5477H25.6817Z" fill="url(#paint0_linear_1_4974)"/>
<path d="M24.9462 18.5868C24.9462 22.21 24.9462 25.8332 24.9462 29.4477C24.9462 31.1578 24.1636 32.3665 22.7723 32.8636C21.381 33.3607 19.9607 32.9274 19.0665 31.681C18.8259 31.3462 18.6317 31.2883 18.2375 31.3665C17.7399 31.4708 17.2244 31.4533 16.735 31.3154C16.2455 31.1776 15.7967 30.9235 15.4266 30.5748C15.0566 30.2261 14.7763 29.7931 14.6096 29.3127C14.4429 28.8323 14.3948 28.3188 14.4694 27.8158C14.5491 27.2868 14.394 27.068 13.9607 26.8144C13.1531 26.3598 12.5347 25.6312 12.2174 24.7605C11.9 23.8898 11.9046 22.9342 12.2303 22.0665C12.3752 21.6491 12.2984 21.5129 11.9404 21.2926C9.82593 19.9796 9.83608 17.1013 11.9651 15.797C12.2781 15.6042 12.3998 15.5071 12.2549 15.0897C11.5665 13.1694 12.2752 11.2564 14.0419 10.2419C14.439 10.0144 14.5506 9.80712 14.4767 9.34625C14.1332 7.09117 16.0709 5.28828 18.3143 5.74915C18.6042 5.80857 18.781 5.80712 18.9868 5.539C20.0172 4.19552 21.281 3.7477 22.6375 4.19842C24.1216 4.69117 24.9303 5.85494 24.9361 7.58538C24.9549 11.2506 24.9462 14.9187 24.9462 18.5868ZM23.2984 18.5506C23.2984 15.2907 23.2984 12.0308 23.2984 8.77088C23.2984 8.21581 23.3114 7.65929 23.268 7.10712C23.2493 6.76607 23.1166 6.44118 22.891 6.18465C22.6655 5.92812 22.3603 5.75484 22.0245 5.69262C21.4085 5.56944 20.9071 5.79697 20.4651 6.24625C20.023 6.69552 20.294 7.06364 20.5288 7.46364C20.7019 7.75572 20.8088 8.08225 20.8419 8.42016C20.8549 8.55494 20.9129 8.71002 20.7622 8.81291C20.4201 9.06364 19.3317 8.77668 19.168 8.39118C18.839 7.58828 18.1969 7.18248 17.4288 7.28683C17.0684 7.34024 16.7361 7.5121 16.4842 7.7753C16.2322 8.0385 16.0751 8.37806 16.0375 8.74045C15.9665 9.46509 16.4317 10.1506 17.2491 10.4042C17.5288 10.4912 17.6332 10.5926 17.6578 10.8839C17.7607 12.1086 17.5129 12.3013 16.3709 11.8144C16.2559 11.7766 16.1481 11.7198 16.052 11.6462C15.6013 11.2289 15.1709 11.4115 14.7477 11.6796C14.3038 11.9535 13.9621 12.3655 13.7752 12.8525C13.5882 13.3394 13.5663 13.8742 13.7128 14.3748C13.8593 14.8754 14.1661 15.314 14.5861 15.6233C15.0061 15.9326 15.516 16.0955 16.0375 16.0868C17.1651 16.0868 18.0665 15.397 18.3767 14.2897C18.5303 13.7477 19.0665 13.4999 19.7665 13.7187C20.3085 13.8883 19.9969 14.3318 19.9332 14.6216C19.3636 17.2173 16.423 18.5042 14.0636 17.2013C13.7825 17.0462 13.5259 16.8578 13.194 16.981C12.6143 17.1912 12.1796 17.5332 12.0564 18.1767C11.9332 18.8462 12.094 19.4187 12.6636 19.8419C13.1752 20.2202 13.6259 20.1506 14.1854 19.8419C16.5361 18.5448 19.5607 20.0289 19.9825 22.6535C20.0187 22.8752 20.1578 23.2404 19.9172 23.31C19.5375 23.4216 19.1085 23.3781 18.6998 23.3665C18.3317 23.3564 18.4419 23.0202 18.3825 22.8144C18.0085 21.51 16.8071 20.7665 15.4839 21.0404C14.31 21.2825 13.494 22.4419 13.639 23.6897C13.7332 24.4883 14.1839 25.0506 14.8433 25.4883C15.3955 25.8535 15.8332 25.6013 16.2926 25.3173C16.4563 25.2134 16.6391 25.1434 16.8303 25.1115C17.1042 25.0752 17.4564 24.81 17.6303 25.2564C17.8259 25.7651 17.5998 26.5347 17.2433 26.668C16.4288 26.9723 15.9651 27.6158 16.0346 28.3462C16.0721 28.7094 16.2291 29.0498 16.4809 29.3142C16.7327 29.5786 17.065 29.7519 17.4259 29.8071C18.2158 29.9158 18.8274 29.5173 19.1926 28.6347C19.2636 28.4651 19.2636 28.2289 19.5346 28.2448C19.9694 28.2709 20.5172 28.0477 20.7854 28.3506C21.0535 28.6535 20.7564 29.1231 20.5911 29.497C20.5628 29.5894 20.5213 29.6773 20.468 29.7578C19.9288 30.3694 20.323 30.7854 20.7882 31.1318C21.61 31.7404 22.8723 31.3607 23.1854 30.4071C23.2764 30.0568 23.3131 29.6946 23.294 29.3332C23.3018 25.7409 23.3032 22.1467 23.2984 18.5506Z" fill="url(#paint1_linear_1_4974)"/>
<path d="M26.5501 18.5302C26.5501 14.8838 26.5501 11.2379 26.5501 7.59249C26.5501 5.87944 27.3139 4.71567 28.7458 4.21423C30.1284 3.73017 31.3936 4.1606 32.4733 5.52727C32.6762 5.78524 32.853 5.80843 33.1458 5.74756C35.424 5.28234 37.3487 7.12002 36.9777 9.41567C36.9125 9.81278 36.9646 9.97944 37.3371 10.1838C39.1559 11.1867 39.8922 13.0823 39.2212 15.0534C39.0762 15.478 39.1719 15.5896 39.5212 15.8041C41.6414 17.1084 41.6298 20.007 39.4951 21.3113C39.1139 21.5418 39.1009 21.6838 39.2327 22.0736C39.8893 23.9968 39.1574 25.9041 37.3835 26.8983C37.0125 27.107 36.9081 27.2722 36.982 27.7215C37.3545 29.9736 35.4342 31.8055 33.1878 31.3606C32.8168 31.2867 32.6298 31.3751 32.411 31.6678C31.4965 32.8968 30.1777 33.3447 28.8559 32.9142C27.3864 32.4345 26.5617 31.3041 26.5574 29.6925C26.5443 25.9664 26.5501 22.249 26.5501 18.5302ZM28.1443 18.5534C28.1443 22.2249 28.1443 25.8964 28.1443 29.5678C28.1443 30.5084 28.4994 31.0707 29.2298 31.3389C29.898 31.5823 30.4443 31.3794 30.9472 30.9171C31.4501 30.4548 31.1994 30.0389 30.9081 29.5997C30.8155 29.4303 30.7537 29.2458 30.7255 29.0548C30.6661 28.7852 30.353 28.4505 30.8139 28.2693C31.3458 28.0606 32.1385 28.3012 32.2748 28.6664C32.582 29.4794 33.2067 29.9041 33.9806 29.8258C34.3316 29.7938 34.6615 29.6439 34.9165 29.4004C35.1715 29.157 35.3366 28.8344 35.3849 28.4852C35.4907 27.6157 35.1038 26.9997 34.2603 26.6954C34.0907 26.6331 33.8342 26.6794 33.8255 26.4055C33.8154 25.9707 33.6327 25.4432 33.9052 25.1432C34.1951 24.8186 34.669 25.1432 35.0472 25.2693C35.1865 25.3098 35.3165 25.3772 35.4298 25.4678C35.8646 25.8389 36.2777 25.6925 36.6864 25.449C37.1448 25.1721 37.4972 24.7495 37.6872 24.2487C37.8771 23.748 37.8937 23.198 37.7342 22.6867C37.5771 22.1893 37.2635 21.756 36.8401 21.4514C36.4166 21.1468 35.906 20.9872 35.3845 20.9965C34.863 21.0058 34.3584 21.1834 33.9461 21.5029C33.5338 21.8224 33.2357 22.2666 33.0965 22.7693C32.9356 23.3244 32.2864 23.6389 31.6472 23.3664C31.1327 23.149 31.4429 22.6838 31.5342 22.3693C32.311 19.7229 35.0545 18.6099 37.4762 19.9432C37.7139 20.0736 37.9284 20.1997 38.2182 20.1316C38.4765 20.067 38.7151 19.94 38.9129 19.7619C39.1108 19.5837 39.262 19.3597 39.3532 19.1096C39.4444 18.8594 39.473 18.5908 39.4363 18.327C39.3997 18.0633 39.2989 17.8126 39.1429 17.5968C38.6835 16.9823 38.0719 16.8476 37.3922 17.2142C35.0226 18.4925 32.1632 17.2461 31.5125 14.6374C31.4443 14.3592 31.2067 13.949 31.6212 13.7418C32.2009 13.4519 32.9443 13.8113 33.1429 14.4331C33.2904 14.9205 33.5937 15.3462 34.0062 15.6448C34.4187 15.9435 34.9178 16.0987 35.4269 16.0867C35.9368 16.0956 36.436 15.9409 36.8514 15.6452C37.2668 15.3495 37.5764 14.9284 37.7348 14.4437C37.8932 13.959 37.8921 13.4364 37.7316 12.9524C37.571 12.4684 37.2596 12.0487 36.8429 11.7548C36.3661 11.4142 35.8936 11.2273 35.3516 11.6751C35.139 11.8339 34.8897 11.9366 34.6269 11.9736C34.3603 12.02 33.9994 12.291 33.8342 11.8287C33.6487 11.3026 33.8675 10.5418 34.2139 10.4186C35.1009 10.1055 35.4791 9.54901 35.3994 8.67944C35.366 8.32857 35.2137 7.99963 34.9678 7.74713C34.7219 7.49463 34.3971 7.33371 34.0472 7.29104C33.2429 7.18089 32.598 7.60553 32.2777 8.45046C32.224 8.59539 32.2777 8.83452 32.0356 8.83886C31.582 8.83886 31.0342 9.03307 30.7009 8.7577C30.398 8.50843 30.7574 8.04901 30.8356 7.68524C30.8718 7.57027 30.924 7.46098 30.9907 7.3606C31.3588 6.69249 31.2226 6.22727 30.5559 5.8664C29.382 5.23741 28.1661 6.03886 28.1617 7.47075C28.1414 11.1592 28.1487 14.8592 28.1487 18.5505L28.1443 18.5534Z" fill="url(#paint2_linear_1_4974)"/>
<path d="M5.52839 8.0957C6.06318 8.13483 6.30665 8.45947 6.32549 8.95222C6.35901 9.76748 6.69547 10.5409 7.26907 11.1212C7.84267 11.7015 8.61213 12.0469 9.42694 12.0899C9.92549 12.1116 10.3269 12.3044 10.3284 12.9058C10.3298 13.5073 9.90376 13.6798 9.4197 13.7247C7.94723 13.8696 6.95593 14.6145 6.48202 16.0131C6.39674 16.3382 6.3381 16.6698 6.30665 17.0044C6.23419 17.4392 5.97622 17.7015 5.52984 17.7145C5.08347 17.7276 4.82115 17.4566 4.72984 17.0305C4.66607 16.7247 4.64723 16.4087 4.56463 16.1087C4.18781 14.7653 3.28347 14.0073 1.92115 13.7682C1.75593 13.7377 1.58781 13.7203 1.42115 13.6943C0.948683 13.6232 0.65593 13.3334 0.67477 12.8653C0.693611 12.4406 0.97477 12.174 1.4226 12.116C1.71091 12.0961 1.99698 12.0515 2.27767 11.9827C3.67767 11.5479 4.5081 10.6145 4.67332 9.13483C4.73274 8.59715 4.85303 8.11599 5.52839 8.0957ZM6.79216 12.8653C6.64723 12.7435 6.50231 12.6261 6.37477 12.4928C6.10376 12.2203 5.87477 11.7682 5.56897 11.7058C5.16318 11.6319 5.05593 12.2609 4.69941 12.458C4.13999 12.7667 4.22839 13.0653 4.7168 13.3624C5.04578 13.5624 5.17912 14.1493 5.52115 14.1044C5.82115 14.0653 6.06607 13.6131 6.33419 13.3435C6.48347 13.1885 6.7052 13.1174 6.79216 12.8653Z" fill="url(#paint3_linear_1_4974)"/>
<path d="M15.2074 4.81134C15.161 5.41279 14.7827 5.59685 14.2363 5.66206C12.6726 5.84467 11.661 6.69685 11.2769 8.12583C11.2281 8.38609 11.1932 8.64879 11.1726 8.91279C11.1001 9.38091 10.8132 9.67801 10.3494 9.66931C9.92475 9.66061 9.65084 9.3925 9.59142 8.94467C9.50301 8.27221 9.37982 7.60699 8.96678 7.03888C8.67923 6.63318 8.30372 6.29772 7.8683 6.05755C7.43289 5.81738 6.94882 5.67872 6.45228 5.65192C5.94069 5.60989 5.53199 5.41279 5.53924 4.83888C5.54649 4.26496 5.93344 4.08815 6.45663 4.02728C8.2117 3.82148 9.19866 2.8867 9.51605 1.16786C9.54359 1.02293 9.57113 0.878006 9.58852 0.733079C9.64504 0.2896 9.92185 0.0258322 10.3566 0.0214844C10.8291 0.0214844 11.0929 0.311339 11.1784 0.779455C11.5871 3.03018 12.1929 3.63743 14.4668 4.04322C14.9219 4.12438 15.1291 4.39105 15.2074 4.81134ZM9.05808 4.84033C9.17137 4.96965 9.29928 5.0854 9.43924 5.18525C9.83779 5.40989 9.99866 6.10264 10.4103 6.02873C10.7769 5.96206 11.0407 5.41569 11.39 5.13018C11.6885 4.8867 11.632 4.75772 11.3711 4.53453C11.0262 4.24467 10.7523 3.66496 10.4074 3.62873C9.98707 3.5896 9.80736 4.2896 9.39286 4.53308C9.27027 4.62282 9.15799 4.72587 9.05808 4.84033Z" fill="url(#paint4_linear_1_4974)"/>
</g>
<defs>
<linearGradient id="paint0_linear_1_4974" x1="7.1368" y1="25.0004" x2="44.3266" y2="25.0004" gradientUnits="userSpaceOnUse">
<stop stop-color="#F6EB61"/>
<stop offset="1" stop-color="#FFB25B"/>
</linearGradient>
<linearGradient id="paint1_linear_1_4974" x1="10.3614" y1="18.547" x2="24.9482" y2="18.547" gradientUnits="userSpaceOnUse">
<stop stop-color="#F6EB61"/>
<stop offset="1" stop-color="#FFB25B"/>
</linearGradient>
<linearGradient id="paint2_linear_1_4974" x1="26.5489" y1="18.5482" x2="41.1038" y2="18.5482" gradientUnits="userSpaceOnUse">
<stop stop-color="#F6EB61"/>
<stop offset="1" stop-color="#FFB25B"/>
</linearGradient>
<linearGradient id="paint3_linear_1_4974" x1="0.673912" y1="12.9053" x2="10.3284" y2="12.9053" gradientUnits="userSpaceOnUse">
<stop stop-color="#F6EB61"/>
<stop offset="1" stop-color="#FFB25B"/>
</linearGradient>
<linearGradient id="paint4_linear_1_4974" x1="5.53915" y1="4.84549" x2="15.2074" y2="4.84549" gradientUnits="userSpaceOnUse">
<stop stop-color="#F6EB61"/>
<stop offset="1" stop-color="#FFB25B"/>
</linearGradient>
<clipPath id="clip0_1_4974">
<rect width="43.6522" height="50" fill="white" transform="translate(0.673912)"/>
</clipPath>
</defs>
</svg>
