<svg width="51" height="50" viewBox="0 0 51 50" fill="none" xmlns="http://www.w3.org/2000/svg">
<g clip-path="url(#clip0_1_5012)">
<path d="M11.1711 31.6639C10.0777 31.9527 9.12583 32.285 8.21876 33.0331C6.40607 34.5295 5.58278 36.4216 5.25923 38.6489C5.16679 39.2887 4.97036 39.9113 4.84037 40.5482C4.73361 41.1411 4.43282 41.6817 3.98529 42.085C3.29488 42.7177 2.65213 43.4038 1.98917 44.0682C1.62663 44.4322 1.20631 44.604 0.785999 44.2227C0.329576 43.8082 0.471125 43.3648 0.863996 42.969C0.927374 42.8962 0.996441 42.8286 1.07054 42.7668C2.84279 41.4669 3.65887 39.6513 3.9593 37.5252C4.08496 36.6239 4.3695 35.7471 4.56016 34.8545C4.63916 34.5517 4.80782 34.2798 5.04402 34.0745C5.81243 33.3119 6.60106 32.5681 7.33192 31.7708C7.90967 31.1453 8.54519 30.6817 9.38582 30.543C9.83358 30.4694 9.88413 30.3047 9.74114 29.8714C9.09694 27.9287 9.97657 26.0424 11.8095 25.3259C12.4875 25.0598 13.2324 25.0151 13.9373 25.1983C14.6423 25.3815 15.2712 25.7831 15.7339 26.3457C16.1209 26.8238 16.3001 26.7111 16.6438 26.3457C17.4902 25.4588 18.367 24.598 19.2437 23.7386C19.8041 23.1868 20.1623 23.1854 20.7141 23.7386C22.013 25.027 23.3058 26.3202 24.5922 27.6182C25.3043 28.3404 25.1498 28.9094 24.1892 29.1738C23.0337 29.493 22.4733 30.2628 22.5918 31.3923C22.6398 31.8382 22.8435 32.2529 23.1672 32.5633C23.4908 32.8738 23.9136 33.0601 24.3611 33.0895C25.4271 33.1675 26.2143 32.5695 26.5046 31.4573C26.7472 30.5358 27.3192 30.361 27.9981 31.024C29.4713 32.4771 30.935 33.9392 32.389 35.4106C32.9306 35.958 32.9162 36.3104 32.3471 36.8853C31.1454 38.1015 29.9369 39.3118 28.7217 40.5165C27.8218 41.4134 27.3611 41.308 26.9596 40.1193C26.6259 39.1299 25.9023 38.6344 24.8869 38.698C24.0101 38.7529 23.3197 39.3884 23.1161 40.3272C22.9124 41.2661 23.5595 42.2959 24.5749 42.5891C25.6408 42.8968 25.7983 43.4283 25.0342 44.1996C23.664 45.5833 22.2865 46.9618 20.9018 48.3349C20.2475 48.9848 19.9601 48.9762 19.2798 48.3002C18.1373 47.1649 16.989 46.034 15.8639 44.8785C15.575 44.5896 15.4017 44.5029 15.0897 44.8597C13.8562 46.2709 12.2544 46.9642 10.4128 47.1404C10.0991 47.1719 9.8091 47.321 9.60103 47.5578C8.9294 48.2468 8.24043 48.9198 7.56157 49.6016C7.18026 49.9843 6.74694 50.1923 6.30496 49.7561C5.86298 49.3199 6.04353 48.8895 6.43351 48.501C7.25392 47.6878 8.07433 46.8746 8.88895 46.0455C9.1624 45.7743 9.53223 45.6227 9.91735 45.6238C11.5365 45.5183 12.9505 44.955 14.0555 43.7071C14.2765 43.4572 14.3299 43.3027 14.0642 43.0701C13.7984 42.8376 13.55 42.5631 13.2929 42.3104C12.9173 41.9435 12.7743 41.5203 13.1629 41.1058C13.5875 40.6522 14.0295 40.8169 14.4137 41.2098C16.1311 42.9286 17.8686 44.6286 19.5557 46.3763C20.0005 46.8356 20.2418 46.8515 20.6693 46.3763C21.3915 45.5747 22.183 44.8308 22.9586 44.0754C23.2013 43.8385 23.21 43.7172 22.924 43.4702C21.1691 41.9507 21.0564 39.5863 22.6351 38.0899C24.2138 36.5935 26.5522 36.8463 28.0038 38.6503C28.0486 38.7067 28.0977 38.7587 28.1959 38.8728C29.0192 38.0321 29.8194 37.2031 30.6341 36.3899C30.842 36.1819 30.8175 36.0476 30.6239 35.8569C29.7169 34.9614 28.8112 34.0644 27.923 33.1501C27.5388 32.7544 27.4535 33.1704 27.2975 33.3509C26.142 34.7028 24.3915 35.0596 22.8691 34.2464C22.1406 33.8606 21.5703 33.2318 21.2574 32.4692C20.9444 31.7066 20.9086 30.8585 21.156 30.0722C21.362 29.3476 21.8095 28.7151 22.4242 28.2797C22.7131 28.0688 22.7304 27.9403 22.4647 27.6875C21.7338 26.9913 21.0203 26.2792 20.3226 25.544C20.0439 25.2465 19.8749 25.3173 19.6322 25.5643C18.6371 26.5753 17.6303 27.5777 16.6236 28.5772C15.8364 29.3601 15.2977 29.2301 14.9784 28.1901C14.652 27.1256 13.8562 26.571 12.8249 26.6851C12.3657 26.7381 11.9395 26.9499 11.6199 27.2837C11.3002 27.6176 11.1073 28.0527 11.0743 28.5137C10.9977 29.4655 11.6232 30.3018 12.6342 30.5777C13.6063 30.8449 13.7767 31.4082 13.0675 32.1217C12.4898 32.6995 11.886 33.2411 11.2938 33.7987L11.4253 33.9806L15.4782 32.5449C15.9765 32.3687 16.4792 32.2041 16.9746 32.0235C17.5379 31.8199 17.9019 32.0235 18.1301 32.5536C18.8523 34.2623 18.445 35.7226 16.9255 36.7914C15.8172 37.557 14.6369 38.2125 13.4012 38.7485C12.9289 38.9594 12.7368 39.2497 12.6674 39.7596C12.4566 41.3311 11.8499 42.7191 10.5673 43.7331C10.2871 43.9555 9.98957 44.1823 9.58659 43.9858C9.02328 43.7143 8.91929 43.0484 9.44215 42.6354C10.6915 41.6633 11.1104 40.3244 11.1884 38.8366C11.2173 38.2878 11.4137 37.957 11.9193 37.7245C13.3174 37.0846 14.6997 36.4072 15.9765 35.5406C16.3564 35.2835 16.7334 35.0076 16.8345 34.5194C16.8778 34.3114 16.9471 34.0586 16.8027 33.8911C16.6265 33.686 16.3997 33.8781 16.2148 33.9431C13.8576 34.7702 11.5033 35.6036 9.15183 36.4433L8.40364 36.7033C7.98333 36.8477 7.64101 36.7437 7.40991 36.3624C7.17881 35.9811 7.31747 35.6763 7.59479 35.3875C8.60586 34.3634 9.6357 33.3451 10.6511 32.3182C10.8331 32.1391 11.0714 31.9961 11.1711 31.6639Z" fill="url(#paint0_linear_1_5012)"/>
<path d="M32.5079 10.0327C33.4284 9.09293 34.3485 8.15216 35.2681 7.21042C35.6263 6.84499 35.9903 6.40735 36.568 6.72944C37.1978 7.08187 36.9421 7.63796 36.7847 8.13916C36.0177 10.5672 35.2363 12.9894 34.4881 15.4217C34.4014 15.7106 34.0649 16.1208 34.4 16.3114C34.7698 16.5223 35.2666 16.3793 35.5873 16.0341C35.8329 15.7703 36.0539 15.4846 36.2474 15.1805C37.0009 13.9793 37.6648 12.7241 38.2334 11.4251C38.463 10.921 38.7938 10.7231 39.3455 10.6943C40.8333 10.6177 42.1838 10.2061 43.1399 8.94512C43.4288 8.56525 43.8318 8.47425 44.2203 8.75879C44.6305 9.05922 44.6811 9.45932 44.3648 9.89263C43.3725 11.2749 41.9527 11.9148 40.3321 12.156C39.7702 12.2369 39.4495 12.4448 39.2156 12.9663C38.6529 14.2697 37.9501 15.508 37.1198 16.6595C36.649 17.2955 35.9631 17.7386 35.1899 17.9065C34.4167 18.0745 33.6088 17.9557 32.9166 17.5724C32.4689 17.3268 32.3605 16.9629 32.5165 16.4732C33.0943 14.6663 33.6489 12.8522 34.2209 11.0424C34.2787 10.8604 34.3783 10.6928 34.3105 10.4877C34.1111 10.4877 34.0317 10.6639 33.9205 10.7766C31.2296 13.4617 28.5503 16.1583 25.8493 18.8333C25.4969 19.1814 25.4608 19.3692 25.8377 19.7288C27.0033 20.8425 28.1314 21.9965 29.2652 23.1419C30.0351 23.9204 29.8907 24.4621 28.842 24.7798C27.7934 25.0976 27.2446 25.8905 27.3529 26.9464C27.3992 27.405 27.6022 27.8337 27.9276 28.1602C28.2531 28.4867 28.6811 28.691 29.1396 28.7389C30.1001 28.8414 30.9927 28.1958 31.2888 27.1818C31.5849 26.1679 32.1323 26.0263 32.8776 26.7485C33.9046 27.7596 34.933 28.7779 35.9339 29.8178C36.2459 30.1428 36.4308 30.1284 36.7356 29.8178C37.8073 28.7114 38.9021 27.6325 39.997 26.5449C40.9618 25.5815 41.3706 25.6782 41.8255 26.9695C41.9553 27.3729 42.2125 27.7233 42.5586 27.9679C42.9047 28.2125 43.3209 28.338 43.7445 28.3257C44.1681 28.3133 44.5762 28.1636 44.9074 27.8992C45.2386 27.6349 45.475 27.2701 45.5809 26.8597C45.8077 25.9931 45.4827 25.1178 44.7331 24.6744C44.498 24.5562 44.2511 24.4632 43.9964 24.3971C43.189 24.1327 43.0215 23.5478 43.6151 22.9354C44.6262 21.9012 45.6373 20.8728 46.6801 19.8747C47.047 19.5252 47.0426 19.3186 46.6801 18.9662C45.0797 17.4034 43.5025 15.8117 41.9238 14.2301C41.7658 14.0821 41.6168 13.9248 41.4775 13.7592C41.1987 13.4054 41.2059 13.037 41.5266 12.7222C41.5898 12.6478 41.6678 12.5875 41.7557 12.5449C41.8435 12.5024 41.9393 12.4786 42.0368 12.4751C42.1344 12.4715 42.2316 12.4883 42.3223 12.5244C42.413 12.5605 42.4952 12.615 42.5636 12.6846C42.8932 12.9658 43.2022 13.2704 43.488 13.596C43.7422 13.8849 43.9026 13.8372 44.1799 13.596C45.4322 12.4968 46.0128 11.0871 46.1211 9.46943C46.1286 9.24348 46.1811 9.0213 46.2756 8.81592C46.3701 8.61055 46.5047 8.42613 46.6714 8.27348C47.4514 7.52241 48.2082 6.74822 48.9694 5.97837C49.3464 5.59561 49.7768 5.37029 50.226 5.7906C50.7114 6.24558 50.4889 6.69911 50.0816 7.09776C49.8909 7.28264 49.7205 7.48774 49.5183 7.65673C48.3455 8.63024 47.5222 9.75541 47.3301 11.3587C47.1741 12.6586 46.3739 13.7116 45.3888 14.5681C44.9671 14.9349 45.0118 15.1458 45.3975 15.5141C46.462 16.5252 47.4875 17.5753 48.5202 18.6167C49.1716 19.2739 49.1688 19.5772 48.5087 20.243C47.6421 21.1097 46.7754 21.9893 45.8987 22.8429C45.5997 23.1318 45.5231 23.2762 45.9074 23.5998C47.5525 24.9907 47.6608 27.3551 46.1962 28.8327C44.6825 30.358 42.3686 30.2468 40.9228 28.5439C40.6339 28.2088 40.5054 28.2377 40.2281 28.5222C39.2054 29.5737 38.1626 30.6079 37.1198 31.6406C36.4857 32.2689 36.191 32.266 35.5497 31.6305C34.6427 30.7321 33.737 29.8351 32.8459 28.9223C32.5815 28.6508 32.4472 28.5713 32.1439 28.9353C30.7082 30.6541 28.3264 30.7754 26.7997 29.2502C25.3048 27.7509 25.416 25.3879 27.0886 23.9565C27.4381 23.659 27.454 23.5145 27.1276 23.1997C26.1049 22.2161 25.1054 21.2021 24.1088 20.1954C23.326 19.4111 23.3274 19.1699 24.129 18.3682C25.676 16.8184 27.1911 15.2354 28.7886 13.7462C29.5949 13.0263 30.1623 12.0775 30.415 11.0265C30.6114 10.2118 30.8974 9.41743 31.1242 8.60858C31.2566 8.04371 31.5591 7.53304 31.9908 7.14543C32.4043 6.81396 32.7798 6.43756 33.1102 6.02314C34.2772 4.44877 35.9007 3.7858 37.7668 3.49693C38.7606 3.34238 39.7312 3.03762 40.7177 2.82674C41.0218 2.75673 41.2968 2.59426 41.5049 2.36165C42.1505 1.67268 42.8222 1.01116 43.4837 0.35252C43.8563 -0.0186848 44.281 -0.157345 44.6883 0.239859C45.0956 0.637062 44.9887 1.0646 44.6103 1.44447C43.8116 2.2461 43.0374 3.07373 42.204 3.83636C41.5107 4.47044 40.5458 4.40544 39.7023 4.64088C38.5237 4.97164 37.3234 5.21863 36.1333 5.5075C36.0639 5.52483 35.9672 5.5075 35.9238 5.55083C34.569 6.86522 32.7924 7.85172 32.5079 10.0327Z" fill="url(#paint1_linear_1_5012)"/>
</g>
<defs>
<linearGradient id="paint0_linear_1_5012" x1="0.501282" y1="36.6623" x2="32.7848" y2="36.6623" gradientUnits="userSpaceOnUse">
<stop stop-color="#F6EB61"/>
<stop offset="1" stop-color="#FFB25B"/>
</linearGradient>
<linearGradient id="paint1_linear_1_5012" x1="23.5247" y1="16.055" x2="50.5022" y2="16.055" gradientUnits="userSpaceOnUse">
<stop stop-color="#F6EB61"/>
<stop offset="1" stop-color="#FFB25B"/>
</linearGradient>
<clipPath id="clip0_1_5012">
<rect width="49.9971" height="50" fill="white" transform="translate(0.501465)"/>
</clipPath>
</defs>
</svg>
