<svg width="51" height="50" viewBox="0 0 51 50" fill="none" xmlns="http://www.w3.org/2000/svg">
<g clip-path="url(#clip0_1_4960)">
<path d="M16.8744 47.3328C18.4566 47.8975 20.1099 48.2387 21.7864 48.3465C31.3815 48.9735 39.5806 43.8197 43.2052 34.8994C43.2313 34.8328 43.2646 34.7676 43.2878 34.6981C43.4644 34.158 43.825 33.8481 44.3811 34.0798C44.9372 34.3115 44.9169 34.8038 44.7214 35.3078C44.2546 36.5772 43.6658 37.7983 42.9634 38.9541C39.139 45.0897 33.6478 48.7505 26.4956 49.7786C15.7782 51.3209 5.24618 44.6639 1.94596 34.3593C1.00613 31.4679 0.659604 28.4165 0.927149 25.388C1.19469 22.3596 2.0708 19.4162 3.50299 16.7344C4.93517 14.0526 6.89396 11.6874 9.262 9.78065C11.63 7.87389 14.3586 6.46475 17.2842 5.63765C17.8128 5.49284 18.3471 5.34803 18.9235 5.20322C18.3862 4.23589 18.1285 3.29028 18.4891 2.2462C19.2348 0.0769439 21.866 -0.723855 23.6211 0.751758C24.9693 1.88417 26.2277 3.12664 27.2414 4.57764C27.3599 4.76704 27.517 4.92938 27.7023 5.05412C27.8877 5.17886 28.0972 5.26321 28.3173 5.30169C29.9743 5.62807 31.5811 6.17144 33.096 6.91777C33.571 7.15381 33.9157 7.1205 34.3443 6.81351C35.2856 6.14303 36.263 5.5218 37.2405 4.89912C38.6611 3.98826 40.2323 4.02012 41.5023 4.96428C42.7259 5.87514 43.2125 7.37102 42.7389 8.96828C42.6159 9.38243 42.655 9.53304 43.0662 9.70536C44.9227 10.4772 45.7409 12.2468 45.1298 14.1945C44.9922 14.6289 45.066 14.723 45.4701 14.8809C47.2701 15.5832 48.1346 17.4121 47.5539 19.3193C47.4091 19.7783 47.5003 19.9174 47.9188 20.0897C49.267 20.6414 50.0272 21.6898 50.1431 23.1307C50.256 24.5411 49.658 25.6576 48.4821 26.4526C47.7421 26.9522 46.8269 27.3114 46.31 27.9789C45.793 28.6465 46.1507 29.6544 45.9624 30.4943C45.8987 30.7767 45.8538 31.0634 45.8176 31.3487C45.7351 31.8758 45.4585 32.2291 44.901 32.1335C44.3434 32.038 44.2001 31.6151 44.2681 31.0909C44.3507 30.474 44.5331 29.8673 44.5071 29.2084C44.145 29.2084 43.9278 29.4647 43.6831 29.6269C41.2213 31.2415 38.7668 32.8561 36.3224 34.4925C35.1494 35.2774 33.8809 35.651 32.4849 35.4338C31.2294 35.2383 30.2317 35.7509 29.2702 36.4474C29.079 36.5922 29.0747 36.6994 29.15 36.9239C29.6293 38.3719 29.3773 39.0714 28.1015 39.9156C24.4948 42.3002 20.89 44.6828 17.2871 47.0634L16.8744 47.3328ZM33.0048 33.9726C33.668 34.0986 34.7049 33.7467 35.6708 33.0545C36.4745 32.4753 37.3158 31.9583 38.1412 31.4138C41.2807 29.3401 44.4183 27.2645 47.5539 25.187C48.6139 24.4818 48.8919 23.2596 48.262 22.2908C47.6046 21.2771 46.3795 21.07 45.2731 21.7753C44.8474 22.0475 44.4216 22.3241 44.0089 22.6166C43.5586 22.9338 43.1024 23.0511 42.7534 22.5297C42.4044 22.0084 42.6636 21.629 43.1299 21.3264C43.854 20.8543 44.594 20.3909 45.3021 19.8783C45.7459 19.5751 46.0512 19.1082 46.1509 18.58C46.2505 18.0518 46.1364 17.5057 45.8335 17.0617C45.2036 16.1436 44.0075 15.9032 43.017 16.5027C42.5232 16.8039 42.0453 17.1312 41.5689 17.4512C41.0925 17.7713 40.6508 17.8147 40.3221 17.2891C39.9933 16.7634 40.2931 16.4202 40.7145 16.1465C41.4168 15.6802 42.1336 15.2342 42.8273 14.7534C43.8192 14.0641 44.077 12.8405 43.4543 11.8934C42.8316 10.9464 41.6225 10.6901 40.5856 11.3142C40.1121 11.6038 39.6559 11.9181 39.1954 12.2265C38.7349 12.5349 38.2629 12.6421 37.9356 12.1222C37.6083 11.6024 37.8835 11.2186 38.3512 10.9174C39.0999 10.4338 39.8543 9.95443 40.5726 9.42733C41.314 8.88139 41.5501 7.96185 41.2416 7.09009C40.952 6.29219 40.1671 5.7868 39.2664 5.7868C38.7538 5.7868 38.3411 6.0156 37.9341 6.28495C35.3353 8.01205 32.7374 9.73046 30.1405 11.4402C29.3513 11.9601 28.9299 11.8138 28.5968 10.9362C28.4694 10.5988 28.3419 10.2614 28.2319 9.92258C27.2182 6.71648 25.2256 4.18086 22.719 2.01595C22.5026 1.82051 22.2397 1.68393 21.9555 1.61931C21.6712 1.55469 21.3751 1.56419 21.0955 1.64691C20.816 1.72962 20.5624 1.88278 20.359 2.09168C20.1557 2.30059 20.0094 2.55824 19.9343 2.83992C19.7561 3.45681 20.0284 3.96075 20.3397 4.46614C21.8414 6.88736 22.3772 9.53159 21.8226 12.309C21.1854 15.4949 20.3745 18.6474 19.6302 21.81C19.5788 21.9926 19.5696 22.1844 19.6033 22.371C19.6369 22.5577 19.7124 22.7342 19.8242 22.8874C22.4762 26.8581 25.1146 30.8375 27.7395 34.8256C28.061 35.315 28.2797 35.2759 28.6793 34.9704C29.806 34.1319 31.0557 33.7105 33.0048 33.9726ZM12.7589 26.4903C12.7082 26.7987 12.5909 27.0623 12.3013 27.1926C12.1495 27.2739 11.9737 27.2985 11.8055 27.2618C11.6372 27.2252 11.4875 27.1298 11.3832 26.9928C11.1307 26.669 10.8976 26.3305 10.6852 25.9791C10.5158 25.7141 10.3797 25.6287 10.064 25.8343C7.71809 27.3982 5.35624 28.9405 2.99728 30.4856C2.88004 30.5423 2.78736 30.6396 2.73648 30.7594C2.68561 30.8793 2.68 31.0136 2.7207 31.1372C4.1688 38.1403 8.11342 43.2173 14.5024 46.4147C14.8963 46.6131 15.1859 46.5798 15.5523 46.3322C17.248 45.1838 18.964 44.0644 20.6771 42.9393C21.6575 42.2949 21.6575 42.3006 21.003 41.3275C18.4051 37.4659 15.8067 33.6043 13.2078 29.7427C12.9023 29.2895 12.7647 28.8435 13.2744 28.4829C13.7842 28.1223 14.1766 28.3786 14.4822 28.8377C14.7631 29.2591 15.0498 29.6761 15.3322 30.0961C17.7669 33.7173 20.1993 37.3375 22.6292 40.9568C22.8507 41.2884 22.9883 41.4289 23.3938 41.148C24.6797 40.2545 25.9931 39.3987 27.3123 38.5559C27.8568 38.2083 27.935 37.8608 27.5701 37.3148C24.1719 32.2233 20.7833 27.125 17.4044 22.02C17.0554 21.4929 16.7007 21.4538 16.204 21.7854C14.8616 22.6832 13.5134 23.5738 12.1493 24.4441C11.8032 24.6657 11.767 24.8438 12.0045 25.1682C12.3071 25.5939 12.646 25.9835 12.7589 26.4903ZM18.2892 20.5965C18.3891 20.2533 18.4673 20.0274 18.5209 19.7957C19.1161 17.2413 19.7475 14.6941 20.2847 12.128C20.6259 10.4635 20.4935 8.73667 19.9024 7.14367C19.7663 6.76137 19.6055 6.68028 19.2218 6.76282C18.0877 6.98497 16.9769 7.3132 15.9042 7.74319C7.63265 11.2621 3.14644 17.5222 2.39777 26.4715C2.33116 27.2723 2.29785 28.0933 2.49914 28.9607C2.77572 28.7913 2.9828 28.6711 3.18119 28.5408C7.18229 25.898 11.1906 23.2668 15.1801 20.6009C16.2112 19.9087 17.1945 19.7277 18.2892 20.5965ZM28.772 7.02058C29.1297 7.92709 29.4266 8.67866 29.7191 9.43167C29.7842 9.59675 29.8306 9.77342 30.0623 9.62137C30.7443 9.17391 31.4249 8.72645 32.1997 8.21527C31.1 7.7032 29.9517 7.30296 28.772 7.02058Z" fill="url(#paint0_linear_1_4960)"/>
</g>
<defs>
<linearGradient id="paint0_linear_1_4960" x1="0.839508" y1="25.0001" x2="50.1566" y2="25.0001" gradientUnits="userSpaceOnUse">
<stop stop-color="#F6EB61"/>
<stop offset="1" stop-color="#FFB25B"/>
</linearGradient>
<clipPath id="clip0_1_4960">
<rect width="49.3093" height="50" fill="white" transform="translate(0.845367)"/>
</clipPath>
</defs>
</svg>
