<svg width="45" height="50" viewBox="0 0 45 50" fill="none" xmlns="http://www.w3.org/2000/svg">
<g clip-path="url(#clip0_1_4993)">
<path d="M26.6216 50.0002C23.3264 50.0002 20.0323 50.0002 16.7391 50.0002C15.7635 50.0002 15.5629 49.7895 15.5441 48.824C15.5066 46.9985 15.6423 45.17 15.4662 43.3401C15.3724 42.3704 14.9193 41.5637 14.2785 40.8493C13.7561 40.2721 13.1659 39.9517 12.3289 39.9907C10.8655 40.0599 9.39643 39.9907 7.93021 40.0137C6.53904 40.0325 5.42927 39.5404 4.76976 38.282C4.11025 37.0236 4.2892 35.8142 5.15363 34.7103C5.48844 34.2773 5.61976 33.9396 5.29795 33.3811C4.84625 32.5932 4.92129 31.7042 5.33836 30.8889C5.48267 30.6002 5.46535 30.4299 5.2662 30.1904C4.75087 29.5824 4.38601 28.8616 4.20117 28.0863C4.1117 27.6981 3.91976 27.5711 3.54888 27.6029C3.31076 27.6245 3.06832 27.6029 2.82732 27.6029C2.01484 27.6029 1.37409 27.281 1.00465 26.5378C0.635206 25.7946 0.757872 25.0947 1.24998 24.4439C2.72485 22.4855 4.17087 20.5056 5.67605 18.5718C6.48564 17.5342 6.60975 16.5514 5.90262 15.3969C5.24167 14.3376 5.23156 13.1716 5.69625 12.0113C7.46552 7.59391 10.6721 4.47387 14.8615 2.45349C22.5491 -1.26112 30.0144 -0.894563 36.8389 4.49263C41.0658 7.82481 43.3142 12.3764 44.0257 17.6972C44.8815 24.0903 42.7269 29.4082 38.2359 33.879C38.052 34.0431 37.9067 34.2458 37.8101 34.4725C37.7136 34.6993 37.6683 34.9445 37.6774 35.1908C37.699 39.7107 37.6904 44.232 37.6889 48.7562C37.6889 49.8342 37.5157 50.0031 36.4276 50.0031L26.6216 50.0002ZM15.6538 40.0426C17.0118 41.682 17.1792 43.5061 17.1273 45.3822C17.1056 46.1514 17.1547 46.922 17.1143 47.6912C17.0854 48.2367 17.2283 48.4272 17.8185 48.4243C23.7103 48.4012 29.6031 48.4012 35.4968 48.4243C36.0553 48.4243 36.1736 48.2511 36.1707 47.7301C36.152 43.978 36.1621 40.2259 36.1563 36.4738C36.1563 36.3006 36.2501 36.0855 36.012 35.9513C35.263 36.5026 34.5126 37.0597 33.7564 37.6095C33.3509 37.9053 32.9252 37.9385 32.6163 37.5056C32.2671 37.0164 32.4634 36.6137 32.928 36.2876C34.4718 35.2219 35.9156 34.0182 37.2415 32.6913C39.9835 29.8989 41.9389 26.6764 42.4888 22.7337C42.9567 19.478 42.5327 16.1564 41.2621 13.1225C38.6298 6.79874 33.9382 2.92972 27.1483 1.83006C23.2807 1.20374 19.5214 1.85315 15.9973 3.58057C12.0359 5.52302 8.90143 8.31691 7.19422 12.5034C6.86951 13.2986 6.90559 14.036 7.34574 14.7735C8.29676 16.3609 8.16688 17.8719 7.05712 19.3352C5.58417 21.2738 4.12036 23.2162 2.66568 25.1625C2.52137 25.366 2.27171 25.5551 2.43623 25.8581C2.58054 26.1309 2.85762 26.0414 3.08563 26.0428C4.35992 26.0428 5.63564 26.0544 6.90992 26.0428C7.45254 26.0428 7.83208 26.2579 7.83352 26.8149C7.83496 27.372 7.44532 27.6029 6.91425 27.6072C6.67325 27.6072 6.43224 27.6231 6.19269 27.6072C5.77707 27.5783 5.67605 27.74 5.83623 28.1152C6.0868 28.7148 6.45988 29.2555 6.93157 29.7026C7.57809 30.3159 7.57953 30.5973 6.97486 31.254C6.54192 31.7302 6.47121 32.4922 6.83055 32.9771C7.56077 33.9642 7.56077 33.9642 6.85797 34.9743C6.72087 35.1721 6.5881 35.3712 6.44235 35.5631C5.97477 36.1779 5.7482 36.8316 6.14362 37.5676C6.53904 38.3036 7.19854 38.4552 7.9735 38.4523C11.7733 38.4378 15.5744 38.4119 19.3742 38.4523C21.7712 38.4811 23.8695 37.8173 25.6215 36.1534C26.0039 35.7897 26.4311 35.6743 26.8265 36.0856C27.2219 36.4968 27.0776 36.9182 26.6995 37.2819C25.2143 38.7431 23.2849 39.6682 21.2156 39.9113C19.4204 40.1306 17.6136 39.9459 15.6437 40.0469L15.6538 40.0426Z" fill="url(#paint0_linear_1_4993)"/>
<path d="M28.3139 27.3404C28.0969 27.3303 27.8868 27.2609 27.7063 27.1398C26.5821 26.5453 25.4493 25.9666 24.3337 25.3561C24.1942 25.2666 24.0319 25.219 23.8662 25.219C23.7004 25.219 23.5381 25.2666 23.3986 25.3561C22.2831 25.9651 21.1473 26.541 20.026 27.1398C19.6667 27.3303 19.3045 27.4617 18.948 27.1904C18.5915 26.9191 18.6161 26.5511 18.694 26.1441C18.9105 25.0141 19.0764 23.8726 19.2944 22.7412C19.4084 22.151 19.3073 21.7094 18.8224 21.2851C17.9566 20.526 17.1571 19.689 16.3316 18.8837C16.0531 18.6124 15.7702 18.3411 15.9145 17.8894C16.0589 17.4377 16.4168 17.3511 16.8151 17.2963C18.0028 17.1289 19.1876 16.9283 20.3796 16.7955C20.9193 16.7349 21.2267 16.5156 21.4504 16.0191C21.9439 14.9252 22.5067 13.8645 23.0263 12.7822C23.2052 12.4127 23.4275 12.0938 23.8647 12.0967C24.302 12.0996 24.5228 12.4214 24.6989 12.788C25.2415 13.9122 25.8158 15.0219 26.3382 16.1548C26.4068 16.3307 26.5253 16.4828 26.6791 16.5923C26.8329 16.7018 27.0154 16.7639 27.2041 16.771C28.3716 16.9153 29.5348 17.0899 30.6979 17.2602C31.1467 17.3266 31.6302 17.3381 31.8063 17.8923C31.9722 18.419 31.5898 18.6875 31.2882 18.9847C30.4685 19.7958 29.6589 20.6198 28.8017 21.3919C28.412 21.7426 28.3139 22.0947 28.4077 22.5897C28.6444 23.838 28.8536 25.0935 29.0557 26.349C29.1495 26.9436 28.8392 27.3361 28.3139 27.3404ZM23.8604 14.6496C23.3885 15.6064 22.9483 16.4044 22.5977 17.2386C22.309 17.9284 21.8328 18.2055 21.1127 18.2675C20.2367 18.3426 19.3694 18.51 18.4068 18.6499C19.1904 19.4422 19.886 20.1609 20.5989 20.8622C20.9525 21.21 21.091 21.5564 20.9727 22.0802C20.7577 23.0414 20.6466 24.0241 20.4691 25.1368C21.4432 24.6245 22.2816 24.2146 23.0854 23.7456C23.6208 23.4325 24.0826 23.4209 24.6224 23.7355C25.4435 24.2132 26.3007 24.6274 27.2561 25.1281C27.0815 24.0443 26.9675 23.0919 26.7611 22.1639C26.6326 21.5968 26.7611 21.2028 27.1608 20.8132C27.8665 20.1349 28.5376 19.4177 29.288 18.6485C28.3918 18.5143 27.5562 18.3296 26.7019 18.2762C25.8822 18.2257 25.3829 17.888 25.0712 17.1217C24.745 16.3352 24.3208 15.5862 23.8604 14.6496Z" fill="url(#paint1_linear_1_4993)"/>
<path d="M24.6691 8.78871C24.6766 8.97941 24.665 9.17037 24.6345 9.35875C24.5306 9.76138 24.2896 10.0529 23.8335 10.0312C23.3775 10.0096 23.1336 9.72819 23.0874 9.30968C23.055 8.95252 23.055 8.59316 23.0874 8.236C23.1235 7.77564 23.3761 7.46537 23.8595 7.45671C24.3429 7.44805 24.5811 7.77997 24.6532 8.22157C24.6694 8.41364 24.6694 8.60674 24.6532 8.79882L24.6691 8.78871Z" fill="url(#paint2_linear_1_4993)"/>
<path d="M18.7234 9.80458C18.7234 9.33701 18.8677 9.11332 19.1563 8.98056C19.2842 8.9111 19.4309 8.88442 19.575 8.90441C19.7192 8.92441 19.8531 8.99004 19.9572 9.09168C20.3069 9.41663 20.5932 9.8037 20.8015 10.2332C20.9602 10.5709 20.8621 10.8884 20.5619 11.1236C20.2906 11.3357 19.976 11.4122 19.709 11.1712C19.2487 10.7614 18.8287 10.3025 18.7234 9.80458Z" fill="url(#paint3_linear_1_4993)"/>
<path d="M29.0053 9.61299C28.9908 10.2407 28.0918 11.3274 27.6415 11.3C27.1465 11.2683 26.8435 10.9811 26.8564 10.463C26.8694 9.94491 27.8306 8.87555 28.2635 8.91307C28.7397 8.94771 28.9923 9.21901 29.0053 9.61299Z" fill="url(#paint4_linear_1_4993)"/>
</g>
<defs>
<linearGradient id="paint0_linear_1_4993" x1="0.789642" y1="25.0015" x2="44.2101" y2="25.0015" gradientUnits="userSpaceOnUse">
<stop stop-color="#F6EB61"/>
<stop offset="1" stop-color="#FFB25B"/>
</linearGradient>
<linearGradient id="paint1_linear_1_4993" x1="15.8756" y1="19.7207" x2="31.8464" y2="19.7207" gradientUnits="userSpaceOnUse">
<stop stop-color="#F6EB61"/>
<stop offset="1" stop-color="#FFB25B"/>
</linearGradient>
<linearGradient id="paint2_linear_1_4993" x1="23.0631" y1="8.74446" x2="24.6713" y2="8.74446" gradientUnits="userSpaceOnUse">
<stop stop-color="#F6EB61"/>
<stop offset="1" stop-color="#FFB25B"/>
</linearGradient>
<linearGradient id="paint3_linear_1_4993" x1="18.7234" y1="10.1092" x2="20.8767" y2="10.1092" gradientUnits="userSpaceOnUse">
<stop stop-color="#F6EB61"/>
<stop offset="1" stop-color="#FFB25B"/>
</linearGradient>
<linearGradient id="paint4_linear_1_4993" x1="26.856" y1="10.1063" x2="29.0053" y2="10.1063" gradientUnits="userSpaceOnUse">
<stop stop-color="#F6EB61"/>
<stop offset="1" stop-color="#FFB25B"/>
</linearGradient>
<clipPath id="clip0_1_4993">
<rect width="43.4208" height="50" fill="white" transform="translate(0.789612)"/>
</clipPath>
</defs>
</svg>
