<svg width="51" height="50" viewBox="0 0 51 50" fill="none" xmlns="http://www.w3.org/2000/svg">
<path d="M11.4784 21.0236C11.851 19.799 12.1542 18.6191 12.6539 17.5014C13.5328 15.5193 14.7683 13.7155 16.2989 12.1798C17.2997 11.1689 18.3207 10.1883 19.2493 9.11242C20.9245 7.17151 21.4545 4.8378 21.6147 2.37122C21.6292 2.1546 21.6263 1.93798 21.6465 1.7228C21.7909 0.164585 23.0502 -0.467944 24.373 0.375429C31.0272 4.6399 35.8211 11.2644 37.7919 18.9181C37.8511 19.1462 37.9363 19.3701 38.0374 19.6921C38.6151 19.0163 38.8606 18.248 39.148 17.5144C39.2086 17.3584 39.2332 17.188 39.2924 17.0292C39.5148 16.3649 39.9249 15.8912 40.6527 15.7973C41.3806 15.7034 41.8846 16.0457 42.2716 16.645C43.6629 18.7819 44.7179 21.1198 45.3996 23.5768C46.2747 26.7626 46.6993 30.009 46.0726 33.28C44.6631 40.6985 40.2498 45.7082 33.3425 48.4896C25.111 51.8024 15.5869 49.5394 9.65879 42.9398C5.78996 38.6493 4.26929 33.5688 4.80795 27.824C5.09555 24.6389 5.84924 21.5132 7.04491 18.5469C7.49548 17.4306 8.42694 17.0306 9.32519 17.5462C9.51122 17.656 9.67329 17.802 9.80179 17.9757C9.93029 18.1493 10.0226 18.347 10.0733 18.557C10.3346 19.4625 10.7231 20.3059 11.4784 21.0236ZM8.53236 19.3412C7.62262 21.5909 6.99213 23.9436 6.65499 26.3467C6.18132 29.6769 6.16688 32.9897 7.45504 36.1509C10.4343 43.4698 16.052 47.3848 23.7737 48.1834C29.4434 48.7683 34.534 47.0613 38.7927 43.2012C42.4276 39.9013 44.4364 35.7783 44.6443 30.8379C44.7526 28.2659 44.3454 25.7604 43.5757 23.3097C42.9484 21.2965 42.0428 19.3808 40.8852 17.6184L40.6874 18.1527C40.1588 19.5853 39.5321 20.9601 38.3234 21.9681C37.4756 22.6743 36.8576 22.4548 36.6294 21.3904C36.6034 21.272 36.5774 21.155 36.5543 21.0381C35.5233 15.6713 33.0123 10.6997 29.3048 6.68484C27.5514 4.75828 25.5417 3.08185 23.3318 1.70259C23.2899 2.20948 23.251 2.63405 23.2221 3.06007C23.0156 6.06531 22.0321 8.73262 19.8919 10.9133C19.0991 11.7191 18.3034 12.5191 17.5221 13.3408C15.1032 15.9027 13.4063 18.8285 13.0265 22.4028C12.9427 23.1869 12.4286 23.4786 11.6979 23.1797C10.8736 22.8289 10.1649 22.2528 9.65301 21.5175C9.19522 20.8965 8.90639 20.186 8.53236 19.3412Z" fill="url(#paint0_linear_1_4954)"/>
<path d="M12.1795 32.0436C12.1795 28.0001 13.9904 25.0916 16.9725 23.8742C19.9244 22.6669 23.0711 23.4294 25.1261 25.8801C25.4279 26.2397 25.5594 26.3047 25.8973 25.8974C27.6302 23.8164 29.8874 22.9543 32.523 23.4323C35.365 23.9478 37.4128 25.6505 38.2995 28.4001C39.5804 32.3671 38.7327 36.0164 36.0307 39.169C33.5093 42.1121 30.3582 44.1816 26.719 45.5232C25.9527 45.8213 25.1025 45.8213 24.3362 45.5232C20.437 44.0906 17.1155 41.8146 14.5031 38.5783C12.8727 36.5594 12.2315 34.1665 12.1795 32.0436ZM37.1471 31.8068C37.1585 30.9337 37.0487 30.0632 36.8207 29.2204C36.4894 28.0812 35.8215 27.0687 34.9045 26.3159C33.9875 25.5631 32.8644 25.1051 31.6825 25.0021C29.5062 24.7883 27.4411 26.0433 26.3825 28.2499C26.1919 28.647 25.9724 28.9879 25.5045 28.9806C25.0366 28.9734 24.8301 28.6182 24.638 28.2254C23.6271 26.1097 21.6429 24.862 19.5402 24.9833C17.1733 25.119 14.9522 26.7278 14.2951 28.9734C13.3781 32.1 13.8691 35.0705 15.8938 37.6295C18.2752 40.6406 21.393 42.684 25.0005 43.9909C25.341 44.1172 25.7159 44.1146 26.0547 43.9837C29.3045 42.8163 32.2231 40.8788 34.5606 38.3372C36.3066 36.4598 37.0777 34.2257 37.1471 31.8068Z" fill="url(#paint1_linear_1_4954)"/>
<defs>
<linearGradient id="paint0_linear_1_4954" x1="4.70291" y1="25" x2="46.3712" y2="25" gradientUnits="userSpaceOnUse">
<stop stop-color="#F6EB61"/>
<stop offset="1" stop-color="#FFB25B"/>
</linearGradient>
<linearGradient id="paint1_linear_1_4954" x1="12.1795" y1="34.5253" x2="38.8853" y2="34.5253" gradientUnits="userSpaceOnUse">
<stop stop-color="#F6EB61"/>
<stop offset="1" stop-color="#FFB25B"/>
</linearGradient>
</defs>
</svg>
