<svg width="51" height="50" viewBox="0 0 51 50" fill="none" xmlns="http://www.w3.org/2000/svg">
<g clip-path="url(#clip0_1_4936)">
<mask id="path-1-outside-1_1_4936" maskUnits="userSpaceOnUse" x="-0.5" y="3.64404" width="52" height="47" fill="black">
<rect fill="white" x="-0.5" y="3.64404" width="52" height="47"/>
<path d="M26.8258 4.64802C28.2528 4.64802 29.6782 4.64802 31.1052 4.64802C31.9735 4.64802 32.1587 4.81666 31.9797 5.63379C31.8677 6.14431 31.9875 6.40033 32.4185 6.69009C33.5249 7.4367 34.0042 8.55585 34.0556 9.84364C34.0945 10.8386 34.068 11.8366 34.0649 12.8332C34.0649 13.6702 34.1069 14.4582 34.4897 15.2723C35.1775 16.7333 34.3341 18.481 32.778 19.0161C32.2723 19.1909 32.1073 19.4423 32.0419 19.9206C31.7992 21.7005 30.8577 23.0619 29.3312 24.0109C28.8986 24.2792 28.7087 24.5566 28.7554 25.0534C28.8052 25.6375 28.6107 26.3136 28.8503 26.7888C29.09 27.2641 29.9007 27.005 30.4065 27.2487C31.0398 27.5554 31.3401 27.402 31.6871 26.7505C32.5679 25.0825 34.177 24.3742 35.9463 23.9603C37.7156 23.5463 39.5145 23.7441 41.2869 23.5111C43.9868 23.1554 46.4984 22.3751 48.4638 20.3805C48.6161 20.2024 48.8232 20.0779 49.0536 20.0259C49.2841 19.9739 49.5255 19.9972 49.7414 20.0923C49.9759 20.1762 50.1767 20.3327 50.3135 20.5382C50.4504 20.7438 50.5161 20.9875 50.5008 21.2329C50.5008 22.231 50.4447 23.2259 50.1273 24.1856C49.9641 24.6684 49.9388 25.186 50.0541 25.6819C50.4089 27.3407 50.3576 28.9842 49.7025 30.574C49.6176 30.7874 49.5923 31.0192 49.6293 31.2455C50.2066 35.9061 47.1924 38.3851 44.0039 39.3877C42.4009 39.9105 40.7238 40.1791 39.0352 40.1834C38.2182 40.1834 38.0471 40.4593 38.0719 41.2029C38.128 42.8095 38.0937 44.4223 38.0875 46.0305C38.0875 48.8591 36.0645 50.4382 33.2448 49.8326L27.7019 48.6429C26.3434 48.3516 25.6914 47.395 25.9404 46.0597C25.9964 45.7531 26.0415 45.4541 26.1193 45.1582C26.2578 44.6431 26.1302 44.4591 25.5373 44.4515C25.0082 44.4515 24.9024 44.5726 25.0222 45.0417C25.119 45.439 25.1933 45.8413 25.2448 46.2467C25.4004 47.3996 24.7779 48.344 23.6388 48.6031C21.5676 49.0707 19.4933 49.5229 17.4143 49.9322C15.1533 50.3646 13.1365 48.7318 13.0898 46.4521C13.0541 44.6646 13.04 42.8739 13.1007 41.0864C13.1256 40.3413 12.8331 40.2186 12.1671 40.1956C9.73794 40.1144 7.35862 39.7541 5.20182 38.5614C2.38834 36.9976 1.11231 34.6106 1.35974 31.4279C1.38152 31.152 1.43288 30.8821 1.31305 30.6001C0.609684 28.9413 0.594123 27.2227 0.980043 25.4918C1.06666 25.0937 1.03918 24.6797 0.90068 24.296C0.569225 23.2873 0.500755 22.2417 0.500755 21.1931C0.491705 20.9482 0.564225 20.7072 0.707243 20.5068C0.850262 20.3064 1.05592 20.1576 1.29282 20.0831C1.49834 19.998 1.72583 19.9787 1.94309 20.0279C2.16036 20.0772 2.35641 20.1925 2.50349 20.3575C4.85792 22.7062 7.86125 23.4467 11.0653 23.6092C12.802 23.6981 14.5402 23.692 16.2005 24.2976C17.6649 24.8326 18.8615 25.6773 19.498 27.1353C19.6536 27.4726 19.8294 27.5416 20.1578 27.4281C20.4861 27.3147 20.8082 27.2549 21.1257 27.1445C21.5318 27.0034 22.2383 27.1966 22.3193 26.8149C22.4749 26.0591 22.3908 25.2435 22.3488 24.4555C22.341 24.3236 22.0578 24.1902 21.882 24.0845C20.2418 23.0711 19.2848 21.6193 19.0327 19.7336C18.9813 19.3472 18.8288 19.1832 18.4632 19.0498C16.6845 18.3967 15.964 16.6275 16.8059 14.9304C16.9917 14.5681 17.0847 14.1665 17.0766 13.7607C17.0658 12.5342 17.0564 11.3077 17.0766 10.0813C17.1311 6.97984 19.484 4.68021 22.6242 4.65109C24.0248 4.63729 25.4253 4.64802 26.8258 4.64802ZM2.14092 31.9921C2.2016 34.491 3.14462 36.2847 5.09756 37.5281C7.38352 38.9753 9.9807 39.2804 12.6152 39.4076C13.0214 39.426 13.0821 39.2068 13.0821 38.8818C13.0727 38.2946 13.0618 37.7059 13.0821 37.1187C13.219 33.3136 14.9245 30.3839 18.1722 28.328C18.9627 27.8267 19.0031 27.7761 18.4741 26.9835C17.5404 25.5761 16.0916 25.0135 14.495 24.6992C13.0354 24.411 11.5477 24.5459 10.0787 24.3849C7.40686 24.1013 4.9046 23.3869 2.73691 21.7296C2.35566 21.4384 2.08489 20.6657 1.55581 20.9631C1.06563 21.2329 1.36285 21.955 1.4002 22.464C1.66163 25.6651 3.31268 27.5569 6.37981 28.1809C6.86066 28.279 7.35862 28.2836 7.84724 28.3418C8.06821 28.3679 8.25651 28.4599 8.25184 28.719C8.25594 28.7756 8.24726 28.8325 8.22642 28.8855C8.20558 28.9384 8.17309 28.9862 8.13128 29.0253C8.08948 29.0645 8.0394 29.094 7.98464 29.1118C7.92988 29.1296 7.8718 29.1352 7.81456 29.1283C7.4266 29.123 7.03915 29.0985 6.65369 29.0547C4.66963 28.7972 2.99056 27.9953 1.79079 26.3151C0.891343 29.162 2.4677 32.0872 5.23917 32.8629C6.01405 33.0729 6.81198 33.1892 7.61538 33.2094C7.92661 33.2201 8.31719 33.1756 8.32809 33.6064C8.33898 34.1016 7.91416 34.0449 7.58581 34.0357C5.61731 33.9866 3.79041 33.5405 2.14092 31.9921ZM49.245 26.381C49.0006 26.4623 48.9228 26.6984 48.7781 26.8639C47.3216 28.4967 45.4122 29.067 43.2896 29.1406C42.9955 29.1513 42.7668 29.0593 42.7528 28.7328C42.7403 28.4338 42.9629 28.3526 43.2196 28.328C43.425 28.3066 43.632 28.2928 43.8421 28.2759C48.3875 27.9172 49.6885 24.6103 49.6542 21.3356C49.6542 21.1501 49.6371 20.9631 49.4348 20.8864C49.2325 20.8098 49.1002 20.9447 48.968 21.0719C48.6934 21.3422 48.4046 21.5981 48.1028 21.8385C45.9242 23.4758 43.411 24.1565 40.7345 24.3972C39.113 24.5505 37.4666 24.4064 35.8685 24.8311C34.5909 25.1714 33.43 25.6988 32.6333 26.7995C31.9999 27.6765 32.0388 27.7976 32.9787 28.3434C35.0577 29.556 36.48 31.3068 37.3748 33.5099C38.0579 35.1886 38.1653 36.9332 38.0937 38.7024C38.0688 39.2942 38.2805 39.4552 38.8531 39.4092C39.9124 39.3418 40.9671 39.2159 42.0121 39.032C44.0039 38.6472 45.8666 37.9911 47.2905 36.481C48.4311 35.2714 48.9119 33.8211 48.8715 32.1883C48.5945 32.1531 48.5167 32.314 48.4046 32.406C46.9263 33.6662 45.1477 34.0081 43.2694 34.0434C42.9582 34.0434 42.6672 33.9912 42.675 33.611C42.675 33.2722 42.9644 33.2354 43.2352 33.2201C43.6491 33.1956 44.0646 33.191 44.4801 33.145C48.8201 32.6544 49.8845 29.2448 49.245 26.381ZM25.5171 24.0814C25.8532 24.0814 26.1925 24.0983 26.527 24.0814C29.0464 23.9281 31.1316 21.9013 31.2514 19.4239C31.2841 18.7601 31.4351 18.4304 32.1851 18.3231C33.1982 18.1698 33.8611 17.2837 33.8704 16.3117C33.8797 15.3765 33.2277 14.4015 32.2972 14.2896C31.3666 14.1777 31.2701 13.7254 31.2639 12.9635C31.2468 10.9873 30.019 9.40671 28.1392 8.73062C27.1526 8.37648 26.1411 8.48379 25.1374 8.47153C21.8228 8.4286 19.9773 10.1579 19.8466 13.4265C19.8294 13.8711 19.719 14.1209 19.2241 14.2129C18.0228 14.4383 17.3054 15.234 17.2914 16.2673C17.2758 17.3404 17.9823 18.1376 19.249 18.3829C19.7158 18.4734 19.8528 18.6895 19.8497 19.1065C19.8423 19.6695 19.9415 20.229 20.1422 20.7561C20.9903 22.9622 22.8125 24.0967 25.5171 24.0814ZM23.4552 33.0346C22.2477 33.8471 22.243 33.8425 21.7575 32.4781C21.3373 31.2976 20.8798 30.1309 20.4846 28.9413C20.3087 28.4078 20.1033 28.2529 19.5509 28.5289C16.1523 30.2306 14.1589 32.9212 13.9815 36.6818C13.8259 39.9442 13.9177 43.2204 13.9488 46.4935C13.9644 48.1615 15.4007 49.3497 17.0751 49.1289C17.8687 49.0247 18.6452 48.7978 19.4357 48.6613C19.8497 48.5908 19.845 48.37 19.7765 48.0588C19.6209 47.3613 19.4482 46.6637 19.3439 45.9585C19.2739 45.4848 19.0327 45.4495 18.6468 45.5384C18.1177 45.6595 17.5824 45.7592 17.0471 45.8542C16.7997 45.8972 16.5647 45.845 16.4962 45.563C16.478 45.5071 16.4735 45.4478 16.4831 45.3899C16.4926 45.332 16.516 45.2772 16.5512 45.2299C16.5864 45.1827 16.6325 45.1443 16.6857 45.118C16.7389 45.0916 16.7977 45.0781 16.8572 45.0785C17.4797 45.0095 17.4548 44.5971 17.4532 44.1403C17.4423 41.4834 17.4532 38.8266 17.4532 36.1682C17.4446 35.9391 17.4571 35.7098 17.4906 35.4829C17.5019 35.3923 17.5464 35.3088 17.6157 35.2481C17.6851 35.1875 17.7744 35.1538 17.8672 35.1533C17.9598 35.1474 18.0514 35.1755 18.1244 35.2321C18.1973 35.2887 18.2465 35.3698 18.2624 35.4599C18.304 35.6849 18.3207 35.9136 18.3122 36.1422C18.3122 38.3651 18.3044 40.5881 18.3122 42.8111C18.3122 43.4243 18.0352 44.2276 18.4305 44.5803C18.8257 44.9329 19.5836 44.4269 20.1905 44.3687C20.3196 44.3564 20.4457 44.3212 20.5748 44.3089C20.9872 44.2706 21.1381 44.0575 21.1319 43.6466C21.1179 42.7268 21.1895 41.8069 21.1475 40.8871C21.0681 39.1639 22.145 37.9144 22.9806 36.5944C23.5735 35.6623 24.6472 34.954 23.6466 33.6954C23.5315 33.5512 23.5315 33.3121 23.4552 33.0346ZM27.898 33.0898C27.6194 33.6095 27.5556 34.1476 27.1448 34.5048C27.0701 34.5707 27.0032 34.6949 27.0903 34.7746C27.5463 35.1993 27.5572 35.8647 27.9166 36.3077C29.2627 38.0217 30.1902 39.8139 30.0501 42.0982C29.9209 44.1893 30.0408 44.1816 32.098 44.6247C32.7204 44.7581 32.9678 44.6814 32.957 43.967C32.9165 41.3608 32.9398 38.7545 32.9414 36.1483C32.9359 35.9189 32.9468 35.6894 32.9741 35.4615C32.9861 35.3716 33.0327 35.2897 33.1042 35.2327C33.1757 35.1756 33.2667 35.1478 33.3584 35.1549C33.451 35.1517 33.5413 35.1834 33.6109 35.2435C33.6806 35.3036 33.7244 35.3875 33.7335 35.4783C33.7568 35.7065 33.7662 35.9359 33.7615 36.1652C33.7615 38.8235 33.777 41.4804 33.7506 44.1372C33.7506 44.709 33.8439 45.0754 34.5022 45.1092C34.801 45.1245 35.1013 45.2333 35.0282 45.6151C34.955 45.9968 34.6562 45.9754 34.3528 45.9125C33.7444 45.7868 33.1328 45.6764 32.5275 45.5415C32.1431 45.4541 31.8972 45.4786 31.8256 45.9554C31.7152 46.6867 31.5471 47.4088 31.3806 48.1309C31.309 48.4375 31.3697 48.5985 31.7167 48.6598C32.4808 48.7962 33.2324 49.0124 34.0011 49.1197C35.7346 49.3589 37.1881 48.2121 37.2099 46.4966C37.2503 43.1759 37.353 39.8476 37.1616 36.5316C36.9531 32.9564 35.0608 30.318 31.8179 28.6362C31.2545 28.3449 31.0242 28.4415 30.8157 29.0149C30.3084 30.4069 29.7451 31.7744 29.2067 33.1618C28.9982 33.6954 28.7134 33.8855 28.2528 33.3841C28.1401 33.2796 28.0217 33.1814 27.898 33.0898ZM26.3994 5.49428C25.0798 5.49428 23.754 5.47435 22.4391 5.49428C21.3674 5.51012 20.3353 5.89551 19.5222 6.58342C18.709 7.27134 18.1664 8.21826 17.9885 9.25954C17.7645 10.5995 17.9279 11.9578 17.8905 13.3069C17.8905 13.5644 17.9652 13.7039 18.2562 13.5828C18.6234 13.4295 18.972 13.3835 19.0125 12.801C19.2225 9.73479 21.5334 7.66359 24.655 7.64826C25.9232 7.64826 27.1915 7.64826 28.4613 7.64826C29.5335 7.64826 30.3598 7.20214 30.892 6.26849C31.2608 5.62613 31.1752 5.48355 30.4376 5.48048C29.0915 5.49122 27.7455 5.49428 26.3994 5.49428ZM27.8544 40.283C27.8326 40.444 27.8248 40.5467 27.8062 40.6464C27.4638 42.4539 27.1261 44.2598 26.776 46.0658C26.5799 47.0746 26.9425 47.6357 27.9509 47.8488C28.5842 47.9822 29.2222 48.1002 29.8478 48.2643C30.2975 48.3838 30.5201 48.2735 30.5916 47.8043C30.671 47.2754 30.7908 46.7511 30.9122 46.2283C31.1363 45.2609 31.1456 45.2318 30.1497 45.0816C29.4666 44.9804 29.1756 44.6998 29.2082 43.9823C29.2534 42.9628 29.1507 41.9388 29.1771 40.9162C29.2145 39.4506 28.2139 38.428 27.621 37.2368C27.5957 37.1834 27.5585 37.1362 27.5122 37.0989C27.4659 37.0616 27.4117 37.035 27.3535 37.0212C27.2954 37.0073 27.2348 37.0066 27.1763 37.019C27.1178 37.0313 27.0629 37.0565 27.0156 37.0927C26.9236 37.1427 26.8549 37.2259 26.8238 37.3248C26.7928 37.4237 26.8018 37.5307 26.8491 37.6231C26.9363 37.8362 27.0172 38.0524 27.0997 38.267C27.3673 38.9477 27.7548 39.5931 27.8544 40.283ZM21.051 48.3072C21.759 48.1539 22.4671 48.0006 23.1751 47.8473C24.2162 47.6296 24.5601 47.1405 24.3749 46.0873C24.1866 45.0141 24.0543 43.9088 23.7618 42.8555C23.2794 41.1139 23.2202 39.4506 24.2131 37.8515C24.3687 37.5925 24.4916 37.2475 24.0886 37.0666C23.712 36.898 23.5361 37.177 23.3665 37.4545C22.4889 38.8864 21.7248 40.3428 21.966 42.1089C21.9979 42.5414 21.9932 42.9757 21.952 43.4074C21.8944 44.8823 22.2134 44.8746 20.5842 45.1337C20.2356 45.1889 20.024 45.287 20.1469 45.7316C20.343 46.4429 20.4581 47.1773 20.6137 47.9009C20.6573 48.1385 20.718 48.37 21.051 48.3072ZM24.7141 24.9231C24.3898 24.9038 24.0671 24.8643 23.7478 24.805C23.337 24.7115 23.2483 24.8832 23.2545 25.2312C23.27 25.9977 23.2265 26.7643 23.2856 27.5232C23.324 28.0886 23.5775 28.619 23.9955 29.0084C24.4135 29.3978 24.9652 29.6174 25.5404 29.6235C26.1285 29.6332 26.6984 29.4223 27.1345 29.0334C27.5705 28.6445 27.8401 28.1068 27.8886 27.5293C27.954 26.7704 27.9089 25.9962 27.9322 25.2389C27.9462 24.8157 27.7766 24.7238 27.3704 24.805C26.5613 24.966 25.7303 24.9614 24.7141 24.9231ZM24.1617 40.3903C24.3313 41.2657 24.4869 42.1442 24.6768 43.015C24.7919 43.5439 25.2557 43.6435 25.7007 43.6481C26.1458 43.6527 26.4228 43.4228 26.5332 42.9276C26.8912 41.3194 27.1915 39.7326 26.1816 38.2318C26.1472 38.1631 26.1201 38.0912 26.1006 38.0171C25.8252 37.338 25.9326 36.7447 26.5877 36.3583C26.9425 36.1498 26.9083 35.9551 26.7262 35.6868C26.6133 35.499 26.4504 35.3453 26.255 35.2423C26.0597 35.1393 25.8395 35.091 25.6182 35.1027C25.3837 35.1097 25.1557 35.1806 24.9596 35.3076C24.7634 35.4345 24.6068 35.6125 24.5072 35.8217C24.3982 36.021 24.3718 36.1973 24.5912 36.3537C25.3568 36.8934 25.2712 37.5572 24.9413 38.3161C24.6503 38.9891 24.2753 39.6422 24.1617 40.3903ZM29.549 8.39488C29.7155 8.54818 29.8011 8.63557 29.8992 8.71069C31.2592 9.72559 31.989 11.0778 32.1322 12.7458C32.1301 12.8736 32.14 13.0014 32.1618 13.1275C32.2925 13.5675 32.7422 13.5629 33.0488 13.5874C33.3553 13.612 33.2339 13.2333 33.2371 13.0355C33.2542 12.0666 33.2651 11.0962 33.2371 10.1227C33.2059 9.00811 32.8791 8.01161 31.9019 7.32325C31.6576 7.15155 31.4351 7.0013 31.1736 7.32325C30.7768 7.81844 30.2228 8.09133 29.549 8.39488ZM30.2026 28.2774C30.2462 27.9509 29.9334 27.9432 29.7358 27.9463C29.3576 27.9463 28.8441 27.5078 28.6262 28.1839C28.4277 28.791 28.0664 29.3339 27.5805 29.7553C27.2817 30.0236 26.6251 30.0619 26.6733 30.4345C26.7169 30.7856 27.2039 31.083 27.4949 31.4034C27.5307 31.4417 27.5681 31.477 27.6023 31.5138C28.5515 32.521 28.5593 32.5241 29.0682 31.2348C29.4588 30.2643 29.8198 29.2816 30.2026 28.2774ZM22.0002 27.8558C21.7933 28.0766 20.911 27.5921 21.2222 28.4936C21.6205 29.6771 22.078 30.8423 22.506 32.0197C22.6134 32.314 22.7145 32.4904 23.0211 32.1592C23.4739 31.6702 23.9547 31.2133 24.434 30.7457C24.6674 30.5157 24.7235 30.3486 24.3453 30.1923C23.9087 30.0233 23.5184 29.7558 23.2057 29.4113C22.893 29.0667 22.6667 28.6548 22.5449 28.2085C22.4718 27.9632 22.3737 27.7761 22.0002 27.8558ZM26.9394 32.7433C26.9316 32.1301 26.0057 30.7503 25.626 30.7779C25.1592 30.8193 24.3656 32.0872 24.3811 32.7832C24.3951 33.7199 24.8682 34.2503 25.6789 34.2365C26.4897 34.2227 26.955 33.6632 26.9394 32.7433Z"/>
</mask>
<path d="M26.8258 4.64802C28.2528 4.64802 29.6782 4.64802 31.1052 4.64802C31.9735 4.64802 32.1587 4.81666 31.9797 5.63379C31.8677 6.14431 31.9875 6.40033 32.4185 6.69009C33.5249 7.4367 34.0042 8.55585 34.0556 9.84364C34.0945 10.8386 34.068 11.8366 34.0649 12.8332C34.0649 13.6702 34.1069 14.4582 34.4897 15.2723C35.1775 16.7333 34.3341 18.481 32.778 19.0161C32.2723 19.1909 32.1073 19.4423 32.0419 19.9206C31.7992 21.7005 30.8577 23.0619 29.3312 24.0109C28.8986 24.2792 28.7087 24.5566 28.7554 25.0534C28.8052 25.6375 28.6107 26.3136 28.8503 26.7888C29.09 27.2641 29.9007 27.005 30.4065 27.2487C31.0398 27.5554 31.3401 27.402 31.6871 26.7505C32.5679 25.0825 34.177 24.3742 35.9463 23.9603C37.7156 23.5463 39.5145 23.7441 41.2869 23.5111C43.9868 23.1554 46.4984 22.3751 48.4638 20.3805C48.6161 20.2024 48.8232 20.0779 49.0536 20.0259C49.2841 19.9739 49.5255 19.9972 49.7414 20.0923C49.9759 20.1762 50.1767 20.3327 50.3135 20.5382C50.4504 20.7438 50.5161 20.9875 50.5008 21.2329C50.5008 22.231 50.4447 23.2259 50.1273 24.1856C49.9641 24.6684 49.9388 25.186 50.0541 25.6819C50.4089 27.3407 50.3576 28.9842 49.7025 30.574C49.6176 30.7874 49.5923 31.0192 49.6293 31.2455C50.2066 35.9061 47.1924 38.3851 44.0039 39.3877C42.4009 39.9105 40.7238 40.1791 39.0352 40.1834C38.2182 40.1834 38.0471 40.4593 38.0719 41.2029C38.128 42.8095 38.0937 44.4223 38.0875 46.0305C38.0875 48.8591 36.0645 50.4382 33.2448 49.8326L27.7019 48.6429C26.3434 48.3516 25.6914 47.395 25.9404 46.0597C25.9964 45.7531 26.0415 45.4541 26.1193 45.1582C26.2578 44.6431 26.1302 44.4591 25.5373 44.4515C25.0082 44.4515 24.9024 44.5726 25.0222 45.0417C25.119 45.439 25.1933 45.8413 25.2448 46.2467C25.4004 47.3996 24.7779 48.344 23.6388 48.6031C21.5676 49.0707 19.4933 49.5229 17.4143 49.9322C15.1533 50.3646 13.1365 48.7318 13.0898 46.4521C13.0541 44.6646 13.04 42.8739 13.1007 41.0864C13.1256 40.3413 12.8331 40.2186 12.1671 40.1956C9.73794 40.1144 7.35862 39.7541 5.20182 38.5614C2.38834 36.9976 1.11231 34.6106 1.35974 31.4279C1.38152 31.152 1.43288 30.8821 1.31305 30.6001C0.609684 28.9413 0.594123 27.2227 0.980043 25.4918C1.06666 25.0937 1.03918 24.6797 0.90068 24.296C0.569225 23.2873 0.500755 22.2417 0.500755 21.1931C0.491705 20.9482 0.564225 20.7072 0.707243 20.5068C0.850262 20.3064 1.05592 20.1576 1.29282 20.0831C1.49834 19.998 1.72583 19.9787 1.94309 20.0279C2.16036 20.0772 2.35641 20.1925 2.50349 20.3575C4.85792 22.7062 7.86125 23.4467 11.0653 23.6092C12.802 23.6981 14.5402 23.692 16.2005 24.2976C17.6649 24.8326 18.8615 25.6773 19.498 27.1353C19.6536 27.4726 19.8294 27.5416 20.1578 27.4281C20.4861 27.3147 20.8082 27.2549 21.1257 27.1445C21.5318 27.0034 22.2383 27.1966 22.3193 26.8149C22.4749 26.0591 22.3908 25.2435 22.3488 24.4555C22.341 24.3236 22.0578 24.1902 21.882 24.0845C20.2418 23.0711 19.2848 21.6193 19.0327 19.7336C18.9813 19.3472 18.8288 19.1832 18.4632 19.0498C16.6845 18.3967 15.964 16.6275 16.8059 14.9304C16.9917 14.5681 17.0847 14.1665 17.0766 13.7607C17.0658 12.5342 17.0564 11.3077 17.0766 10.0813C17.1311 6.97984 19.484 4.68021 22.6242 4.65109C24.0248 4.63729 25.4253 4.64802 26.8258 4.64802ZM2.14092 31.9921C2.2016 34.491 3.14462 36.2847 5.09756 37.5281C7.38352 38.9753 9.9807 39.2804 12.6152 39.4076C13.0214 39.426 13.0821 39.2068 13.0821 38.8818C13.0727 38.2946 13.0618 37.7059 13.0821 37.1187C13.219 33.3136 14.9245 30.3839 18.1722 28.328C18.9627 27.8267 19.0031 27.7761 18.4741 26.9835C17.5404 25.5761 16.0916 25.0135 14.495 24.6992C13.0354 24.411 11.5477 24.5459 10.0787 24.3849C7.40686 24.1013 4.9046 23.3869 2.73691 21.7296C2.35566 21.4384 2.08489 20.6657 1.55581 20.9631C1.06563 21.2329 1.36285 21.955 1.4002 22.464C1.66163 25.6651 3.31268 27.5569 6.37981 28.1809C6.86066 28.279 7.35862 28.2836 7.84724 28.3418C8.06821 28.3679 8.25651 28.4599 8.25184 28.719C8.25594 28.7756 8.24726 28.8325 8.22642 28.8855C8.20558 28.9384 8.17309 28.9862 8.13128 29.0253C8.08948 29.0645 8.0394 29.094 7.98464 29.1118C7.92988 29.1296 7.8718 29.1352 7.81456 29.1283C7.4266 29.123 7.03915 29.0985 6.65369 29.0547C4.66963 28.7972 2.99056 27.9953 1.79079 26.3151C0.891343 29.162 2.4677 32.0872 5.23917 32.8629C6.01405 33.0729 6.81198 33.1892 7.61538 33.2094C7.92661 33.2201 8.31719 33.1756 8.32809 33.6064C8.33898 34.1016 7.91416 34.0449 7.58581 34.0357C5.61731 33.9866 3.79041 33.5405 2.14092 31.9921ZM49.245 26.381C49.0006 26.4623 48.9228 26.6984 48.7781 26.8639C47.3216 28.4967 45.4122 29.067 43.2896 29.1406C42.9955 29.1513 42.7668 29.0593 42.7528 28.7328C42.7403 28.4338 42.9629 28.3526 43.2196 28.328C43.425 28.3066 43.632 28.2928 43.8421 28.2759C48.3875 27.9172 49.6885 24.6103 49.6542 21.3356C49.6542 21.1501 49.6371 20.9631 49.4348 20.8864C49.2325 20.8098 49.1002 20.9447 48.968 21.0719C48.6934 21.3422 48.4046 21.5981 48.1028 21.8385C45.9242 23.4758 43.411 24.1565 40.7345 24.3972C39.113 24.5505 37.4666 24.4064 35.8685 24.8311C34.5909 25.1714 33.43 25.6988 32.6333 26.7995C31.9999 27.6765 32.0388 27.7976 32.9787 28.3434C35.0577 29.556 36.48 31.3068 37.3748 33.5099C38.0579 35.1886 38.1653 36.9332 38.0937 38.7024C38.0688 39.2942 38.2805 39.4552 38.8531 39.4092C39.9124 39.3418 40.9671 39.2159 42.0121 39.032C44.0039 38.6472 45.8666 37.9911 47.2905 36.481C48.4311 35.2714 48.9119 33.8211 48.8715 32.1883C48.5945 32.1531 48.5167 32.314 48.4046 32.406C46.9263 33.6662 45.1477 34.0081 43.2694 34.0434C42.9582 34.0434 42.6672 33.9912 42.675 33.611C42.675 33.2722 42.9644 33.2354 43.2352 33.2201C43.6491 33.1956 44.0646 33.191 44.4801 33.145C48.8201 32.6544 49.8845 29.2448 49.245 26.381ZM25.5171 24.0814C25.8532 24.0814 26.1925 24.0983 26.527 24.0814C29.0464 23.9281 31.1316 21.9013 31.2514 19.4239C31.2841 18.7601 31.4351 18.4304 32.1851 18.3231C33.1982 18.1698 33.8611 17.2837 33.8704 16.3117C33.8797 15.3765 33.2277 14.4015 32.2972 14.2896C31.3666 14.1777 31.2701 13.7254 31.2639 12.9635C31.2468 10.9873 30.019 9.40671 28.1392 8.73062C27.1526 8.37648 26.1411 8.48379 25.1374 8.47153C21.8228 8.4286 19.9773 10.1579 19.8466 13.4265C19.8294 13.8711 19.719 14.1209 19.2241 14.2129C18.0228 14.4383 17.3054 15.234 17.2914 16.2673C17.2758 17.3404 17.9823 18.1376 19.249 18.3829C19.7158 18.4734 19.8528 18.6895 19.8497 19.1065C19.8423 19.6695 19.9415 20.229 20.1422 20.7561C20.9903 22.9622 22.8125 24.0967 25.5171 24.0814ZM23.4552 33.0346C22.2477 33.8471 22.243 33.8425 21.7575 32.4781C21.3373 31.2976 20.8798 30.1309 20.4846 28.9413C20.3087 28.4078 20.1033 28.2529 19.5509 28.5289C16.1523 30.2306 14.1589 32.9212 13.9815 36.6818C13.8259 39.9442 13.9177 43.2204 13.9488 46.4935C13.9644 48.1615 15.4007 49.3497 17.0751 49.1289C17.8687 49.0247 18.6452 48.7978 19.4357 48.6613C19.8497 48.5908 19.845 48.37 19.7765 48.0588C19.6209 47.3613 19.4482 46.6637 19.3439 45.9585C19.2739 45.4848 19.0327 45.4495 18.6468 45.5384C18.1177 45.6595 17.5824 45.7592 17.0471 45.8542C16.7997 45.8972 16.5647 45.845 16.4962 45.563C16.478 45.5071 16.4735 45.4478 16.4831 45.3899C16.4926 45.332 16.516 45.2772 16.5512 45.2299C16.5864 45.1827 16.6325 45.1443 16.6857 45.118C16.7389 45.0916 16.7977 45.0781 16.8572 45.0785C17.4797 45.0095 17.4548 44.5971 17.4532 44.1403C17.4423 41.4834 17.4532 38.8266 17.4532 36.1682C17.4446 35.9391 17.4571 35.7098 17.4906 35.4829C17.5019 35.3923 17.5464 35.3088 17.6157 35.2481C17.6851 35.1875 17.7744 35.1538 17.8672 35.1533C17.9598 35.1474 18.0514 35.1755 18.1244 35.2321C18.1973 35.2887 18.2465 35.3698 18.2624 35.4599C18.304 35.6849 18.3207 35.9136 18.3122 36.1422C18.3122 38.3651 18.3044 40.5881 18.3122 42.8111C18.3122 43.4243 18.0352 44.2276 18.4305 44.5803C18.8257 44.9329 19.5836 44.4269 20.1905 44.3687C20.3196 44.3564 20.4457 44.3212 20.5748 44.3089C20.9872 44.2706 21.1381 44.0575 21.1319 43.6466C21.1179 42.7268 21.1895 41.8069 21.1475 40.8871C21.0681 39.1639 22.145 37.9144 22.9806 36.5944C23.5735 35.6623 24.6472 34.954 23.6466 33.6954C23.5315 33.5512 23.5315 33.3121 23.4552 33.0346ZM27.898 33.0898C27.6194 33.6095 27.5556 34.1476 27.1448 34.5048C27.0701 34.5707 27.0032 34.6949 27.0903 34.7746C27.5463 35.1993 27.5572 35.8647 27.9166 36.3077C29.2627 38.0217 30.1902 39.8139 30.0501 42.0982C29.9209 44.1893 30.0408 44.1816 32.098 44.6247C32.7204 44.7581 32.9678 44.6814 32.957 43.967C32.9165 41.3608 32.9398 38.7545 32.9414 36.1483C32.9359 35.9189 32.9468 35.6894 32.9741 35.4615C32.9861 35.3716 33.0327 35.2897 33.1042 35.2327C33.1757 35.1756 33.2667 35.1478 33.3584 35.1549C33.451 35.1517 33.5413 35.1834 33.6109 35.2435C33.6806 35.3036 33.7244 35.3875 33.7335 35.4783C33.7568 35.7065 33.7662 35.9359 33.7615 36.1652C33.7615 38.8235 33.777 41.4804 33.7506 44.1372C33.7506 44.709 33.8439 45.0754 34.5022 45.1092C34.801 45.1245 35.1013 45.2333 35.0282 45.6151C34.955 45.9968 34.6562 45.9754 34.3528 45.9125C33.7444 45.7868 33.1328 45.6764 32.5275 45.5415C32.1431 45.4541 31.8972 45.4786 31.8256 45.9554C31.7152 46.6867 31.5471 47.4088 31.3806 48.1309C31.309 48.4375 31.3697 48.5985 31.7167 48.6598C32.4808 48.7962 33.2324 49.0124 34.0011 49.1197C35.7346 49.3589 37.1881 48.2121 37.2099 46.4966C37.2503 43.1759 37.353 39.8476 37.1616 36.5316C36.9531 32.9564 35.0608 30.318 31.8179 28.6362C31.2545 28.3449 31.0242 28.4415 30.8157 29.0149C30.3084 30.4069 29.7451 31.7744 29.2067 33.1618C28.9982 33.6954 28.7134 33.8855 28.2528 33.3841C28.1401 33.2796 28.0217 33.1814 27.898 33.0898ZM26.3994 5.49428C25.0798 5.49428 23.754 5.47435 22.4391 5.49428C21.3674 5.51012 20.3353 5.89551 19.5222 6.58342C18.709 7.27134 18.1664 8.21826 17.9885 9.25954C17.7645 10.5995 17.9279 11.9578 17.8905 13.3069C17.8905 13.5644 17.9652 13.7039 18.2562 13.5828C18.6234 13.4295 18.972 13.3835 19.0125 12.801C19.2225 9.73479 21.5334 7.66359 24.655 7.64826C25.9232 7.64826 27.1915 7.64826 28.4613 7.64826C29.5335 7.64826 30.3598 7.20214 30.892 6.26849C31.2608 5.62613 31.1752 5.48355 30.4376 5.48048C29.0915 5.49122 27.7455 5.49428 26.3994 5.49428ZM27.8544 40.283C27.8326 40.444 27.8248 40.5467 27.8062 40.6464C27.4638 42.4539 27.1261 44.2598 26.776 46.0658C26.5799 47.0746 26.9425 47.6357 27.9509 47.8488C28.5842 47.9822 29.2222 48.1002 29.8478 48.2643C30.2975 48.3838 30.5201 48.2735 30.5916 47.8043C30.671 47.2754 30.7908 46.7511 30.9122 46.2283C31.1363 45.2609 31.1456 45.2318 30.1497 45.0816C29.4666 44.9804 29.1756 44.6998 29.2082 43.9823C29.2534 42.9628 29.1507 41.9388 29.1771 40.9162C29.2145 39.4506 28.2139 38.428 27.621 37.2368C27.5957 37.1834 27.5585 37.1362 27.5122 37.0989C27.4659 37.0616 27.4117 37.035 27.3535 37.0212C27.2954 37.0073 27.2348 37.0066 27.1763 37.019C27.1178 37.0313 27.0629 37.0565 27.0156 37.0927C26.9236 37.1427 26.8549 37.2259 26.8238 37.3248C26.7928 37.4237 26.8018 37.5307 26.8491 37.6231C26.9363 37.8362 27.0172 38.0524 27.0997 38.267C27.3673 38.9477 27.7548 39.5931 27.8544 40.283ZM21.051 48.3072C21.759 48.1539 22.4671 48.0006 23.1751 47.8473C24.2162 47.6296 24.5601 47.1405 24.3749 46.0873C24.1866 45.0141 24.0543 43.9088 23.7618 42.8555C23.2794 41.1139 23.2202 39.4506 24.2131 37.8515C24.3687 37.5925 24.4916 37.2475 24.0886 37.0666C23.712 36.898 23.5361 37.177 23.3665 37.4545C22.4889 38.8864 21.7248 40.3428 21.966 42.1089C21.9979 42.5414 21.9932 42.9757 21.952 43.4074C21.8944 44.8823 22.2134 44.8746 20.5842 45.1337C20.2356 45.1889 20.024 45.287 20.1469 45.7316C20.343 46.4429 20.4581 47.1773 20.6137 47.9009C20.6573 48.1385 20.718 48.37 21.051 48.3072ZM24.7141 24.9231C24.3898 24.9038 24.0671 24.8643 23.7478 24.805C23.337 24.7115 23.2483 24.8832 23.2545 25.2312C23.27 25.9977 23.2265 26.7643 23.2856 27.5232C23.324 28.0886 23.5775 28.619 23.9955 29.0084C24.4135 29.3978 24.9652 29.6174 25.5404 29.6235C26.1285 29.6332 26.6984 29.4223 27.1345 29.0334C27.5705 28.6445 27.8401 28.1068 27.8886 27.5293C27.954 26.7704 27.9089 25.9962 27.9322 25.2389C27.9462 24.8157 27.7766 24.7238 27.3704 24.805C26.5613 24.966 25.7303 24.9614 24.7141 24.9231ZM24.1617 40.3903C24.3313 41.2657 24.4869 42.1442 24.6768 43.015C24.7919 43.5439 25.2557 43.6435 25.7007 43.6481C26.1458 43.6527 26.4228 43.4228 26.5332 42.9276C26.8912 41.3194 27.1915 39.7326 26.1816 38.2318C26.1472 38.1631 26.1201 38.0912 26.1006 38.0171C25.8252 37.338 25.9326 36.7447 26.5877 36.3583C26.9425 36.1498 26.9083 35.9551 26.7262 35.6868C26.6133 35.499 26.4504 35.3453 26.255 35.2423C26.0597 35.1393 25.8395 35.091 25.6182 35.1027C25.3837 35.1097 25.1557 35.1806 24.9596 35.3076C24.7634 35.4345 24.6068 35.6125 24.5072 35.8217C24.3982 36.021 24.3718 36.1973 24.5912 36.3537C25.3568 36.8934 25.2712 37.5572 24.9413 38.3161C24.6503 38.9891 24.2753 39.6422 24.1617 40.3903ZM29.549 8.39488C29.7155 8.54818 29.8011 8.63557 29.8992 8.71069C31.2592 9.72559 31.989 11.0778 32.1322 12.7458C32.1301 12.8736 32.14 13.0014 32.1618 13.1275C32.2925 13.5675 32.7422 13.5629 33.0488 13.5874C33.3553 13.612 33.2339 13.2333 33.2371 13.0355C33.2542 12.0666 33.2651 11.0962 33.2371 10.1227C33.2059 9.00811 32.8791 8.01161 31.9019 7.32325C31.6576 7.15155 31.4351 7.0013 31.1736 7.32325C30.7768 7.81844 30.2228 8.09133 29.549 8.39488ZM30.2026 28.2774C30.2462 27.9509 29.9334 27.9432 29.7358 27.9463C29.3576 27.9463 28.8441 27.5078 28.6262 28.1839C28.4277 28.791 28.0664 29.3339 27.5805 29.7553C27.2817 30.0236 26.6251 30.0619 26.6733 30.4345C26.7169 30.7856 27.2039 31.083 27.4949 31.4034C27.5307 31.4417 27.5681 31.477 27.6023 31.5138C28.5515 32.521 28.5593 32.5241 29.0682 31.2348C29.4588 30.2643 29.8198 29.2816 30.2026 28.2774ZM22.0002 27.8558C21.7933 28.0766 20.911 27.5921 21.2222 28.4936C21.6205 29.6771 22.078 30.8423 22.506 32.0197C22.6134 32.314 22.7145 32.4904 23.0211 32.1592C23.4739 31.6702 23.9547 31.2133 24.434 30.7457C24.6674 30.5157 24.7235 30.3486 24.3453 30.1923C23.9087 30.0233 23.5184 29.7558 23.2057 29.4113C22.893 29.0667 22.6667 28.6548 22.5449 28.2085C22.4718 27.9632 22.3737 27.7761 22.0002 27.8558ZM26.9394 32.7433C26.9316 32.1301 26.0057 30.7503 25.626 30.7779C25.1592 30.8193 24.3656 32.0872 24.3811 32.7832C24.3951 33.7199 24.8682 34.2503 25.6789 34.2365C26.4897 34.2227 26.955 33.6632 26.9394 32.7433Z" fill="url(#paint0_linear_1_4936)"/>
<path d="M26.8258 4.64802C28.2528 4.64802 29.6782 4.64802 31.1052 4.64802C31.9735 4.64802 32.1587 4.81666 31.9797 5.63379C31.8677 6.14431 31.9875 6.40033 32.4185 6.69009C33.5249 7.4367 34.0042 8.55585 34.0556 9.84364C34.0945 10.8386 34.068 11.8366 34.0649 12.8332C34.0649 13.6702 34.1069 14.4582 34.4897 15.2723C35.1775 16.7333 34.3341 18.481 32.778 19.0161C32.2723 19.1909 32.1073 19.4423 32.0419 19.9206C31.7992 21.7005 30.8577 23.0619 29.3312 24.0109C28.8986 24.2792 28.7087 24.5566 28.7554 25.0534C28.8052 25.6375 28.6107 26.3136 28.8503 26.7888C29.09 27.2641 29.9007 27.005 30.4065 27.2487C31.0398 27.5554 31.3401 27.402 31.6871 26.7505C32.5679 25.0825 34.177 24.3742 35.9463 23.9603C37.7156 23.5463 39.5145 23.7441 41.2869 23.5111C43.9868 23.1554 46.4984 22.3751 48.4638 20.3805C48.6161 20.2024 48.8232 20.0779 49.0536 20.0259C49.2841 19.9739 49.5255 19.9972 49.7414 20.0923C49.9759 20.1762 50.1767 20.3327 50.3135 20.5382C50.4504 20.7438 50.5161 20.9875 50.5008 21.2329C50.5008 22.231 50.4447 23.2259 50.1273 24.1856C49.9641 24.6684 49.9388 25.186 50.0541 25.6819C50.4089 27.3407 50.3576 28.9842 49.7025 30.574C49.6176 30.7874 49.5923 31.0192 49.6293 31.2455C50.2066 35.9061 47.1924 38.3851 44.0039 39.3877C42.4009 39.9105 40.7238 40.1791 39.0352 40.1834C38.2182 40.1834 38.0471 40.4593 38.0719 41.2029C38.128 42.8095 38.0937 44.4223 38.0875 46.0305C38.0875 48.8591 36.0645 50.4382 33.2448 49.8326L27.7019 48.6429C26.3434 48.3516 25.6914 47.395 25.9404 46.0597C25.9964 45.7531 26.0415 45.4541 26.1193 45.1582C26.2578 44.6431 26.1302 44.4591 25.5373 44.4515C25.0082 44.4515 24.9024 44.5726 25.0222 45.0417C25.119 45.439 25.1933 45.8413 25.2448 46.2467C25.4004 47.3996 24.7779 48.344 23.6388 48.6031C21.5676 49.0707 19.4933 49.5229 17.4143 49.9322C15.1533 50.3646 13.1365 48.7318 13.0898 46.4521C13.0541 44.6646 13.04 42.8739 13.1007 41.0864C13.1256 40.3413 12.8331 40.2186 12.1671 40.1956C9.73794 40.1144 7.35862 39.7541 5.20182 38.5614C2.38834 36.9976 1.11231 34.6106 1.35974 31.4279C1.38152 31.152 1.43288 30.8821 1.31305 30.6001C0.609684 28.9413 0.594123 27.2227 0.980043 25.4918C1.06666 25.0937 1.03918 24.6797 0.90068 24.296C0.569225 23.2873 0.500755 22.2417 0.500755 21.1931C0.491705 20.9482 0.564225 20.7072 0.707243 20.5068C0.850262 20.3064 1.05592 20.1576 1.29282 20.0831C1.49834 19.998 1.72583 19.9787 1.94309 20.0279C2.16036 20.0772 2.35641 20.1925 2.50349 20.3575C4.85792 22.7062 7.86125 23.4467 11.0653 23.6092C12.802 23.6981 14.5402 23.692 16.2005 24.2976C17.6649 24.8326 18.8615 25.6773 19.498 27.1353C19.6536 27.4726 19.8294 27.5416 20.1578 27.4281C20.4861 27.3147 20.8082 27.2549 21.1257 27.1445C21.5318 27.0034 22.2383 27.1966 22.3193 26.8149C22.4749 26.0591 22.3908 25.2435 22.3488 24.4555C22.341 24.3236 22.0578 24.1902 21.882 24.0845C20.2418 23.0711 19.2848 21.6193 19.0327 19.7336C18.9813 19.3472 18.8288 19.1832 18.4632 19.0498C16.6845 18.3967 15.964 16.6275 16.8059 14.9304C16.9917 14.5681 17.0847 14.1665 17.0766 13.7607C17.0658 12.5342 17.0564 11.3077 17.0766 10.0813C17.1311 6.97984 19.484 4.68021 22.6242 4.65109C24.0248 4.63729 25.4253 4.64802 26.8258 4.64802ZM2.14092 31.9921C2.2016 34.491 3.14462 36.2847 5.09756 37.5281C7.38352 38.9753 9.9807 39.2804 12.6152 39.4076C13.0214 39.426 13.0821 39.2068 13.0821 38.8818C13.0727 38.2946 13.0618 37.7059 13.0821 37.1187C13.219 33.3136 14.9245 30.3839 18.1722 28.328C18.9627 27.8267 19.0031 27.7761 18.4741 26.9835C17.5404 25.5761 16.0916 25.0135 14.495 24.6992C13.0354 24.411 11.5477 24.5459 10.0787 24.3849C7.40686 24.1013 4.9046 23.3869 2.73691 21.7296C2.35566 21.4384 2.08489 20.6657 1.55581 20.9631C1.06563 21.2329 1.36285 21.955 1.4002 22.464C1.66163 25.6651 3.31268 27.5569 6.37981 28.1809C6.86066 28.279 7.35862 28.2836 7.84724 28.3418C8.06821 28.3679 8.25651 28.4599 8.25184 28.719C8.25594 28.7756 8.24726 28.8325 8.22642 28.8855C8.20558 28.9384 8.17309 28.9862 8.13128 29.0253C8.08948 29.0645 8.0394 29.094 7.98464 29.1118C7.92988 29.1296 7.8718 29.1352 7.81456 29.1283C7.4266 29.123 7.03915 29.0985 6.65369 29.0547C4.66963 28.7972 2.99056 27.9953 1.79079 26.3151C0.891343 29.162 2.4677 32.0872 5.23917 32.8629C6.01405 33.0729 6.81198 33.1892 7.61538 33.2094C7.92661 33.2201 8.31719 33.1756 8.32809 33.6064C8.33898 34.1016 7.91416 34.0449 7.58581 34.0357C5.61731 33.9866 3.79041 33.5405 2.14092 31.9921ZM49.245 26.381C49.0006 26.4623 48.9228 26.6984 48.7781 26.8639C47.3216 28.4967 45.4122 29.067 43.2896 29.1406C42.9955 29.1513 42.7668 29.0593 42.7528 28.7328C42.7403 28.4338 42.9629 28.3526 43.2196 28.328C43.425 28.3066 43.632 28.2928 43.8421 28.2759C48.3875 27.9172 49.6885 24.6103 49.6542 21.3356C49.6542 21.1501 49.6371 20.9631 49.4348 20.8864C49.2325 20.8098 49.1002 20.9447 48.968 21.0719C48.6934 21.3422 48.4046 21.5981 48.1028 21.8385C45.9242 23.4758 43.411 24.1565 40.7345 24.3972C39.113 24.5505 37.4666 24.4064 35.8685 24.8311C34.5909 25.1714 33.43 25.6988 32.6333 26.7995C31.9999 27.6765 32.0388 27.7976 32.9787 28.3434C35.0577 29.556 36.48 31.3068 37.3748 33.5099C38.0579 35.1886 38.1653 36.9332 38.0937 38.7024C38.0688 39.2942 38.2805 39.4552 38.8531 39.4092C39.9124 39.3418 40.9671 39.2159 42.0121 39.032C44.0039 38.6472 45.8666 37.9911 47.2905 36.481C48.4311 35.2714 48.9119 33.8211 48.8715 32.1883C48.5945 32.1531 48.5167 32.314 48.4046 32.406C46.9263 33.6662 45.1477 34.0081 43.2694 34.0434C42.9582 34.0434 42.6672 33.9912 42.675 33.611C42.675 33.2722 42.9644 33.2354 43.2352 33.2201C43.6491 33.1956 44.0646 33.191 44.4801 33.145C48.8201 32.6544 49.8845 29.2448 49.245 26.381ZM25.5171 24.0814C25.8532 24.0814 26.1925 24.0983 26.527 24.0814C29.0464 23.9281 31.1316 21.9013 31.2514 19.4239C31.2841 18.7601 31.4351 18.4304 32.1851 18.3231C33.1982 18.1698 33.8611 17.2837 33.8704 16.3117C33.8797 15.3765 33.2277 14.4015 32.2972 14.2896C31.3666 14.1777 31.2701 13.7254 31.2639 12.9635C31.2468 10.9873 30.019 9.40671 28.1392 8.73062C27.1526 8.37648 26.1411 8.48379 25.1374 8.47153C21.8228 8.4286 19.9773 10.1579 19.8466 13.4265C19.8294 13.8711 19.719 14.1209 19.2241 14.2129C18.0228 14.4383 17.3054 15.234 17.2914 16.2673C17.2758 17.3404 17.9823 18.1376 19.249 18.3829C19.7158 18.4734 19.8528 18.6895 19.8497 19.1065C19.8423 19.6695 19.9415 20.229 20.1422 20.7561C20.9903 22.9622 22.8125 24.0967 25.5171 24.0814ZM23.4552 33.0346C22.2477 33.8471 22.243 33.8425 21.7575 32.4781C21.3373 31.2976 20.8798 30.1309 20.4846 28.9413C20.3087 28.4078 20.1033 28.2529 19.5509 28.5289C16.1523 30.2306 14.1589 32.9212 13.9815 36.6818C13.8259 39.9442 13.9177 43.2204 13.9488 46.4935C13.9644 48.1615 15.4007 49.3497 17.0751 49.1289C17.8687 49.0247 18.6452 48.7978 19.4357 48.6613C19.8497 48.5908 19.845 48.37 19.7765 48.0588C19.6209 47.3613 19.4482 46.6637 19.3439 45.9585C19.2739 45.4848 19.0327 45.4495 18.6468 45.5384C18.1177 45.6595 17.5824 45.7592 17.0471 45.8542C16.7997 45.8972 16.5647 45.845 16.4962 45.563C16.478 45.5071 16.4735 45.4478 16.4831 45.3899C16.4926 45.332 16.516 45.2772 16.5512 45.2299C16.5864 45.1827 16.6325 45.1443 16.6857 45.118C16.7389 45.0916 16.7977 45.0781 16.8572 45.0785C17.4797 45.0095 17.4548 44.5971 17.4532 44.1403C17.4423 41.4834 17.4532 38.8266 17.4532 36.1682C17.4446 35.9391 17.4571 35.7098 17.4906 35.4829C17.5019 35.3923 17.5464 35.3088 17.6157 35.2481C17.6851 35.1875 17.7744 35.1538 17.8672 35.1533C17.9598 35.1474 18.0514 35.1755 18.1244 35.2321C18.1973 35.2887 18.2465 35.3698 18.2624 35.4599C18.304 35.6849 18.3207 35.9136 18.3122 36.1422C18.3122 38.3651 18.3044 40.5881 18.3122 42.8111C18.3122 43.4243 18.0352 44.2276 18.4305 44.5803C18.8257 44.9329 19.5836 44.4269 20.1905 44.3687C20.3196 44.3564 20.4457 44.3212 20.5748 44.3089C20.9872 44.2706 21.1381 44.0575 21.1319 43.6466C21.1179 42.7268 21.1895 41.8069 21.1475 40.8871C21.0681 39.1639 22.145 37.9144 22.9806 36.5944C23.5735 35.6623 24.6472 34.954 23.6466 33.6954C23.5315 33.5512 23.5315 33.3121 23.4552 33.0346ZM27.898 33.0898C27.6194 33.6095 27.5556 34.1476 27.1448 34.5048C27.0701 34.5707 27.0032 34.6949 27.0903 34.7746C27.5463 35.1993 27.5572 35.8647 27.9166 36.3077C29.2627 38.0217 30.1902 39.8139 30.0501 42.0982C29.9209 44.1893 30.0408 44.1816 32.098 44.6247C32.7204 44.7581 32.9678 44.6814 32.957 43.967C32.9165 41.3608 32.9398 38.7545 32.9414 36.1483C32.9359 35.9189 32.9468 35.6894 32.9741 35.4615C32.9861 35.3716 33.0327 35.2897 33.1042 35.2327C33.1757 35.1756 33.2667 35.1478 33.3584 35.1549C33.451 35.1517 33.5413 35.1834 33.6109 35.2435C33.6806 35.3036 33.7244 35.3875 33.7335 35.4783C33.7568 35.7065 33.7662 35.9359 33.7615 36.1652C33.7615 38.8235 33.777 41.4804 33.7506 44.1372C33.7506 44.709 33.8439 45.0754 34.5022 45.1092C34.801 45.1245 35.1013 45.2333 35.0282 45.6151C34.955 45.9968 34.6562 45.9754 34.3528 45.9125C33.7444 45.7868 33.1328 45.6764 32.5275 45.5415C32.1431 45.4541 31.8972 45.4786 31.8256 45.9554C31.7152 46.6867 31.5471 47.4088 31.3806 48.1309C31.309 48.4375 31.3697 48.5985 31.7167 48.6598C32.4808 48.7962 33.2324 49.0124 34.0011 49.1197C35.7346 49.3589 37.1881 48.2121 37.2099 46.4966C37.2503 43.1759 37.353 39.8476 37.1616 36.5316C36.9531 32.9564 35.0608 30.318 31.8179 28.6362C31.2545 28.3449 31.0242 28.4415 30.8157 29.0149C30.3084 30.4069 29.7451 31.7744 29.2067 33.1618C28.9982 33.6954 28.7134 33.8855 28.2528 33.3841C28.1401 33.2796 28.0217 33.1814 27.898 33.0898ZM26.3994 5.49428C25.0798 5.49428 23.754 5.47435 22.4391 5.49428C21.3674 5.51012 20.3353 5.89551 19.5222 6.58342C18.709 7.27134 18.1664 8.21826 17.9885 9.25954C17.7645 10.5995 17.9279 11.9578 17.8905 13.3069C17.8905 13.5644 17.9652 13.7039 18.2562 13.5828C18.6234 13.4295 18.972 13.3835 19.0125 12.801C19.2225 9.73479 21.5334 7.66359 24.655 7.64826C25.9232 7.64826 27.1915 7.64826 28.4613 7.64826C29.5335 7.64826 30.3598 7.20214 30.892 6.26849C31.2608 5.62613 31.1752 5.48355 30.4376 5.48048C29.0915 5.49122 27.7455 5.49428 26.3994 5.49428ZM27.8544 40.283C27.8326 40.444 27.8248 40.5467 27.8062 40.6464C27.4638 42.4539 27.1261 44.2598 26.776 46.0658C26.5799 47.0746 26.9425 47.6357 27.9509 47.8488C28.5842 47.9822 29.2222 48.1002 29.8478 48.2643C30.2975 48.3838 30.5201 48.2735 30.5916 47.8043C30.671 47.2754 30.7908 46.7511 30.9122 46.2283C31.1363 45.2609 31.1456 45.2318 30.1497 45.0816C29.4666 44.9804 29.1756 44.6998 29.2082 43.9823C29.2534 42.9628 29.1507 41.9388 29.1771 40.9162C29.2145 39.4506 28.2139 38.428 27.621 37.2368C27.5957 37.1834 27.5585 37.1362 27.5122 37.0989C27.4659 37.0616 27.4117 37.035 27.3535 37.0212C27.2954 37.0073 27.2348 37.0066 27.1763 37.019C27.1178 37.0313 27.0629 37.0565 27.0156 37.0927C26.9236 37.1427 26.8549 37.2259 26.8238 37.3248C26.7928 37.4237 26.8018 37.5307 26.8491 37.6231C26.9363 37.8362 27.0172 38.0524 27.0997 38.267C27.3673 38.9477 27.7548 39.5931 27.8544 40.283ZM21.051 48.3072C21.759 48.1539 22.4671 48.0006 23.1751 47.8473C24.2162 47.6296 24.5601 47.1405 24.3749 46.0873C24.1866 45.0141 24.0543 43.9088 23.7618 42.8555C23.2794 41.1139 23.2202 39.4506 24.2131 37.8515C24.3687 37.5925 24.4916 37.2475 24.0886 37.0666C23.712 36.898 23.5361 37.177 23.3665 37.4545C22.4889 38.8864 21.7248 40.3428 21.966 42.1089C21.9979 42.5414 21.9932 42.9757 21.952 43.4074C21.8944 44.8823 22.2134 44.8746 20.5842 45.1337C20.2356 45.1889 20.024 45.287 20.1469 45.7316C20.343 46.4429 20.4581 47.1773 20.6137 47.9009C20.6573 48.1385 20.718 48.37 21.051 48.3072ZM24.7141 24.9231C24.3898 24.9038 24.0671 24.8643 23.7478 24.805C23.337 24.7115 23.2483 24.8832 23.2545 25.2312C23.27 25.9977 23.2265 26.7643 23.2856 27.5232C23.324 28.0886 23.5775 28.619 23.9955 29.0084C24.4135 29.3978 24.9652 29.6174 25.5404 29.6235C26.1285 29.6332 26.6984 29.4223 27.1345 29.0334C27.5705 28.6445 27.8401 28.1068 27.8886 27.5293C27.954 26.7704 27.9089 25.9962 27.9322 25.2389C27.9462 24.8157 27.7766 24.7238 27.3704 24.805C26.5613 24.966 25.7303 24.9614 24.7141 24.9231ZM24.1617 40.3903C24.3313 41.2657 24.4869 42.1442 24.6768 43.015C24.7919 43.5439 25.2557 43.6435 25.7007 43.6481C26.1458 43.6527 26.4228 43.4228 26.5332 42.9276C26.8912 41.3194 27.1915 39.7326 26.1816 38.2318C26.1472 38.1631 26.1201 38.0912 26.1006 38.0171C25.8252 37.338 25.9326 36.7447 26.5877 36.3583C26.9425 36.1498 26.9083 35.9551 26.7262 35.6868C26.6133 35.499 26.4504 35.3453 26.255 35.2423C26.0597 35.1393 25.8395 35.091 25.6182 35.1027C25.3837 35.1097 25.1557 35.1806 24.9596 35.3076C24.7634 35.4345 24.6068 35.6125 24.5072 35.8217C24.3982 36.021 24.3718 36.1973 24.5912 36.3537C25.3568 36.8934 25.2712 37.5572 24.9413 38.3161C24.6503 38.9891 24.2753 39.6422 24.1617 40.3903ZM29.549 8.39488C29.7155 8.54818 29.8011 8.63557 29.8992 8.71069C31.2592 9.72559 31.989 11.0778 32.1322 12.7458C32.1301 12.8736 32.14 13.0014 32.1618 13.1275C32.2925 13.5675 32.7422 13.5629 33.0488 13.5874C33.3553 13.612 33.2339 13.2333 33.2371 13.0355C33.2542 12.0666 33.2651 11.0962 33.2371 10.1227C33.2059 9.00811 32.8791 8.01161 31.9019 7.32325C31.6576 7.15155 31.4351 7.0013 31.1736 7.32325C30.7768 7.81844 30.2228 8.09133 29.549 8.39488ZM30.2026 28.2774C30.2462 27.9509 29.9334 27.9432 29.7358 27.9463C29.3576 27.9463 28.8441 27.5078 28.6262 28.1839C28.4277 28.791 28.0664 29.3339 27.5805 29.7553C27.2817 30.0236 26.6251 30.0619 26.6733 30.4345C26.7169 30.7856 27.2039 31.083 27.4949 31.4034C27.5307 31.4417 27.5681 31.477 27.6023 31.5138C28.5515 32.521 28.5593 32.5241 29.0682 31.2348C29.4588 30.2643 29.8198 29.2816 30.2026 28.2774ZM22.0002 27.8558C21.7933 28.0766 20.911 27.5921 21.2222 28.4936C21.6205 29.6771 22.078 30.8423 22.506 32.0197C22.6134 32.314 22.7145 32.4904 23.0211 32.1592C23.4739 31.6702 23.9547 31.2133 24.434 30.7457C24.6674 30.5157 24.7235 30.3486 24.3453 30.1923C23.9087 30.0233 23.5184 29.7558 23.2057 29.4113C22.893 29.0667 22.6667 28.6548 22.5449 28.2085C22.4718 27.9632 22.3737 27.7761 22.0002 27.8558ZM26.9394 32.7433C26.9316 32.1301 26.0057 30.7503 25.626 30.7779C25.1592 30.8193 24.3656 32.0872 24.3811 32.7832C24.3951 33.7199 24.8682 34.2503 25.6789 34.2365C26.4897 34.2227 26.955 33.6632 26.9394 32.7433Z" stroke="url(#paint1_linear_1_4936)" stroke-width="0.6" mask="url(#path-1-outside-1_1_4936)"/>
<path d="M25.5698 3.99476H25.5689C23.5185 3.98248 21.4524 3.90617 19.4452 3.32501L19.4452 3.325C19.3839 3.30725 19.3194 3.28955 19.2528 3.27128C18.9675 3.19305 18.644 3.10432 18.3785 2.95626C18.2107 2.8627 18.0569 2.74129 17.9433 2.57601C17.8288 2.40937 17.7607 2.20626 17.7529 1.95922L17.7528 1.95815C17.7463 1.69494 17.8062 1.47737 17.918 1.29828C18.0291 1.12046 18.1857 0.989996 18.3585 0.890314C18.6444 0.725335 18.9984 0.633461 19.3023 0.554605C19.3573 0.540317 19.4107 0.526456 19.4618 0.512665L19.462 0.512619C22.3781 -0.271317 25.3554 -0.211385 28.3113 -0.0488559C29.4897 0.0019307 30.6568 0.199766 31.7847 0.539927L31.7864 0.540439L31.7864 0.540449C31.8498 0.560389 31.9175 0.58032 31.9877 0.601009C32.2655 0.682879 32.5836 0.77663 32.8395 0.929875C33.0044 1.02862 33.1536 1.15691 33.2575 1.33138C33.3622 1.50714 33.4148 1.71953 33.4023 1.9756M25.5698 3.99476L33.2524 1.96826M25.5698 3.99476C25.6651 3.99476 25.7618 3.99566 25.8593 3.99656C26.0738 3.99856 26.292 4.00059 26.5071 3.99313L26.5074 3.99312C28.2686 3.92875 30.0478 3.82899 31.7677 3.30919M25.5698 3.99476L31.7243 3.1656M33.4023 1.9756L33.2524 1.96826M33.4023 1.9756C33.4023 1.97556 33.4023 1.97552 33.4023 1.97548L33.2524 1.96826M33.4023 1.9756C33.379 2.45863 33.1215 2.74942 32.7936 2.93787C32.5341 3.087 32.2183 3.17827 31.9394 3.25886C31.8802 3.27597 31.8227 3.29259 31.7677 3.30919M33.2524 1.96826C33.2156 2.73302 32.5225 2.93374 31.9042 3.11278C31.8433 3.13042 31.7831 3.14786 31.7243 3.1656M31.7677 3.30919L31.7243 3.1656M31.7677 3.30919C31.7677 3.30919 31.7677 3.3092 31.7677 3.3092L31.7243 3.1656M19.3352 0.701146C19.3915 0.686491 19.4469 0.672063 19.5009 0.657476L25.5698 3.84476C23.5204 3.83249 21.4725 3.75584 19.4869 3.18093C19.421 3.16182 19.3531 3.14317 19.2843 3.12426C18.6468 2.94905 17.9281 2.75151 17.9028 1.95447C17.8813 1.07949 18.6693 0.874413 19.3352 0.701146ZM31.2725 1.56144L31.2731 1.56156C31.6061 1.63217 31.9091 1.70723 32.1305 1.92682C31.9224 2.14982 31.6307 2.2055 31.2976 2.26906C31.2667 2.27496 31.2354 2.28093 31.2038 2.28711L31.2038 2.28707L31.2006 2.28777C27.4891 3.09722 23.6428 3.09722 19.9313 2.28776L19.9303 2.28756C19.8656 2.27391 19.7915 2.26179 19.7186 2.24987C19.6835 2.24413 19.6486 2.23843 19.6153 2.23264C19.5076 2.21391 19.4061 2.19281 19.3183 2.16257C19.2297 2.13205 19.1666 2.09602 19.1266 2.05462C19.0909 2.01762 19.0675 1.97039 19.0674 1.89697C19.0678 1.8637 19.0807 1.8337 19.1183 1.80005C19.1599 1.76287 19.2259 1.72739 19.3161 1.69486C19.4564 1.64425 19.6203 1.61196 19.7779 1.58091C19.8259 1.57145 19.8734 1.5621 19.9194 1.55239L19.9198 1.55229C23.6607 0.751 27.533 0.75412 31.2725 1.56144Z" fill="url(#paint2_linear_1_4936)" stroke="url(#paint3_linear_1_4936)" stroke-width="0.3"/>
<path d="M23.1615 19.9649L23.0475 19.8675C22.9706 19.9574 22.9213 20.0511 22.9038 20.1494C22.8862 20.249 22.9035 20.3407 22.9395 20.4214C23.007 20.5725 23.1456 20.6946 23.2522 20.7856C23.8899 21.3337 24.7076 21.6345 25.5531 21.6327C26.4291 21.6551 27.2813 21.3482 27.9366 20.7737L27.9366 20.7737C28.0403 20.6827 28.1765 20.5576 28.2386 20.4026C28.2717 20.3199 28.2848 20.2268 28.262 20.1271C28.2396 20.029 28.1851 19.9365 28.1028 19.8486L28.1028 19.8486L28.1016 19.8473C28.0289 19.7715 27.95 19.718 27.864 19.6897C27.777 19.661 27.6921 19.6611 27.6129 19.6785C27.463 19.7115 27.3282 19.809 27.2221 19.8903L27.222 19.8903C26.662 20.3198 26.114 20.5222 25.576 20.519C25.0377 20.5158 24.4905 20.3067 23.9329 19.8782L23.9327 19.8779C23.8202 19.7919 23.6799 19.6976 23.5259 19.6715C23.445 19.6579 23.3596 19.6628 23.2744 19.6966C23.1901 19.7301 23.1146 19.7882 23.0471 19.8679L23.1615 19.9649ZM23.1615 19.9649C22.9048 20.2654 23.1288 20.4831 23.3498 20.6717L23.1615 19.9649Z" fill="url(#paint4_linear_1_4936)" stroke="url(#paint5_linear_1_4936)" stroke-width="0.3"/>
</g>
<defs>
<linearGradient id="paint0_linear_1_4936" x1="0.5" y1="27.3229" x2="50.5029" y2="27.3229" gradientUnits="userSpaceOnUse">
<stop stop-color="#F6EB61"/>
<stop offset="1" stop-color="#FFB25B"/>
</linearGradient>
<linearGradient id="paint1_linear_1_4936" x1="0.5" y1="27.3229" x2="50.5029" y2="27.3229" gradientUnits="userSpaceOnUse">
<stop stop-color="#F6EB61"/>
<stop offset="1" stop-color="#FFB25B"/>
</linearGradient>
<linearGradient id="paint2_linear_1_4936" x1="17.9023" y1="1.92421" x2="33.2541" y2="1.92421" gradientUnits="userSpaceOnUse">
<stop stop-color="#F6EB61"/>
<stop offset="1" stop-color="#FFB25B"/>
</linearGradient>
<linearGradient id="paint3_linear_1_4936" x1="17.9023" y1="1.92421" x2="33.2541" y2="1.92421" gradientUnits="userSpaceOnUse">
<stop stop-color="#F6EB61"/>
<stop offset="1" stop-color="#FFB25B"/>
</linearGradient>
<linearGradient id="paint4_linear_1_4936" x1="23.0469" y1="20.6491" x2="28.1234" y2="20.6491" gradientUnits="userSpaceOnUse">
<stop stop-color="#F6EB61"/>
<stop offset="1" stop-color="#FFB25B"/>
</linearGradient>
<linearGradient id="paint5_linear_1_4936" x1="23.0469" y1="20.6491" x2="28.1234" y2="20.6491" gradientUnits="userSpaceOnUse">
<stop stop-color="#F6EB61"/>
<stop offset="1" stop-color="#FFB25B"/>
</linearGradient>
<clipPath id="clip0_1_4936">
<rect width="50" height="50" fill="white" transform="translate(0.5)"/>
</clipPath>
</defs>
</svg>
