<svg width="30" height="30" viewBox="0 0 30 30" fill="none" xmlns="http://www.w3.org/2000/svg">
<g clip-path="url(#clip0_1_5026)">
<path d="M6.16082 2.34282C6.16082 1.9126 6.14957 1.55549 6.16082 1.19932C6.1908 0.501031 6.65276 0.0183247 7.29087 -0.000421176C7.92899 -0.0191671 8.43312 0.438233 8.4884 1.12902C8.52026 1.51237 8.49402 1.90135 8.49402 2.31282H13.7742C13.7742 1.95759 13.7676 1.60516 13.7742 1.25274C13.7929 0.504781 14.2708 -0.000421176 14.9436 -0.000421176C15.5995 -0.000421176 16.0783 0.495408 16.113 1.21806C16.1308 1.57236 16.113 1.92947 16.113 2.31376H21.4466C21.4466 1.93884 21.4382 1.56392 21.4466 1.19463C21.471 0.50853 21.946 0.0155128 22.5823 -0.000421176C23.2185 -0.0163552 23.7367 0.461665 23.7826 1.13183C23.8079 1.51706 23.7826 1.9051 23.7826 2.29595C24.596 2.33907 25.3643 2.31657 26.1111 2.43186C28.2982 2.76928 29.9595 4.69543 29.9848 6.9065C30.0111 9.14101 29.9961 11.3755 29.9914 13.6091C29.9914 14.3458 29.4985 14.8744 28.8351 14.8848C28.1576 14.8941 27.6535 14.3561 27.6507 13.5904C27.6441 11.4964 27.6507 9.40252 27.6507 7.31048C27.6507 5.64584 26.6968 4.69355 25.0382 4.68605C24.6494 4.68605 24.2605 4.68605 23.7967 4.68605C23.7967 5.04691 23.7967 5.38246 23.7967 5.71708C23.7826 6.49409 23.3075 7.01898 22.6216 7.02273C21.9357 7.02648 21.4578 6.51096 21.4494 5.72739C21.4494 5.40215 21.4494 5.0769 21.4494 4.71979H16.1168C16.1168 5.06003 16.1243 5.39746 16.1168 5.73488C16.0952 6.51378 15.6136 7.02929 14.9277 7.02929C14.2418 7.02929 13.7854 6.50815 13.7733 5.71708C13.7686 5.39277 13.7733 5.06941 13.7733 4.71979H8.53713C8.51464 5.17063 8.52026 5.6196 8.46123 6.06013C8.42818 6.31071 8.31111 6.54266 8.12914 6.71803C7.94718 6.8934 7.71111 7.00182 7.45954 7.02554C7.20928 7.05694 6.95567 7.00453 6.73833 6.8765C6.521 6.74847 6.35218 6.55203 6.25827 6.31788C6.19475 6.11016 6.16316 5.89399 6.16457 5.67677C6.14864 5.3684 6.16457 5.0591 6.16457 4.75354C5.47772 4.75354 4.83211 4.67293 4.2146 4.77135C3.15576 4.9335 2.43612 5.82861 2.35741 6.89713C2.34523 7.06866 2.3471 7.24112 2.3471 7.41264C2.3471 13.2557 2.3471 19.0982 2.3471 24.9401C2.3471 26.7265 3.27195 27.6488 5.06449 27.6498C7.87558 27.6498 10.6867 27.6498 13.4978 27.6498C14.2343 27.6498 14.7262 28.0387 14.8049 28.6611C14.8986 29.3969 14.372 29.9846 13.5868 29.9902C12.2599 30.0005 10.9322 29.9902 9.6044 29.9902C8.01145 29.9902 6.4185 29.9902 4.82555 29.9902C2.03882 29.9874 0.00546405 27.9525 -0.000158129 25.1641C-0.00515562 19.1654 -0.00515562 13.1667 -0.000158129 7.16801C0.00640108 4.38049 2.03976 2.35594 4.8293 2.34282C5.24721 2.34282 5.66888 2.34282 6.16082 2.34282Z" fill="url(#paint0_linear_1_5026)"/>
<path d="M22.9243 15.8272C24.3251 15.8297 25.6937 16.2478 26.857 17.0284C28.0203 17.8089 28.9261 18.917 29.4598 20.2125C29.9936 21.508 30.1313 22.9327 29.8556 24.3065C29.5799 25.6803 28.9032 26.9415 27.911 27.9306C26.9188 28.9197 25.6556 29.5923 24.2813 29.8633C22.9069 30.1344 21.4831 29.9917 20.1898 29.4534C18.8965 28.915 17.7918 28.0051 17.0155 26.8388C16.2391 25.6725 15.8259 24.3021 15.8281 22.9009C15.8329 21.0221 16.5828 19.2219 17.9132 17.8956C19.2437 16.5693 21.0459 15.8254 22.9243 15.8272ZM22.9027 18.1704C21.9656 18.1709 21.0497 18.4495 20.2708 18.9708C19.492 19.4921 18.8852 20.2328 18.5272 21.0991C18.1692 21.9654 18.0761 22.9184 18.2597 23.8377C18.4433 24.7569 18.8953 25.601 19.5585 26.2633C20.2218 26.9255 21.0664 27.3762 21.9858 27.5581C22.9051 27.7401 23.8577 27.6453 24.7231 27.2857C25.5885 26.9261 26.3279 26.3178 26.8477 25.5378C27.3674 24.7578 27.6443 23.8411 27.6432 22.9037C27.6443 22.2812 27.5223 21.6647 27.2844 21.0895C27.0464 20.5143 26.6971 19.9919 26.2565 19.5523C25.816 19.1126 25.2929 18.7645 24.7173 18.5278C24.1417 18.2911 23.525 18.1706 22.9027 18.1732V18.1704Z" fill="url(#paint1_linear_1_5026)"/>
<path d="M13.5867 12.2982C13.5901 12.4544 13.5622 12.6097 13.5047 12.7549C13.4471 12.9001 13.361 13.0323 13.2515 13.1437C13.142 13.2551 13.0113 13.3434 12.8671 13.4033C12.7229 13.4633 12.5681 13.4938 12.4119 13.4929C12.2557 13.492 12.1013 13.4598 11.9578 13.3982C11.8143 13.3366 11.6845 13.2469 11.5763 13.1343C11.468 13.0217 11.3834 12.8885 11.3275 12.7427C11.2716 12.5968 11.2454 12.4412 11.2507 12.2851C11.2608 11.9809 11.3892 11.6926 11.6085 11.4817C11.8278 11.2707 12.1208 11.1536 12.425 11.1553C12.7293 11.157 13.0209 11.2774 13.2379 11.4908C13.4548 11.7042 13.5799 11.9939 13.5867 12.2982Z" fill="url(#paint2_linear_1_5026)"/>
<path d="M21.4517 12.3192C21.4472 12.1673 21.473 12.0161 21.5276 11.8743C21.5822 11.7325 21.6645 11.603 21.7698 11.4934C21.875 11.3838 22.001 11.2963 22.1404 11.2359C22.2798 11.1756 22.4298 11.1436 22.5817 11.142C22.7378 11.1381 22.8931 11.1654 23.0385 11.2223C23.1838 11.2792 23.3164 11.3645 23.4285 11.4732C23.5405 11.582 23.6297 11.712 23.6909 11.8556C23.7521 11.9993 23.7841 12.1537 23.7849 12.3098C23.7748 12.6169 23.6482 12.9087 23.4308 13.1258C23.2134 13.3429 22.9216 13.469 22.6145 13.4787C22.3078 13.4755 22.0144 13.3524 21.7971 13.1358C21.5798 12.9191 21.4558 12.6261 21.4517 12.3192Z" fill="url(#paint3_linear_1_5026)"/>
<path d="M13.587 17.3974C13.5904 17.7074 13.4705 18.006 13.2537 18.2276C13.037 18.4492 12.7411 18.5755 12.4312 18.5789C12.1213 18.5822 11.8228 18.4623 11.6013 18.2455C11.3797 18.0287 11.2534 17.7327 11.2501 17.4227C11.2484 17.2692 11.277 17.1169 11.3342 16.9745C11.3914 16.8321 11.476 16.7023 11.5834 16.5926C11.6907 16.4829 11.8186 16.3954 11.9597 16.3351C12.1008 16.2748 12.2525 16.2429 12.4059 16.2413C12.7158 16.2379 13.0143 16.3578 13.2358 16.5747C13.3455 16.682 13.433 16.8099 13.4932 16.9511C13.5535 17.0923 13.5854 17.2439 13.587 17.3974Z" fill="url(#paint4_linear_1_5026)"/>
<path d="M7.30881 18.5576C7.1567 18.5575 7.00614 18.527 6.86602 18.4678C6.7259 18.4086 6.59904 18.3219 6.49293 18.2129C6.38682 18.1039 6.30361 17.9747 6.24821 17.833C6.1928 17.6913 6.16631 17.54 6.17032 17.3879C6.16995 17.2357 6.19954 17.085 6.2574 16.9443C6.31526 16.8036 6.40026 16.6757 6.50755 16.5679C6.61483 16.46 6.7423 16.3744 6.88268 16.3158C7.02305 16.2573 7.17358 16.2269 7.32568 16.2266C7.48179 16.2279 7.63609 16.2603 7.77955 16.3219C7.92302 16.3835 8.05279 16.473 8.1613 16.5853C8.2698 16.6976 8.35487 16.8304 8.41153 16.9759C8.4682 17.1214 8.49533 17.2767 8.49134 17.4329C8.483 17.7387 8.35389 18.0287 8.13226 18.2395C7.91064 18.4503 7.61455 18.5647 7.30881 18.5576Z" fill="url(#paint5_linear_1_5026)"/>
<path d="M6.16811 12.2965C6.16571 12.1444 6.19385 11.9934 6.25084 11.8524C6.30783 11.7114 6.39252 11.5833 6.4999 11.4756C6.60728 11.368 6.73516 11.2829 6.87598 11.2256C7.0168 11.1682 7.16769 11.1397 7.31972 11.1418C7.47195 11.1393 7.62317 11.1669 7.76466 11.2232C7.90616 11.2794 8.03514 11.363 8.14418 11.4693C8.25322 11.5756 8.34017 11.7024 8.40001 11.8424C8.45986 11.9825 8.49142 12.133 8.49288 12.2853C8.4935 12.4413 8.46337 12.5959 8.40422 12.7403C8.34507 12.8847 8.25805 13.016 8.14814 13.1267C8.03823 13.2374 7.90759 13.3254 7.76368 13.3856C7.61976 13.4458 7.4654 13.477 7.30941 13.4775C7.00221 13.4701 6.71025 13.3421 6.49667 13.1211C6.2831 12.9001 6.16507 12.6039 6.16811 12.2965Z" fill="url(#paint6_linear_1_5026)"/>
<path d="M18.6734 12.3243C18.6692 12.6313 18.5445 12.9243 18.3263 13.1402C18.108 13.356 17.8137 13.4774 17.5068 13.4781C17.1994 13.4706 16.907 13.3443 16.6909 13.1256C16.4747 12.907 16.3517 12.613 16.3477 12.3056C16.3469 12.1494 16.3778 11.9947 16.4383 11.8508C16.4988 11.7069 16.5878 11.5767 16.7 11.468C16.8121 11.3594 16.945 11.2745 17.0907 11.2186C17.2365 11.1626 17.392 11.1367 17.548 11.1424C17.7001 11.144 17.8503 11.1761 17.9898 11.2368C18.1293 11.2975 18.2552 11.3855 18.3601 11.4957C18.465 11.6059 18.5468 11.736 18.6006 11.8783C18.6544 12.0206 18.6791 12.1723 18.6734 12.3243Z" fill="url(#paint7_linear_1_5026)"/>
<path d="M7.30899 23.6616C7.0059 23.6518 6.71856 23.5242 6.50804 23.3059C6.29752 23.0876 6.18043 22.7957 6.18165 22.4924C6.18287 22.1891 6.30231 21.8982 6.51458 21.6816C6.72684 21.4649 7.0152 21.3397 7.31836 21.3324C7.47402 21.3286 7.62885 21.3561 7.7737 21.4133C7.91855 21.4704 8.05047 21.556 8.16167 21.6651C8.27287 21.7741 8.36109 21.9043 8.4211 22.048C8.48112 22.1917 8.51172 22.346 8.51109 22.5018C8.51047 22.6575 8.47863 22.8116 8.41745 22.9548C8.35628 23.098 8.26702 23.2275 8.15495 23.3357C8.04288 23.4438 7.91027 23.5283 7.76497 23.5843C7.61966 23.6403 7.46461 23.6666 7.30899 23.6616Z" fill="url(#paint8_linear_1_5026)"/>
<path d="M12.4253 23.6622C12.1946 23.6627 11.9689 23.5947 11.7768 23.4667C11.5848 23.3387 11.435 23.1566 11.3466 22.9434C11.2583 22.7301 11.2352 22.4955 11.2803 22.2691C11.3255 22.0427 11.4369 21.8349 11.6003 21.6719C11.7637 21.509 11.9719 21.3983 12.1983 21.3538C12.4248 21.3094 12.6593 21.3332 12.8722 21.4223C13.085 21.5114 13.2666 21.6618 13.394 21.8543C13.5213 22.0468 13.5886 22.2728 13.5873 22.5037C13.5846 22.8107 13.4611 23.1044 13.2437 23.3212C13.0263 23.538 12.7323 23.6604 12.4253 23.6622Z" fill="url(#paint9_linear_1_5026)"/>
<path d="M24.073 21.7192C24.3541 21.7333 24.5416 21.7323 24.729 21.753C25.0033 21.7808 25.2587 21.9056 25.4493 22.1049C25.6399 22.3041 25.7533 22.5649 25.7691 22.8402C25.8 23.3923 25.458 23.95 24.9023 24.0071C24.1447 24.0823 23.3816 24.0848 22.6235 24.0146C22.0912 23.9678 21.7614 23.5104 21.7473 22.9536C21.7258 22.1269 21.7239 21.2993 21.7473 20.4726C21.7505 20.1718 21.8706 19.8841 22.0823 19.6704C22.2939 19.4568 22.5805 19.334 22.8811 19.3282C23.1826 19.325 23.4738 19.4378 23.6944 19.6433C23.915 19.8488 24.0482 20.1313 24.0665 20.4323C24.103 20.841 24.073 21.2609 24.073 21.7192Z" fill="url(#paint10_linear_1_5026)"/>
</g>
<defs>
<linearGradient id="paint0_linear_1_5026" x1="-0.00390614" y1="14.9969" x2="29.9999" y2="14.9969" gradientUnits="userSpaceOnUse">
<stop stop-color="#F6EB61"/>
<stop offset="1" stop-color="#FFB25B"/>
</linearGradient>
<linearGradient id="paint1_linear_1_5026" x1="15.8281" y1="22.9122" x2="29.9942" y2="22.9122" gradientUnits="userSpaceOnUse">
<stop stop-color="#F6EB61"/>
<stop offset="1" stop-color="#FFB25B"/>
</linearGradient>
<linearGradient id="paint2_linear_1_5026" x1="11.25" y1="12.3241" x2="13.587" y2="12.3241" gradientUnits="userSpaceOnUse">
<stop stop-color="#F6EB61"/>
<stop offset="1" stop-color="#FFB25B"/>
</linearGradient>
<linearGradient id="paint3_linear_1_5026" x1="21.4512" y1="12.3101" x2="23.7849" y2="12.3101" gradientUnits="userSpaceOnUse">
<stop stop-color="#F6EB61"/>
<stop offset="1" stop-color="#FFB25B"/>
</linearGradient>
<linearGradient id="paint4_linear_1_5026" x1="11.25" y1="17.4101" x2="13.5871" y2="17.4101" gradientUnits="userSpaceOnUse">
<stop stop-color="#F6EB61"/>
<stop offset="1" stop-color="#FFB25B"/>
</linearGradient>
<linearGradient id="paint5_linear_1_5026" x1="6.16992" y1="17.3922" x2="8.49173" y2="17.3922" gradientUnits="userSpaceOnUse">
<stop stop-color="#F6EB61"/>
<stop offset="1" stop-color="#FFB25B"/>
</linearGradient>
<linearGradient id="paint6_linear_1_5026" x1="6.16797" y1="12.3096" x2="8.49289" y2="12.3096" gradientUnits="userSpaceOnUse">
<stop stop-color="#F6EB61"/>
<stop offset="1" stop-color="#FFB25B"/>
</linearGradient>
<linearGradient id="paint7_linear_1_5026" x1="16.3477" y1="12.3099" x2="18.6742" y2="12.3099" gradientUnits="userSpaceOnUse">
<stop stop-color="#F6EB61"/>
<stop offset="1" stop-color="#FFB25B"/>
</linearGradient>
<linearGradient id="paint8_linear_1_5026" x1="6.18164" y1="22.4971" x2="8.5111" y2="22.4971" gradientUnits="userSpaceOnUse">
<stop stop-color="#F6EB61"/>
<stop offset="1" stop-color="#FFB25B"/>
</linearGradient>
<linearGradient id="paint9_linear_1_5026" x1="11.2578" y1="22.4971" x2="13.5873" y2="22.4971" gradientUnits="userSpaceOnUse">
<stop stop-color="#F6EB61"/>
<stop offset="1" stop-color="#FFB25B"/>
</linearGradient>
<linearGradient id="paint10_linear_1_5026" x1="21.7305" y1="21.6968" x2="25.771" y2="21.6968" gradientUnits="userSpaceOnUse">
<stop stop-color="#F6EB61"/>
<stop offset="1" stop-color="#FFB25B"/>
</linearGradient>
<clipPath id="clip0_1_5026">
<rect width="30" height="30" fill="white"/>
</clipPath>
</defs>
</svg>
