<svg width="23" height="30" viewBox="0 0 23 30" fill="none" xmlns="http://www.w3.org/2000/svg">
<path d="M11.25 5.625C9.6875 5.625 8.35938 6.17188 7.26562 7.26562C6.17188 8.35938 5.625 9.6875 5.625 11.25C5.625 12.8125 6.17188 14.1406 7.26562 15.2344C8.35938 16.3281 9.6875 16.875 11.25 16.875C12.8125 16.875 14.1406 16.3281 15.2344 15.2344C16.3281 14.1406 16.875 12.8125 16.875 11.25C16.875 9.6875 16.3281 8.35938 15.2344 7.26562C14.1406 6.17188 12.8125 5.625 11.25 5.625ZM11.25 15C10.2344 15 9.35547 14.6289 8.61328 13.8867C7.87109 13.1445 7.5 12.2656 7.5 11.25C7.5 10.2344 7.87109 9.35547 8.61328 8.61328C9.35547 7.87109 10.2344 7.5 11.25 7.5C12.2656 7.5 13.1445 7.87109 13.8867 8.61328C14.6289 9.35547 15 10.2344 15 11.25C15 12.2656 14.6289 13.1445 13.8867 13.8867C13.1445 14.6289 12.2656 15 11.25 15ZM11.25 0C9.21875 0 7.34375 0.507812 5.625 1.52344C3.90625 2.53906 2.53906 3.90625 1.52344 5.625C0.507812 7.34375 0 9.21875 0 11.25C0 12.5 0.15625 13.6133 0.46875 14.5898C0.78125 15.5273 1.38672 16.6992 2.28516 18.1055C2.91016 19.082 4.19922 20.9766 6.15234 23.7891L10.0781 29.4141C10.3516 29.8047 10.7422 30 11.25 30C11.7578 30 12.1484 29.8047 12.4219 29.4141L16.3477 23.7891C18.3008 20.9766 19.5898 19.082 20.2148 18.1055C21.1133 16.6992 21.7188 15.5273 22.0312 14.5898C22.3438 13.6133 22.5 12.5 22.5 11.25C22.5 9.21875 21.9922 7.34375 20.9766 5.625C19.9609 3.90625 18.5938 2.53906 16.875 1.52344C15.1562 0.507812 13.2812 0 11.25 0ZM11.25 27.7734C10.3125 26.4062 9.10156 24.668 7.61719 22.5586C5.74219 19.8633 4.51172 18.0859 3.92578 17.2266C3.10547 15.8984 2.55859 14.8438 2.28516 14.0625C2.01172 13.2422 1.875 12.3047 1.875 11.25C1.875 10 2.10938 8.80859 2.57812 7.67578C3.04688 6.54297 3.73047 5.52734 4.62891 4.62891C5.52734 3.73047 6.54297 3.04688 7.67578 2.57812C8.80859 2.10938 10 1.875 11.25 1.875C12.5 1.875 13.6914 2.10938 14.8242 2.57812C15.957 3.04688 16.9727 3.73047 17.8711 4.62891C18.7695 5.52734 19.4531 6.54297 19.9219 7.67578C20.3906 8.80859 20.625 10 20.625 11.25C20.625 12.3047 20.4883 13.2422 20.2148 14.0625C19.9414 14.8438 19.3945 15.8984 18.5742 17.2266C17.9883 18.0859 16.7578 19.8633 14.8828 22.5586L11.25 27.7734Z" fill="url(#paint0_linear_1_5042)"/>
<defs>
<linearGradient id="paint0_linear_1_5042" x1="8.3819e-08" y1="15" x2="22.5" y2="15" gradientUnits="userSpaceOnUse">
<stop stop-color="#F6EB61"/>
<stop offset="1" stop-color="#FFB25B"/>
</linearGradient>
</defs>
</svg>
