<svg width="24" height="25" viewBox="0 0 24 25" fill="none" xmlns="http://www.w3.org/2000/svg">
<path d="M11.9992 23.5C10.4558 22.1835 9.02513 20.7402 7.72226 19.1852C5.76708 16.85 3.44531 13.3722 3.44531 10.0582C3.44447 8.36568 3.94573 6.71097 4.88566 5.30347C5.82559 3.89596 7.16194 2.79893 8.72559 2.1512C10.2892 1.50348 12.0099 1.33418 13.6698 1.66473C15.3297 1.99527 16.8542 2.81081 18.0505 4.00813C18.8469 4.80103 19.4782 5.74401 19.9077 6.78249C20.3373 7.82098 20.5567 8.93435 20.5531 10.0582C20.5531 13.3722 18.2313 16.85 16.2761 19.1852C14.9733 20.7402 13.5426 22.1835 11.9992 23.5ZM11.9992 6.39222C11.0269 6.39222 10.0945 6.77846 9.40698 7.46596C8.71948 8.15346 8.33325 9.08591 8.33325 10.0582C8.33325 11.0304 8.71948 11.9629 9.40698 12.6504C10.0945 13.3379 11.0269 13.7241 11.9992 13.7241C12.9715 13.7241 13.9039 13.3379 14.5914 12.6504C15.2789 11.9629 15.6652 11.0304 15.6652 10.0582C15.6652 9.08591 15.2789 8.15346 14.5914 7.46596C13.9039 6.77846 12.9715 6.39222 11.9992 6.39222Z" fill="url(#paint0_linear_1_5888)"/>
<defs>
<linearGradient id="paint0_linear_1_5888" x1="3.44531" y1="12.5" x2="20.5531" y2="12.5" gradientUnits="userSpaceOnUse">
<stop stop-color="#F6EB61"/>
<stop offset="1" stop-color="#FFB25B"/>
</linearGradient>
</defs>
</svg>
