<svg width="24" height="24" viewBox="0 0 24 24" fill="none" xmlns="http://www.w3.org/2000/svg">
<g clip-path="url(#clip0_1_5896)">
<path d="M10.1462 13.7598C11.5378 15.1716 13.2217 16.2616 15.0795 16.9532L17.5928 14.9532C17.6674 14.9018 17.7557 14.8744 17.8462 14.8744C17.9367 14.8744 18.025 14.9018 18.0995 14.9532L22.7662 17.9598C22.9433 18.0663 23.0933 18.2126 23.2042 18.387C23.3152 18.5615 23.384 18.7593 23.4054 18.9649C23.4267 19.1705 23.3999 19.3783 23.3272 19.5718C23.2544 19.7653 23.1377 19.9392 22.9862 20.0798L20.7995 22.2398C20.4864 22.5492 20.1015 22.7763 19.6792 22.9008C19.2569 23.0253 18.8104 23.0433 18.3795 22.9532C14.081 22.0654 10.1189 19.9862 6.94618 16.9532C3.84383 13.89 1.69702 9.99239 0.766175 5.73316C0.674219 5.30892 0.693411 4.86812 0.821892 4.45348C0.950373 4.03883 1.18379 3.66441 1.49951 3.36649L3.76618 1.17983C3.90644 1.03568 4.0775 0.925143 4.26654 0.856478C4.45558 0.787813 4.65771 0.762805 4.85778 0.783325C5.05786 0.803846 5.2507 0.869364 5.42187 0.974973C5.59303 1.08058 5.73809 1.22355 5.84618 1.39316L8.95284 5.99983C9.00643 6.07216 9.03535 6.1598 9.03535 6.24983C9.03535 6.33985 9.00643 6.42749 8.95284 6.49983L6.90618 8.95983C7.61656 10.7805 8.72333 12.4201 10.1462 13.7598Z" fill="url(#paint0_linear_1_5896)"/>
</g>
<defs>
<linearGradient id="paint0_linear_1_5896" x1="0.708984" y1="11.893" x2="23.4125" y2="11.893" gradientUnits="userSpaceOnUse">
<stop stop-color="#F6EB61"/>
<stop offset="1" stop-color="#FFB25B"/>
</linearGradient>
<clipPath id="clip0_1_5896">
<rect width="24" height="24" fill="white"/>
</clipPath>
</defs>
</svg>
